<mxfile host="app.diagrams.net" agent="Mozilla/5.0 (Macintosh; Intel Mac OS X 10_15_7) AppleWebKit/537.36 (KHTML, like Gecko) Chrome/140.0.0.0 Safari/537.36" version="28.2.5">
  <diagram name="第1頁" id="u_zC9Hk_lbd6O7qH5zbH">
    <mxGraphModel dx="1601" dy="817" grid="1" gridSize="10" guides="1" tooltips="1" connect="1" arrows="1" fold="1" page="1" pageScale="1" pageWidth="827" pageHeight="1169" math="0" shadow="0">
      <root>
        <mxCell id="0" />
        <mxCell id="1" parent="0" />
        <mxCell id="_0QAA5KOcGjNJ8o1P5Sd-31" value="" style="whiteSpace=wrap;html=1;shape=mxgraph.basic.cloud_rect" parent="1" vertex="1">
          <mxGeometry x="490" y="555.4" width="145" height="270" as="geometry" />
        </mxCell>
        <mxCell id="_0QAA5KOcGjNJ8o1P5Sd-4" style="edgeStyle=orthogonalEdgeStyle;rounded=0;orthogonalLoop=1;jettySize=auto;html=1;exitX=0.5;exitY=1;exitDx=0;exitDy=0;" parent="1" source="_0QAA5KOcGjNJ8o1P5Sd-1" target="_0QAA5KOcGjNJ8o1P5Sd-2" edge="1">
          <mxGeometry relative="1" as="geometry" />
        </mxCell>
        <mxCell id="_0QAA5KOcGjNJ8o1P5Sd-1" value="&lt;font style=&quot;font-size: 16px;&quot;&gt;Pamex/&lt;/font&gt;&lt;span style=&quot;font-size: 16px; background-color: transparent; color: light-dark(rgb(0, 0, 0), rgb(255, 255, 255));&quot;&gt;Job Site Manager&lt;/span&gt;" style="rounded=1;whiteSpace=wrap;html=1;" parent="1" vertex="1">
          <mxGeometry x="312" y="110" width="204" height="60" as="geometry" />
        </mxCell>
        <mxCell id="_0QAA5KOcGjNJ8o1P5Sd-2" value="&lt;font style=&quot;font-size: 16px;&quot;&gt;EKS Cloud&lt;/font&gt;&lt;div&gt;&lt;font style=&quot;font-size: 16px;&quot;&gt;(Central Platform)&lt;/font&gt;&lt;/div&gt;" style="ellipse;shape=cloud;whiteSpace=wrap;html=1;" parent="1" vertex="1">
          <mxGeometry x="300" y="240" width="228" height="130" as="geometry" />
        </mxCell>
        <mxCell id="_0QAA5KOcGjNJ8o1P5Sd-5" value="&lt;font style=&quot;font-size: 16px;&quot;&gt;Configure project settings remotely&lt;/font&gt;" style="text;html=1;align=center;verticalAlign=middle;resizable=0;points=[];autosize=1;strokeColor=none;fillColor=none;" parent="1" vertex="1">
          <mxGeometry x="414" y="190" width="270" height="30" as="geometry" />
        </mxCell>
        <mxCell id="_0QAA5KOcGjNJ8o1P5Sd-6" value="" style="whiteSpace=wrap;html=1;shape=mxgraph.basic.cloud_rect" parent="1" vertex="1">
          <mxGeometry x="190" y="443.01" width="145" height="270" as="geometry" />
        </mxCell>
        <mxCell id="_0QAA5KOcGjNJ8o1P5Sd-8" value="" style="html=1;verticalLabelPosition=bottom;align=center;labelBackgroundColor=#ffffff;verticalAlign=top;strokeWidth=2;strokeColor=#0080F0;shadow=0;dashed=0;shape=mxgraph.ios7.icons.smartphone;" parent="1" vertex="1">
          <mxGeometry x="250" y="490" width="38" height="50" as="geometry" />
        </mxCell>
        <mxCell id="_0QAA5KOcGjNJ8o1P5Sd-10" value="" style="sketch=0;html=1;aspect=fixed;strokeColor=none;shadow=0;fillColor=#3B8DF1;verticalAlign=top;labelPosition=center;verticalLabelPosition=bottom;shape=mxgraph.gcp2.lock" parent="1" vertex="1">
          <mxGeometry x="246" y="630.51" width="46" height="58.97" as="geometry" />
        </mxCell>
        <mxCell id="_0QAA5KOcGjNJ8o1P5Sd-15" value="" style="endArrow=classic;startArrow=classic;html=1;rounded=0;" parent="1" edge="1">
          <mxGeometry width="50" height="50" relative="1" as="geometry">
            <mxPoint x="268.5" y="620" as="sourcePoint" />
            <mxPoint x="268.5" y="550" as="targetPoint" />
          </mxGeometry>
        </mxCell>
        <mxCell id="_0QAA5KOcGjNJ8o1P5Sd-17" value="" style="endArrow=classic;startArrow=classic;html=1;rounded=0;exitX=0.969;exitY=0.247;exitDx=0;exitDy=0;exitPerimeter=0;" parent="1" source="_0QAA5KOcGjNJ8o1P5Sd-8" edge="1">
          <mxGeometry width="50" height="50" relative="1" as="geometry">
            <mxPoint x="330" y="420" as="sourcePoint" />
            <mxPoint x="380" y="370" as="targetPoint" />
          </mxGeometry>
        </mxCell>
        <mxCell id="_0QAA5KOcGjNJ8o1P5Sd-18" value="&lt;font style=&quot;font-size: 16px;&quot;&gt;Download project-&lt;/font&gt;&lt;font style=&quot;background-color: transparent; color: light-dark(rgb(0, 0, 0), rgb(255, 255, 255)); font-size: 16px;&quot;&gt;specific&amp;nbsp;&lt;/font&gt;&lt;div&gt;&lt;span style=&quot;background-color: transparent; color: light-dark(rgb(0, 0, 0), rgb(255, 255, 255)); font-size: 16px;&quot;&gt;settings to the mobile&lt;/span&gt;&lt;/div&gt;" style="text;html=1;align=center;verticalAlign=middle;resizable=0;points=[];autosize=1;strokeColor=none;fillColor=none;" parent="1" vertex="1">
          <mxGeometry x="149" y="370" width="210" height="50" as="geometry" />
        </mxCell>
        <mxCell id="_0QAA5KOcGjNJ8o1P5Sd-23" value="&lt;font style=&quot;font-size: 16px;&quot;&gt;Project A&lt;/font&gt;" style="text;html=1;align=center;verticalAlign=middle;resizable=0;points=[];autosize=1;strokeColor=none;fillColor=none;" parent="1" vertex="1">
          <mxGeometry x="187" y="450" width="90" height="30" as="geometry" />
        </mxCell>
        <mxCell id="_0QAA5KOcGjNJ8o1P5Sd-27" value="" style="endArrow=classic;startArrow=classic;html=1;rounded=0;" parent="1" target="_0QAA5KOcGjNJ8o1P5Sd-2" edge="1">
          <mxGeometry width="50" height="50" relative="1" as="geometry">
            <mxPoint x="550" y="450" as="sourcePoint" />
            <mxPoint x="601" y="420" as="targetPoint" />
          </mxGeometry>
        </mxCell>
        <mxCell id="_0QAA5KOcGjNJ8o1P5Sd-28" value="&lt;span style=&quot;font-size: 16px;&quot;&gt;Download project-specific&amp;nbsp;&lt;/span&gt;&lt;div&gt;&lt;span style=&quot;font-size: 16px;&quot;&gt;settings to the tablet&amp;nbsp;&lt;/span&gt;&lt;/div&gt;&lt;div&gt;&lt;span style=&quot;font-size: 16px;&quot;&gt;(when internet is available)&lt;/span&gt;&lt;/div&gt;" style="text;html=1;align=center;verticalAlign=middle;resizable=0;points=[];autosize=1;strokeColor=none;fillColor=none;" parent="1" vertex="1">
          <mxGeometry x="516" y="350" width="210" height="70" as="geometry" />
        </mxCell>
        <mxCell id="_0QAA5KOcGjNJ8o1P5Sd-29" value="" style="html=1;verticalLabelPosition=bottom;align=center;labelBackgroundColor=#ffffff;verticalAlign=top;strokeWidth=2;strokeColor=#0080F0;shadow=0;dashed=0;shape=mxgraph.ios7.icons.bluetooth;pointerEvents=1" parent="1" vertex="1">
          <mxGeometry x="277" y="571" width="15" height="28.799999999999997" as="geometry" />
        </mxCell>
        <mxCell id="_0QAA5KOcGjNJ8o1P5Sd-30" value="&lt;font style=&quot;font-size: 16px;&quot;&gt;&lt;span style=&quot;background-color: transparent; color: light-dark(rgb(0, 0, 0), rgb(255, 255, 255)); text-align: left;&quot;&gt;Send data&lt;/span&gt;&lt;span style=&quot;background-color: transparent; color: light-dark(rgb(0, 0, 0), rgb(255, 255, 255)); text-align: left;&quot;&gt;&amp;nbsp;to door lock&lt;/span&gt;&lt;/font&gt;&lt;div&gt;&lt;span style=&quot;background-color: transparent; color: light-dark(rgb(0, 0, 0), rgb(255, 255, 255)); text-align: left;&quot;&gt;&lt;font style=&quot;font-size: 16px;&quot;&gt;over Bluetooth&lt;/font&gt;&lt;/span&gt;&lt;div&gt;&lt;p&gt;&lt;/p&gt;&lt;/div&gt;&lt;/div&gt;" style="text;html=1;align=center;verticalAlign=middle;resizable=0;points=[];autosize=1;strokeColor=none;fillColor=none;" parent="1" vertex="1">
          <mxGeometry x="90" y="555.4" width="180" height="60" as="geometry" />
        </mxCell>
        <mxCell id="_0QAA5KOcGjNJ8o1P5Sd-32" value="" style="html=1;verticalLabelPosition=bottom;align=center;labelBackgroundColor=#ffffff;verticalAlign=top;strokeWidth=2;strokeColor=#0080F0;shadow=0;dashed=0;shape=mxgraph.ios7.icons.smartphone;" parent="1" vertex="1">
          <mxGeometry x="550" y="602.39" width="38" height="50" as="geometry" />
        </mxCell>
        <mxCell id="_0QAA5KOcGjNJ8o1P5Sd-33" value="" style="sketch=0;html=1;aspect=fixed;strokeColor=none;shadow=0;fillColor=#3B8DF1;verticalAlign=top;labelPosition=center;verticalLabelPosition=bottom;shape=mxgraph.gcp2.lock" parent="1" vertex="1">
          <mxGeometry x="546" y="742.9" width="46" height="58.97" as="geometry" />
        </mxCell>
        <mxCell id="_0QAA5KOcGjNJ8o1P5Sd-34" value="" style="endArrow=classic;startArrow=classic;html=1;rounded=0;" parent="1" edge="1">
          <mxGeometry width="50" height="50" relative="1" as="geometry">
            <mxPoint x="568.5" y="732.39" as="sourcePoint" />
            <mxPoint x="568.5" y="662.39" as="targetPoint" />
          </mxGeometry>
        </mxCell>
        <mxCell id="_0QAA5KOcGjNJ8o1P5Sd-35" value="&lt;font style=&quot;font-size: 16px;&quot;&gt;Project B&lt;/font&gt;" style="text;html=1;align=center;verticalAlign=middle;resizable=0;points=[];autosize=1;strokeColor=none;fillColor=none;" parent="1" vertex="1">
          <mxGeometry x="487" y="563.01" width="90" height="30" as="geometry" />
        </mxCell>
        <mxCell id="_0QAA5KOcGjNJ8o1P5Sd-36" value="" style="html=1;verticalLabelPosition=bottom;align=center;labelBackgroundColor=#ffffff;verticalAlign=top;strokeWidth=2;strokeColor=#0080F0;shadow=0;dashed=0;shape=mxgraph.ios7.icons.bluetooth;pointerEvents=1" parent="1" vertex="1">
          <mxGeometry x="577" y="683.39" width="15" height="28.799999999999997" as="geometry" />
        </mxCell>
        <mxCell id="_0QAA5KOcGjNJ8o1P5Sd-37" value="&lt;font style=&quot;font-size: 16px;&quot;&gt;&lt;span style=&quot;background-color: transparent; color: light-dark(rgb(0, 0, 0), rgb(255, 255, 255)); text-align: left;&quot;&gt;Send data&lt;/span&gt;&lt;span style=&quot;background-color: transparent; color: light-dark(rgb(0, 0, 0), rgb(255, 255, 255)); text-align: left;&quot;&gt;&amp;nbsp;to door lock&lt;/span&gt;&lt;/font&gt;&lt;div&gt;&lt;span style=&quot;background-color: transparent; color: light-dark(rgb(0, 0, 0), rgb(255, 255, 255)); text-align: left;&quot;&gt;&lt;font style=&quot;font-size: 16px;&quot;&gt;over Bluetooth&lt;/font&gt;&lt;/span&gt;&lt;/div&gt;&lt;div&gt;&lt;span style=&quot;background-color: transparent; color: light-dark(rgb(0, 0, 0), rgb(255, 255, 255)); text-align: left;&quot;&gt;&lt;font style=&quot;font-size: 16px;&quot;&gt;&amp;nbsp;(Allow offline programming)&lt;/font&gt;&lt;/span&gt;&lt;div&gt;&lt;p&gt;&lt;/p&gt;&lt;/div&gt;&lt;/div&gt;" style="text;html=1;align=center;verticalAlign=middle;resizable=0;points=[];autosize=1;strokeColor=none;fillColor=none;" parent="1" vertex="1">
          <mxGeometry x="607" y="657.79" width="220" height="80" as="geometry" />
        </mxCell>
        <mxCell id="OR8md_O9xc7MBORGEWN8-6" value="" style="whiteSpace=wrap;html=1;shape=mxgraph.basic.cloud_rect" parent="1" vertex="1">
          <mxGeometry x="184" y="1050" width="296" height="520" as="geometry" />
        </mxCell>
        <mxCell id="OR8md_O9xc7MBORGEWN8-7" value="" style="html=1;verticalLabelPosition=bottom;align=center;labelBackgroundColor=#ffffff;verticalAlign=top;strokeWidth=2;strokeColor=#0080F0;shadow=0;dashed=0;shape=mxgraph.ios7.icons.smartphone;" parent="1" vertex="1">
          <mxGeometry x="250" y="1350.4" width="38" height="50" as="geometry" />
        </mxCell>
        <mxCell id="OR8md_O9xc7MBORGEWN8-8" value="" style="sketch=0;html=1;aspect=fixed;strokeColor=none;shadow=0;fillColor=#3B8DF1;verticalAlign=top;labelPosition=center;verticalLabelPosition=bottom;shape=mxgraph.gcp2.lock" parent="1" vertex="1">
          <mxGeometry x="246" y="1479.48" width="46" height="58.97" as="geometry" />
        </mxCell>
        <mxCell id="OR8md_O9xc7MBORGEWN8-9" value="" style="endArrow=classic;startArrow=classic;html=1;rounded=0;" parent="1" edge="1">
          <mxGeometry width="50" height="50" relative="1" as="geometry">
            <mxPoint x="268.5" y="1470.4" as="sourcePoint" />
            <mxPoint x="268.5" y="1400.4" as="targetPoint" />
          </mxGeometry>
        </mxCell>
        <mxCell id="OR8md_O9xc7MBORGEWN8-10" value="" style="endArrow=classic;startArrow=classic;html=1;rounded=0;" parent="1" source="OR8md_O9xc7MBORGEWN8-25" edge="1">
          <mxGeometry width="50" height="50" relative="1" as="geometry">
            <mxPoint x="230.0019999999999" y="1219" as="sourcePoint" />
            <mxPoint x="270" y="1169" as="targetPoint" />
          </mxGeometry>
        </mxCell>
        <mxCell id="OR8md_O9xc7MBORGEWN8-12" value="&lt;font style=&quot;font-size: 16px;&quot;&gt;Project A&lt;/font&gt;" style="text;html=1;align=center;verticalAlign=middle;resizable=0;points=[];autosize=1;strokeColor=none;fillColor=none;" parent="1" vertex="1">
          <mxGeometry x="187" y="1060" width="90" height="30" as="geometry" />
        </mxCell>
        <mxCell id="OR8md_O9xc7MBORGEWN8-15" value="" style="html=1;verticalLabelPosition=bottom;align=center;labelBackgroundColor=#ffffff;verticalAlign=top;strokeWidth=2;strokeColor=#0080F0;shadow=0;dashed=0;shape=mxgraph.ios7.icons.bluetooth;pointerEvents=1" parent="1" vertex="1">
          <mxGeometry x="277" y="1420.51" width="15" height="28.799999999999997" as="geometry" />
        </mxCell>
        <mxCell id="OR8md_O9xc7MBORGEWN8-16" value="&lt;font style=&quot;font-size: 16px;&quot;&gt;&lt;span style=&quot;background-color: transparent; color: light-dark(rgb(0, 0, 0), rgb(255, 255, 255)); text-align: left;&quot;&gt;Send data&lt;/span&gt;&lt;span style=&quot;background-color: transparent; color: light-dark(rgb(0, 0, 0), rgb(255, 255, 255)); text-align: left;&quot;&gt;&amp;nbsp;to door lock&lt;/span&gt;&lt;/font&gt;&lt;div&gt;&lt;span style=&quot;background-color: transparent; color: light-dark(rgb(0, 0, 0), rgb(255, 255, 255)); text-align: left;&quot;&gt;&lt;font style=&quot;font-size: 16px;&quot;&gt;over Bluetooth&lt;/font&gt;&lt;/span&gt;&lt;div&gt;&lt;p&gt;&lt;/p&gt;&lt;/div&gt;&lt;/div&gt;" style="text;html=1;align=center;verticalAlign=middle;resizable=0;points=[];autosize=1;strokeColor=none;fillColor=none;rotation=0;" parent="1" vertex="1">
          <mxGeometry x="288" y="1404.91" width="180" height="60" as="geometry" />
        </mxCell>
        <mxCell id="OR8md_O9xc7MBORGEWN8-3" value="&lt;span style=&quot;font-size: 16px; background-color: transparent; color: light-dark(rgb(0, 0, 0), rgb(255, 255, 255));&quot;&gt;Job Site Manager&lt;/span&gt;" style="rounded=1;whiteSpace=wrap;html=1;" parent="1" vertex="1">
          <mxGeometry x="214" y="1100" width="204" height="60" as="geometry" />
        </mxCell>
        <mxCell id="OR8md_O9xc7MBORGEWN8-25" value="" style="pointerEvents=1;shadow=0;dashed=0;html=1;strokeColor=none;fillColor=#4495D1;labelPosition=center;verticalLabelPosition=bottom;verticalAlign=top;align=center;outlineConnect=0;shape=mxgraph.veeam.laptop;" parent="1" vertex="1">
          <mxGeometry x="232" y="1230" width="74" height="50" as="geometry" />
        </mxCell>
        <mxCell id="OR8md_O9xc7MBORGEWN8-5" value="&lt;font style=&quot;font-size: 16px;&quot;&gt;Configure project&lt;/font&gt;&lt;div&gt;&lt;font style=&quot;font-size: 16px;&quot;&gt;settings locally&lt;/font&gt;&lt;/div&gt;" style="text;html=1;align=center;verticalAlign=middle;resizable=0;points=[];autosize=1;strokeColor=none;fillColor=none;" parent="1" vertex="1">
          <mxGeometry x="270" y="1180" width="150" height="50" as="geometry" />
        </mxCell>
        <mxCell id="OR8md_O9xc7MBORGEWN8-26" value="" style="endArrow=classic;startArrow=classic;html=1;rounded=0;" parent="1" edge="1">
          <mxGeometry width="50" height="50" relative="1" as="geometry">
            <mxPoint x="269" y="1341" as="sourcePoint" />
            <mxPoint x="270" y="1280" as="targetPoint" />
          </mxGeometry>
        </mxCell>
        <mxCell id="OR8md_O9xc7MBORGEWN8-27" value="&lt;font style=&quot;font-size: 16px;&quot;&gt;&lt;span style=&quot;background-color: transparent; color: light-dark(rgb(0, 0, 0), rgb(255, 255, 255)); text-align: left;&quot;&gt;Sync data&lt;/span&gt;&lt;span style=&quot;background-color: transparent; color: light-dark(rgb(0, 0, 0), rgb(255, 255, 255)); text-align: left;&quot;&gt;&amp;nbsp;to&amp;nbsp;&lt;/span&gt;&lt;/font&gt;&lt;div&gt;&lt;font style=&quot;font-size: 16px;&quot;&gt;&lt;span style=&quot;background-color: transparent; color: light-dark(rgb(0, 0, 0), rgb(255, 255, 255)); text-align: left;&quot;&gt;tablet&amp;nbsp;&lt;/span&gt;&lt;/font&gt;&lt;span style=&quot;font-size: 16px; background-color: transparent; color: light-dark(rgb(0, 0, 0), rgb(255, 255, 255)); text-align: left;&quot;&gt;over Wi-Fi&lt;/span&gt;&lt;/div&gt;" style="text;html=1;align=center;verticalAlign=middle;resizable=0;points=[];autosize=1;strokeColor=none;fillColor=none;" parent="1" vertex="1">
          <mxGeometry x="312" y="1290.5" width="140" height="50" as="geometry" />
        </mxCell>
        <mxCell id="OR8md_O9xc7MBORGEWN8-28" value="" style="html=1;verticalLabelPosition=bottom;align=center;labelBackgroundColor=#ffffff;verticalAlign=top;strokeWidth=2;strokeColor=#0080F0;shadow=0;dashed=0;shape=mxgraph.ios7.icons.wifi;pointerEvents=1" parent="1" vertex="1">
          <mxGeometry x="282.3" y="1305" width="29.7" height="21" as="geometry" />
        </mxCell>
        <mxCell id="knbwXie_oS5DzmKqeoCG-1" value="" style="html=1;verticalLabelPosition=bottom;align=center;labelBackgroundColor=#ffffff;verticalAlign=top;strokeWidth=2;strokeColor=#0080F0;shadow=0;dashed=0;shape=mxgraph.ios7.icons.smartphone;" vertex="1" parent="1">
          <mxGeometry x="552" y="430" width="38" height="50" as="geometry" />
        </mxCell>
        <mxCell id="knbwXie_oS5DzmKqeoCG-2" value="" style="endArrow=none;dashed=1;html=1;dashPattern=1 3;strokeWidth=2;rounded=0;exitX=0.522;exitY=0;exitDx=0;exitDy=0;exitPerimeter=0;" edge="1" parent="1" source="_0QAA5KOcGjNJ8o1P5Sd-32">
          <mxGeometry width="50" height="50" relative="1" as="geometry">
            <mxPoint x="520" y="530" as="sourcePoint" />
            <mxPoint x="570" y="480" as="targetPoint" />
          </mxGeometry>
        </mxCell>
        <mxCell id="knbwXie_oS5DzmKqeoCG-3" value="" style="html=1;strokeWidth=1;shadow=0;dashed=0;shape=mxgraph.ios7.misc.wifi;fillColor=#007AFF;strokeColor=none;buttonText=;strokeColor2=#222222;fontColor=#222222;fontSize=8;verticalLabelPosition=bottom;verticalAlign=top;align=center;sketch=0;" vertex="1" parent="1">
          <mxGeometry x="490" y="388" width="28" height="32" as="geometry" />
        </mxCell>
        <mxCell id="knbwXie_oS5DzmKqeoCG-4" value="" style="html=1;strokeWidth=1;shadow=0;dashed=0;shape=mxgraph.ios7.misc.wifi;fillColor=#007AFF;strokeColor=none;buttonText=;strokeColor2=#222222;fontColor=#222222;fontSize=8;verticalLabelPosition=bottom;verticalAlign=top;align=center;sketch=0;" vertex="1" parent="1">
          <mxGeometry x="318" y="420" width="28" height="32" as="geometry" />
        </mxCell>
        <mxCell id="knbwXie_oS5DzmKqeoCG-5" value="" style="shape=image;verticalLabelPosition=bottom;labelBackgroundColor=default;verticalAlign=top;aspect=fixed;imageAspect=0;image=data:image/png,iVBORw0KGgoAAAANSUhEUgAAAQQAAAD+CAYAAADcdnvBAAABUmlDQ1BJQ0MgUHJvZmlsZQAAGJV1kDFIQgEURY9lCSLY0NDQ4CDVYBFaUUukDhE0mKVU2/drGqh9vkY0tRQ0Ck1BQ9hSW0u1BjkGQkVDRM3NkUvJ732t1KIHl3u4XB6PB20ompa2AplsXg9PB1yLS8su2wt2bHQywZii5jR/KDQrFb69dSr3WEy/HTR3lc+OJ69vqiel/qst5/NU9G+/ZezxRE4V/xANqJqeB4tbOLSR10wW0a3LUcK7JifrfGByrM6ntc5COChcEu5SU0pc+E7YE2vKk02cSa+rXzeY1zsS2ci86aJeooTw4SXC3D+9kVovyBoam+iskiRFHhd+STTSJIRnyKIyhEfYy7Bo1Pzv7781srUijL9Be6GRxfbhYgd6HhqZ+xCc23Be1hRd+fmmpWLNrfi8dXYEoOPJMF77wLYH1YJhvBcNo3ok+x/hMvsJJ2ZkeCCQFCMAAACKZVhJZk1NACoAAAAIAAQBGgAFAAAAAQAAAD4BGwAFAAAAAQAAAEYBKAADAAAAAQACAACHaQAEAAAAAQAAAE4AAAAAAAAAkAAAAAEAAACQAAAAAQADkoYABwAAABIAAAB4oAIABAAAAAEAAAEEoAMABAAAAAEAAAD+AAAAAEFTQ0lJAAAAU2NyZWVuc2hvdCA+z10AAAAJcEhZcwAAFiUAABYlAUlSJPAAAAHWaVRYdFhNTDpjb20uYWRvYmUueG1wAAAAAAA8eDp4bXBtZXRhIHhtbG5zOng9ImFkb2JlOm5zOm1ldGEvIiB4OnhtcHRrPSJYTVAgQ29yZSA2LjAuMCI+CiAgIDxyZGY6UkRGIHhtbG5zOnJkZj0iaHR0cDovL3d3dy53My5vcmcvMTk5OS8wMi8yMi1yZGYtc3ludGF4LW5zIyI+CiAgICAgIDxyZGY6RGVzY3JpcHRpb24gcmRmOmFib3V0PSIiCiAgICAgICAgICAgIHhtbG5zOmV4aWY9Imh0dHA6Ly9ucy5hZG9iZS5jb20vZXhpZi8xLjAvIj4KICAgICAgICAgPGV4aWY6UGl4ZWxZRGltZW5zaW9uPjI1NDwvZXhpZjpQaXhlbFlEaW1lbnNpb24+CiAgICAgICAgIDxleGlmOlBpeGVsWERpbWVuc2lvbj4yNjA8L2V4aWY6UGl4ZWxYRGltZW5zaW9uPgogICAgICAgICA8ZXhpZjpVc2VyQ29tbWVudD5TY3JlZW5zaG90PC9leGlmOlVzZXJDb21tZW50PgogICAgICA8L3JkZjpEZXNjcmlwdGlvbj4KICAgPC9yZGY6UkRGPgo8L3g6eG1wbWV0YT4KDz+YsQAAABxpRE9UAAAAAgAAAAAAAAB/AAAAKAAAAH8AAAB/AACwYRPTzt8AAEAASURBVHgBnL0JsGVZVp6373svX2Zl1txV1d2qrp5oRnVDMzQIa0AYIxDGQVjIchgbBxY2DklWSJjBEqCwQ2BDy8KWGdzMtIXkYFBYmEDISG4jIyTAFkIWwsgQAtNDdXd1zVVZObz37vP//Wv9++77MglFeGfes9de61//Wns4555z7rn3bT75+87PzzdjjPMxqKhLqIom9s2iBza2eh10jWNzSLK4VftAPtTRwQ1NyoFsWykaYhs6Y8SfvIwPqOvkE6zV5KOywVfyOdyNR56BEGkvOmB0qeElx1/19lA2AQjhvOS8leC2dDhOzqmUbomPH2NS/hDp1blCQQGOGj/njJKiNvzYKMFVq9rIF32Dc22jsGrMsUHXekgTM37m7wZ5k0P8wXuOBQJyMSnj0cuHEBRTLRzTTzaPi8YD/uBWDvTM0YwDT/u5xoRASUDkGCPO9rlibmrepHPfOzfc8FugVpVeflg6ProZTuoD5hTHlMjU7kDhyRU/rxuwjbOu257zjuP8lrVlXHNkHrLPHcq4DVbyiiVM5t96bbIuN5/0PToeyHFNLvKul2TXgyM2CN0vs6mhGp+K2nZsKqht0saTe7YqQVTxAIZHqiz+vcSBJo7EDoF2+EAiBToglCnHJ3WZbc+YoaJP8FDiS+3SE+l+ohDOE1TiDi+9c+86+aYfPgB2UI8zvB2Ttu3hwIStk3Eu2jBWWXSYKQ2pnPAvtfUWW7eHkwFcdGkkJeeHUcUyQrepGCvHUcM+IWuYc0eWPTiEpiid7C7WazdT5/bsGqvVf88WX9XEZ1jXEiyBEp8avW1WdqPlrDt4rNJmznNkOadvgJyfdLwJ2QfKxsTXfGD1b8O7ZIBdUzkn/CS7PxLij81Qb7oBSMU29O0LEF2KZWzxxaC298eWjZV98/bv1wGhvSfA1nIyedsdE6eVJNjobCwlbkuzEuhEQGTwjWHTcewEbiVAzowvuOQOn0sCBoNSugysm2ssO/UGHPD2tax2xmXlgBOacqh6DYnJdm8qvncqgTwxqs1LDZjSWMtTuVNPlXDJcWLZcbxXSiPgOvnEcZAQLHFsaj7MgZoXfe9ptmkTCoCZv2BdCwAHxT4h7Ppin2eek7hjpM1OZiLpo4N8iZ94qCnub+e9l6NsKzbjYh0b+HmxzlRb1XrUFhEoa15qxp3apXHxi/qudWI0+A6uxcmQBOkYMV9oVl8bu45d3O2XYGqYOwcEk8kYsHFSetAE3luAySBgcCsm+uDCgz6LFjx2bUh2zwUdttZbpk2RzVjxeHGhEiB5hq+hu8XRAeZOCUAFbkzmgmdpS5z9Nn8bHQ95WThg42vZpHD36WXHnyCBL6oqEbyLizo7jNc3AVQSx0025CGA+xbStGWyio2w5pF4MRYUFPqZxdMubdjnIabz0GYduwLv6DPe6N0X8DTsXHX66DGOjXop7oPac6302IcGqHknsPOND/kKkByCT2zaRWBpt+lBMLe0F8dkrgEZ4PcZpurgIUImzsX42FxiU8NjqUlyTTB0IrAYXNfY0JufxlI8lvGT3nwAKe00/eBDDf7tuocwByUO7RQQzRDCxaLyTpFVhL11BHM8yKNX7YYdL8h2bP9JLrjkM50/Ozf3DpLSt4tjlra38sn9A4yk5x1AegZ1no4Db50nqppojaN23OSLQsVN+c2OiZNmJpq8eKGz0IsW2ePXei7RLDaYsVw5i6AoDBSh36lVE4uS01OaXoRKDhtx0obHuYGX7KLa8dCh0Ia+Yk6O5ml73MJ1KAXjaF71w3YTQVZtnxGDkZFLG/CeDOzoMy6NV7VXDJdv8shE1lqQXujJgyec6JC7JIT7LaPxAajOeMK9VY42oce/yTjjWteHx4dYjcvYOj4BVeyPAEdXydttAXydT06SgfHCHd95RR0l8ypDsGDsIIFxzQEoanhy3y45zPh2Ln/oafLy/LRt8ym6ZLBRGwK7k11Djo3ihBqTwTUHuoLMLTwoqYyJpRvxt7r9J05CBnrlAUscd64biYtvZEwEJYZL87kvBsogkhkDHHjAjbWsZps8Lu7PagekySrHC/GldgHTeSTvjC/2Nu2gUoAzdYzUKCgLH7LHsSw7MxyNjasXVC+swE0FhxQO5Y3arfDY0z+V5I7csOkHnOJYatA/yuSdgnSywZsbWOGaDviRZxMkF9ux6YXNr24wrxR0qNYSHozY6E7wIfPYmLA8c7Aiti/B5DDXkiCJk1iOsejNR5uYcEiOf7DW21COcKUp0cnOdgTVFhfwXMP4YFSu9A89Tfro2G1LkMyRIc1nvDYbPmUASJI+siA3GZWDQtwyjtNOQ6Wr3cJpkCsm2FkWljgkyeSYp/3Nj25RNs1+54pmb2ucNl7EbQnNHlCNcFovkPu3gPYmtPVz0STJ5gmZc4a49YY1FltiODZt4WxugfFApLRbNZateWgHGN9WTT/pM4aGJF4PeNzBTx94VWyTMu+ewdqIvhXRx586JbY98gAbZHzrJl425816kc3mrnELbuZAf1hXKk01a4SM6bRBkHWIktKkk7u0Udtu/+ZzANyaNDTtVnmHrOlXf5su+oYEY+T4ti4m1lH6ZixtivwsasMZA+/4C5XHNfZymF3f4XDAz5cMQS1124sZoBQh9SkvE9d4ak8UTuCk8NjTVpl2ZHRStMm8zG3IvCjsIFXX69EDP172kZM+NHIw73Tgu9gV4KLDlMVmuW2G2QFtFfdXulBQ03BOJRoI33zHaz4mBZybcNh514Yn/ZzjgU/zzn6boHPAR/bcOLw48dMXjF6Mf/pgPimykwBwfGJKJn/3zQE6D+n2ciM+uoIan4bf1eG6gIm/XHalCQiFvzFuVE7uX9tQ59LIsfBVPzI+XnNF47HBzYXOs0BM4DDT3hSmA5vLGxRzTDBQAK8FvubN2DoEGwp4yeZB1ssqg8rm3BGlm7LaLq0jffvhn4Z0C03l3TjA2FwimGDHU4RCdIyVK7lQbz5ZlwwGw7YENzkJwdHertio0Jm0s6Cs1wa9j1Jg1MjCyIIxBXoNriecOHaSY+fARx8HUhK/AjUXbfmZFxN++COXWEdJySjRxeAYrbctsdCpeMFLl4Xmtgkw6uVkVBFPbdzRrxMLBP1caJIdt32db3PB7/VFm0LDpKob39XcGbEnP3iRTRcOtfHJ+MCZNhDHJAZ+Ujj3ltNH8JERjZWP9WAxazPfiURaD7MYbXu7GUdM+6IkZlWOnTcXTBRsvDwMATqgGnSY/qhC5doDWE7AMWBDTeHAmfi2l7r8pQBLMRcNwlihTY+12w30WpfJZ9MKMsfZIBmIp2r6SPAbhHRWYnDnUEjVfk1viOWQtGHihCdXygpx/nBJCRZb5vdA8XyfAKfGzBpgD5Y5fEC4CFQ770DxBxJf6juKlOiduIUFIRJ3gkSVXBIGMTsChoEiYBc6NBNX0uaQKvpAgXkgqFHysrKx0VOr2C/cpfI2qnZdLEUXagzGaDMnakHPvgbogA1IbvLNQsUSdfJGER7rmiOT7EWVVU8ysq/jEpzzbH7iXGxbJ6XpEwOlCk3niBOvtksqHulIAcwsjaOixOTc0pZyzdXAu21whkgvYjR1IZeGYzTGxsVW4F0esc+xbz84Eg7MpMCOwh1FqOJ1u6zJ6JMrtdc5dfvC41xVmxOnKRTeqgaCnbsEujWHtR28as8FbZW5NkXk9YBSNueAjjYFwUqJvqnYjWncx+w6FieAIoEnRx7kGVRydnonhVGlq2rAZSdVkukrSWXhdJNqb/FMDgmm0MY1BoSu5sA0ztxtM8gbe05pDr400M3+AOPVgPogUQi4Sbz1+HQK9jc7GOkdv+UsxuDT50wg8LUYJxK/m5p0iaN2q2bsKPBLmdyLEj9Sdz+o1BcvdHRtnH5S+Z0OvYr7rac3KR5r6eObOU//4M98hM829BC0L2I6kTEqwM7fGGDN2elYbc4AVLt9AUd8+pGC/9K0OrrJDUfvjLG5mUaTTR7pc6ljCBvKBEhuXcYs/TUenITphkwOzUEfGlI1toCpMeoVnIk80cVrO1wqng/83VDtm4puSUPdHYckamPVSNJzR8FAkc/UtZMDldU8yXfiOnHgE0ujuXA1pHFpQzY7j1KFwcrozZ1LqlzbJwY46Lyw134CUMFWQYVBlIJXcjbMZNKrdh7dBuOD4wV8JjJ9XHeq9IVUUsxJ8HVMSYx4qNtGgt6BpQtnw6SpblAzBmdgyUttdxsutcFT0kfrAPHCyAs5RW0flJY2onMWzqfRKMBRaWPO+MFHsbHsji1VsMbTR2GnDhf429U2yfQ7Y4df09Z6UsNrYeGZ4aNrPs9NnFUT132Hs3nm5ZFMKdjsC9+Fecm4uX/dn+BnP5rIesnUs0O0m3NefhIPPRsVywitt6KaOxt2AR0Dfsn0z9SS/YhzePGdZwiAKe2QZsjmmYAMnrRC1+Ahq5fuEI7iyICYj2YIGY0eoDmDF1zUnAWq0LlTapuKPCNLkYVlR9rY2FBwaLBVrTdfMI2Ljyd6mUinLSxw/Dypaqw52Sc81M3tBWYHnPU/PGBUzIlwMe+2YYpfuoIqfh0GlQsYShb22s9pk91cTRh9N6e/2wpg+2Lcm0bZHcteklc8usXPPAue3NKR6RcVtmXc5LYbu/azTnrKlGULl+dKBuAGULkhXdfRL5A5NlkPsdlFm+SCPmXyzkQKlzcmcOS1HsAJNGPAq/7OM0GtPw76DAFljhWyXj4Ap28GaENsivf4EvFPTDT4Vge7kg+5w7/3HIKPRIDvUujImjzO6KwmgoTocHcACy0DVDEeAR8K2SI33xqjXUBVESY7E4oM0EXOLAbnsMRtFsfyJHQO7lsbW+XWjN/KxKMTsWFyv/FoPTrs4VqxVjYOF2O1cS29Y+C/OkUOnnaTJ6epkj6+tml8c+NWXvulsU21Z/PiXuJOo8BZwDZ3O9BwxT/5xZ82DwKRf7DrYIXHeDB7imJBZV6aasz2gnV8cDbWmCQXwxJ/8UkeWTd27STnmBKTIj26cLqNWrr4G4eusWm74x13xsh+0CDH69jk5ThrzJC13x3jvfgamgPEondsGddY9SmDlHRkzcmd6KA4upCYBIKbP23pnLBqziSwTR9selHQZXBcw6Ogwa4DnEWcjk6bmZpMgXzanFp8jiVOjrI5wM0OK1DimyZtnEii/WyTbr0/EF2gwH3kV+2+o1DJYqDpXFDC1fbo3NSg55MU49kob8v4SQgfTeL4TA0S2cylDXN3phfvAijZ4URjX1XGZRzt08qcBkfnWPiJy0WG2JJLkkvfAXiccGAe5Gt36cG4SLkV0DYI0VPr5WtzVKteds8T8yH9tAlHMbTxVM6tY7sZfxoq7hc6Gt7YZeZ6UQ8MzoZWf9pV6prvxjBW8DPeLuHHHxkHqkW2otvGGGBtBW0f9x1+2sKHYo+3bb58WsYLH3AZ8zlfosp4QBhc6vpyUydkbqJ2mQnIoFhVCBJZtYmo9XKiMvq0BwxyJ0btQhtBG3cYGZteJIpoO3ow6PViBzcHRtptp4pvrqltXHGNnbmojdnc5Q7Cuhm/BfrthZ34jZsx1c5km1Ntn8rZsXy948no8ZHdj6fCr1cOfPhSzGWh8iOpqTOiNz35tAjFtaApIZKQsXWNQSWLw3nIyepeyYyNFxW+YDuhdczM0X7ht65jOleSad9gzNFqYtrcPoZLJjf7U/OiUm6kh3904XQfmRMDtemYVoRvsYHrkIFYkTWAbUkdz4l3g7ZA55rMjQTkHFAndwdgvtyfcKg9+wFGJWPiBv1QcDhJAn/jVbt/UsPnR6z5Gn77Y8ulgHXeAAZQPsiORQx02FTc75YdU3Z084AA8EzJkAjFnbJgbiH9vxsyQEZGXbxou+042pAAfAz0WmxHgYARLFX7OJYUkxMjRNRLwT2qdJS2O9s4MObvJHJ9ZtwSr2GT0P0XaPILYDlB1XC+OKpEbTmN5qdJYYHnYDl1kIKjQtltSSVbKNnxhAlsJtfQzJ1d4IRLLx9MUSJrcPzMQMdxBSGldeGdccrquLvgraRqf+KFYrHuEr6bsYMkVurQMm2ZersHQL0UN5f4c/2CEUnaSYGakrUy5zL8Zd7fXrAlBXNdsE1H6YmRcYtoexp38TW3Nj77ohbW6wM5dAiRS5xxiOc3SOr43wVj3iaxzHMIwjtgAiV5L6R1h+0EzGunSi4LwrzCBAYEWzpDfXFyGSy/o5pUG5zlk4mKGj2J+t0azmnY+awqD15z7YHlmxjRTy5sXSx2THDOR0rzCtPfAHGutuPX3A7LJp2VnqbLssLnRGEPoDm6ipfjeqymZiesWGRPmYSMITpjtJlxcHeiCF3UXg+Y095cRkG0lFDs8bbd0CXmbMefeJInx+qHvg3B3LEuFjuuNCm7Oap2KVsWyHmkSVuK+Aab+Z7JYWgQ/pk7VNO/9xWgsYdnLyaNjmus5KamuSuNcwxpU9MBxmblnv7o8QMTphZQ75VVAUbtzaesv5gkBX2ayTa5JwaH5S1oXQBe9/J1XBE4oQ7AaZVPa+AloEFtVBvdzLzVafuULDuVbEDZOLb0xYVynyIHjRhMi7N8csRNjCKVTXn7iS47aSOnnI4ZmzxVR4TX6bXgvNpuGvQpcaKNrJL+eWKFBd4mC35X60VmfTBqTFv6ZMbazAWq5jwVxSQ/X7N3kCyo8uot3MRR7XGUmrz2Og1P48wpAGkyFgWuKnnAAx88nrPIDVfTdlVVwEvim5XUbDLnpej4OBIYEPJSsgZjIj649U3OLg1w1bJPzWU0B274lXvlz5hjV2zzypaxdN1Y1o9zj/OiB9dTK60KGEpqjF3W3CwLM/2l4MwTMh/MF6dgPXZqpD8LZL4BZAx9U3F2WIE8efIw2bLYiImOl2Vh4yeVO5LBcLt14Ft0bR86HYPqXEdHtZorEbvWWHXc0jiszzCyeNFnkhLDA7GM/lwcgJdg1jcuCwpIivMDr5JfLHJ/GCcZ21RhaZPrws/4+KBEHb3qjFsmDC7GeFkTNZnSxzXugllnfIwoVYJxHrLRvlj28hMAitq0f0jQt+x+BIv+QnEai9+KTy7TBbCS986l2gfh7nhy87gIl/lh4eeNJrk6N/llDHsa5+AQJuOK7IJAnim0GcgA0t/F7hwaAjTFVPFH2QmYShv3W+qEs14Nj02TYMubBDkkFrJTUUCPU+Op0MORn0tL/2cfGuN47cA44IifRZNLhj/fZZgOTYBvZdGJCcAA5M69E14wmTRzs1FxMOomj20mAkhK47QxTJt0ym0wXZrWuNiiS66OIXxqu66NlqkoezwLLvpCaSvbNN9hLNTkbGAWQRZHuIxrDGPjd63mtM8qt5Phidu+zgmd2jbFXqrZNygWl2qgFN7u+C++mNaCL8XYrq3IJoYEkT5z6BjSh8Mk8Wt83N0PNRaauSPZBeBaVuAFfdaY1cLRjpwdYuYiO7p5RtjQ4INjB80b5goJzjGXnCJ6LHSAwH+dX/yMQd+EpGlZAjXHFYo50gcrdnO2ckae+EloGm9CMzEd3ND5AymNctKSp1PzGNxyEm2eAuto4cUtjH0xSnBQRMnoOahMex9FZyewyS8Da/72Y3TmpKKjDcBkO05z6Ta+T5/a9yJ/fOQ9Jwga6ELpOo2FZ/qQO0fUdpx9p92dnHHDIxM490UVeXCAzZiYgwYlYyMRF5f2dZKyu//yZyzmypGYMUxncMtCBmo9ggwXKONS40IM5WPMgjU/PBhcSXAyqiT6Xc6B2i4Ozqgg95hofpxz59DVLhl4279pfekz4xbt3BoqH9ziN43N1XQV18CCttnwPX81PLdL/ycnYURIP2c8O5d+zrF0VgubtUse6NIXY5vPhgkQJmtBDh4H+JoLDqAUjymKLnsYgbyusMVhdZZ6NiX40WUIKsvyycJMjPDsPGFXiUHAlTS2SRsBl5bDnaOyF5IGgFMidhIek2cNUXAJhXNloUYhW/LPQQCfFPqSAfIOLF/jBfBkEFMY6IjHHEw+yZT0jRq7b4LS6JLxyhiuCW9k3KqT8GOfeUvh+JOkba03LvyqPT7a8COkMyGTFg+iT/kYG/yAEU8i/Zp8rXP6bcSWMbK+/Yk5+yYSTks9VsKbE67mwA/ZB4OW0fHKmAL1PRzVJEY7eSI6BxG7RrEWEVmPH/IkLh7fK1Eg1BTHKrHmrHX40o+MjeckbScku3LgfhI246SHN5c10NLX5HHXfHG3E4Kw4cMZXlVe+9V0vp4HxfaYopfPeonQ6UlZTsZDRLPzyXgaEp3stJmzFNp7pRX1XQZZmteYCUZJg1fkrueAymaVNtSUwCNTz8Gh0YUBBRy/OXOo0csQrrRxtb4HmDZltePj0tyeuFatA+f40ncas3ZOi/IO7iQVX+J0roTBNYkv0D1+65cYuFCCp2YCqWdZjI6ndvoW0ySQU3TOv1cDMoVxIKH85qOb2rAAEzQY8LFX59BIJyV5WNamxelvQ/pIg3gQISJTa+M+rDgbis9zlLlGv/Qjl69zHsNFgC4X46Fe+wW1u6z4TkEc1LN0LrTTX6uiF9j66dD9StukpUNFkwNBDpw2w6Vimc1S1qZhUjh/NWZb+OSW/rAvzXFtPvCOISG8U9eKOkOAsMH4Iu8paKfYqIaZF+JuT73a4bFJm0xE9FBmQSGvk+c2Or16DaCaZU6CjPByRkEcXsndcWirrHorZHQ8/KXIgNqWTRNQ2d+bPrJL7mbQCTvbCDPPBocrtTHahCt6aibV73yLHTWBPNklWoW/fZvA/rbUJvy01r42fObuMQm4SebO20Hin76ZA1v7MR8sTJNSS7839+hShM0acJ86ZswOKV36ix5Ih3JjdQlX/KmJjT8l2NXfBgcq3LSBl4M5Fw7jIRLQWGQWae+E2C9yRIF+b4wB40+xsWvaDOKy+O/gBEOJX7Vm8KTVqc4wcQnc4RvkA4JlbRywyTOAdsImffvUIJGoFOiiB0tnfW3VMrp89AW1F4oE9zOO1Cq2S04shPkLsNI7J+xyxsUTrRou86qmZKEiw+nSgv2k8KKdxuZDDxgQMVT7SK4a/gmXkMua+aOYwtg+QUWD0irZ9X9yRPbikJ6yjhPtYCLn4zC/w7Qdm2MkQTmFB38XEkBPo2XEyY+g/voU1aA2MrAhUZ01kR0sO8r0k6/HXrXDdHtd2P7quAjikxDOpfNwrvE1kfKgrT7OmGqny0D8hiDB8yoexiodXE/XbYeu7Q6pDX2bNlwhVXEVu9rgwZFH4oMD7zMWA9SmphAHIEUY/JIPqobXeKHoQgxzyF8uLqG8Y3wAKIa5iEGTWjrHU9t8sLTd89S5GStnY/2XmwCSAHUKrF1M1kTzusfRFx/w6AiikgmP2nTEgIfGMkjg42q1Gk4ObHcqHczIpaP4ztyFp6OkkAmGl3DxQ0RG7w0xkLsE77obVdXPtYF1DAXJxBIri9V9wwFcVYUHo7b9W09FexqQVeynjefLnREuzgHAJ539G2NnbRjDqLDzWod7j0pAzxVKiglVB0QM6YiFLeY1RrDBBROf5LJQmt9jRUwVbGzwZTwp5uv5x+D+GlB2zzEizit5Y1d7Yk0O/ITzuMo3FKgpwYfXfmWyH3hsxlHTTG7EbywqSvAGSsmYX+xT8o2vY2bwzLKLM3dwgcGv+YanDLI1hnjQsQ8jk5tF7DRor3+XgQSMsgnrhfaiCpmhd8FlAYObCYAjIwoy5S6+d9UVen/bvnsUiw6w87DQrrIbosSo1wI2C51xMC6AvUaUVc9xCyaLuGEZbMZiJQ08NTZPZur2d4UzwF1VjVZkQZgrOAfcTbwd2mZZ9oYUtWwOcxc/6zuizcKGijbx027YniL3Jrw4hcUHvOsWkCnhcTugNmQsDdQmO6Rhe45BqG6O7NSGrcFapuIVGrvFd6Gbrm2b7QUDSebEpCwsSgfAFTn7CU3rmtMN5HV/SaAG3zHmJugQHScxbIoO/3DJMPOUen7bMXbH2mt00krMA9qkmRg3iSZhunViVrQtO407QRIOxEa8caSOr0TGIk1M88Ai2TwXj7LS44BPBmsdcMy2L/G8QMGXCUQVkeS0MkmEF4B33I4fziz2ZqhE1Egu6Nd8zKeNuWSDLvPvfAyYNLvxFW76wpn+tB4Or7/2V7MdLM13jOSVvs/c2i/di37OYdFkWGrs5GMebXKZtYaFchawF3KGbOqS0HToMZB+vrMqOeevznrchV0o9+cHnuYkjz36NS5GSogCLu1+f4HJ7k8BqOPWwmy3LxU6lzbOcZXSOUm/5pbxCJdrbbxeqOPXTq7YpDQAldfWRR9wwWATsD5lUCNkdqYtARkH/S9Zg8+pcRawO9Q6Y7XxoulJwh1HdmSpXNbOtMrc+BMnxXxqrLrVtuq9MDCSW8fOwYt4Hg3VmYDqTLUZKIKYg5q2NvDzIu9wSaz+yc6ip1/Bx0Y7vrH5lFwN26gBNM6Yas6AvvyYA1Z+mVAunTB5TCU7/+ba+zhUtuzA7l/HJAniO8eWCQ+Pmi5ZiFb2MwNx91gIlXY5aItzJ7M3Nphks0lOwPDNfQ7nIiWYvXECE6wc6Dcl+GpUe09ngzbyYe49jMhShYMGXxdHR3EcMBIyNiitj32t4+iJgEEFsEpMyPaHB+5uow+xx7ltAIjPOOW+lJ0UI/72FQ4/z4NsuWx1LAOKfsaQjti82DgmMqWdpg2++YtJBdltjerg+KrtnQsEtguDkYTWOovMOnzauJdU06maJQMA3D7TUqHXGDGFvnq++GFQyWSvfBd93BZ5u7jPK9482jivCw33VY4+q1AjY+WdEp92ci1cYmBnKI0XZr4D4hNQ+9JETC3xrsVcGXwQckh8Uy4E4TNR6zucg60HAOuF8VgWbXFHVp3+7QapjM5Jvok3Dwgyu4QXjECO0bocaIxLciFCufg4X7UJ1JXd9jbwtiLjEnv6ezd/2zr+5J5CGMQtnfsQVWOSOmpUKZ7nZee2PrzNFSyONi39o40SfsaN+OtZGrn4zUt11lTmw7x2tLR7dJlm9KkNIZAUKwEJ+I6q9MZSo+xisf2wZ2fxIKOXDozfSVTT3isyekGgXGWa7b86zRgrCQFWYtqUDLzEGUOy82+8XRvvynssDgD1opI8/aXzmRN67LK5lpi+2w2cXo7V/ivW3L0j5wzAMcVjW3NnwaHGrv9JyyqrHbCa0y7BczkV5QdfSvKze8Zq4co4OT85zTFYOMOx0Ba9FO6CNq6lNXUD8WOos3hxMk52bG6Dbbk0S//bZp8Y10Z8V77GxZTBpE1xf1XbLq7g0rbCyMUmnM92Wk/lcafWK+ODfsZBViM4DMGCc9uK8req8bZnE0K1gWesJnfbvT5b9g379t/7LsM8/RAT2HXR+6YQi1UGT1zXBEXtfaYDJAmwPlKVm7YqcjBvtWaMaYNMZQ4aucDbfjb2Qk2n8m5jGAlJ8AJSTXOW6FFggztG2u5E6TyhecS24DswuaBrDiiQ4XJ/savRXfHYJCf8poyDFShVaFOkc/8lOkap6uCCXbjZP7DoVELl2FJ6fOgThWTAAu5+grevNtQeDwn0oRQ7u7nE4bzgEYRCLBd8KKmRZcNsn8aZ2pv2lRw7EPNhRy8F4iwGFKf13ca+iHu+6EMCt9vouoTfsWgA6PGp5NWWnuHzuKim+KAl3F7/8dXLQ93E2H3wzHUA+h5HeDI9dtUm6weezNXeOAAUBzpj1UQFj3fs5k4XCIfdbt6o0YXcmFdfSjVo92ASCpW5U7RzFgnETkQBLSuiE0bfWESMDiSRgZk2YeDKwrItWZfbCp1+xEocJ6923JyHNnsDBijfm5UIJjtPd9H5OWWMXdKFYNwPjdSBsvLAK6gnX4Bg3HYAkYSrjcGQrHEJdCFe3MF7bBDa2TZtbIOHyXZjR+a+y+b7DksOcyfrAObGTf7ThzYTIf913hy+uRwPs5Xyld4mbWZM5H4yzDbhnSYNbGoQAp31qimYCW+fNhAnMRzbxgLZJpHiPsRGW680HU+N6NYamQLWsjbr2Ey57fHFx3LzJnHHNJEAzAN8YLXxmAUPBtvFgZAObJJdRHPJUvuNcPk+SHg9dvDi1I6JTz8wuUjOpShtMC7JhUbz+E+50XBSBfM2QRes9fZrvCeIYCgpJEVZ2hETMJACdnIom2fim8cTJGUWSavjnnGY/tMgAS4PTK+6xLb+Auf0+530E/D/T3BMuV6s99iIHcU6Ju20jvNccI0P7wyAvpVeAIxvVK1fF1TGJj6mFW5dF3O+bdzlGt/kQB0ZaOzI6CnuSxtWrG3aBEfbZQVJ3lsP4pljE8d1sYtgdYcv7dToSMfv/Gmozs6TdQgoIcBPuYlWvtigS8HHBR4BJscUpGsbuEW9JxdJcwgEjuL42jj2oi/rzu627FkbtOHYnSFEgaVLgtCcgQjiaKUzFF37uDK4FZEBzLcDya1PQnMQpLcsCC6GaZMdoN3mQp0YYdcCjmKu9YAwCcq2l9J0at+qvLWpfYnpuGrPhdm+hmBUsUqyx8uGVradKn9eHXyKF0pj0JlHm4xRapLIjpXxCQdO1jVPFl+RlQ3eud/Aj7M26C3D0TqqFGzWt4IcaNsHm4Qpo1+N2BfsOj97BmFSjF+dIqtGpBN8YcmnzLGhbzn5Oak1MSDk2jzJxRA26LHrZarGQd3mXT9ly6Ur9hRzA6aAQY6zlbWB30UB7/Zn8dKXwExJPs09KYkRqq4dU7LXOoEE8Jxo3FgXqCjONT+hxsLAwb/eqxqQf3ShndZBmcl1ZC+2JjA5Ac1RnfO9CbWdiOv+I60C++Zk25JcrtXg6hAVUgrzK5ZPgdqPam9iwVUCO4LmotPzINDkvsZr2fzt70GT3lQYkKkZE50i5/QPvtk32cnfOtSS6RcFHorHixo+K8DV5QlNl443x/qCPrlFDS58du2YHgeCzITaQ/aZD3m0/+wHeHSMtWp2trkeZMq8yVR9BK4G/WUpoL+jn62fp6/CgmODH2WOV7etlN04N4QBp5cPAOmX2ul/w6qCm/mCoF8brufxg2Sxm1dtj1nX6Cj467+5PPZu2DRzy5xkHDCEy/kKzti4kJNyCD/CjAEAAzEymOg6ZtR0wfvKEgcYxfGkn+MKJoa2Jzer2z4fTFqwFZcE44hRhSAUJ1JitelY9zQLK1gAnowoRDqTxGZA18hdsjBcRzeNzam2aekMQrhNGmPpp0q4pCKL/eYBCxcZPaEYu+Db9KVZGskvnPgyFCxWyqoHSzG/ZPPOxDDoFYxqLzAcUhZ7JmFytJ+hUjIeqLBTbF70GDJmhQio/WRf/SeHlObEyLybWCJ4yTQ939CpYSzOKuvaQJ8dyEZt1nx838YgDI1Iu7EOLd2cLysaS9X4xW1SISR37GknB9tkWOcqGODI+IWDjicP6xuzd9Yig1MEi12FtuVFYR3taSw541eByzEwtSYeN+dDrZJxjr/nx6Cyh8N2zhAS14toScxkbKTzQJX/3E5O7GhbsadXI20wyElo6u0cY8XKgdEY+BscH6FNlnebUCQGZuuWgxU6yopxe1F4UKSccSRkUYClGK6Nx4u25CyMyJMSnDDmg6vliZMCW/S7wKuy5UUVPDU+5mgiKhcbxd12dFbtOe/il5O2k6A1zUMf44pgWTreIPZcZEg7GPdXk0q9lrlYpYzN+UJg56ojrr7V6dasAMk0XcRD3plX6xu75rjAp9/smID2647iZwptXDfR1IU4pDYsY3KhDQyVzxj6jRWdc24uVwJlLjOeOFoG0Hb7soH0gt6q6MGoNKTi+YDgaGUMlpoS0wwqnW3aZCcAlHdZLxps4Np57Vg4zWFQv7ucCH+kd9deNJyqHhydj1Odmx6iB8upnmovIiYnpXmcj2TnKtvMmWCNwcVNcK1GwDdfoQYTuGM1Nrj4we98VN0RCxKViZUMpwtKCpOPHFCLqkonu8eOpjB+17SxNs5Resa5ngvxdwknIjll/AlDSA+dGvHP2V06bT/h4LWPNvjMbxBKTsFufnLtOfG821Ao4qSghtRz1ZjkGT1tOrvRaYdx7QNv5mMdM8zg0q+0vYO1T3wdf01IYOvgkIAMFxBkt1VPhQzoKM7FQo9PDNL5MlQ1cT3NbXPV5BfHwFQLf1NTuax9gMJzotqyNs6/43ieHVg5SDfXDrJ84DKUDb6qUPjLTbRqEloJRsZce7njC8HaEXjWYh58ieAoqglEk7aFimdz49gZyfSMa3NhDiWfnmzH0bG6LYz/YKndZdDKM1Vz4WoabfilGy9w1RnA5AGcYl/VDFJ+GYe87uhvhbJDFpcJtJnc8vPg4g9xSgczTrqM4TS3n0J4SJwUOYNdeXCAu3HYjEHfStrE4Ro/eaGLPf0iFuN8JuO0g1Nh3qCjwEHx+LQevGMrBkDLJlG76+QGlx8NVm0u+OQ3ffCXio3j0ggHomSwtqvyyrcDDRWw3W43txlj2o7fsODU3LkxTgzGUjrcfiiUHQtOZK+tlve4GxeeFdKmUE0eYxgX5eI+d7ik1V3c+cWgGhtT4ZzUcH60JXscemGBMzcY7N4gdDFAPm33x45JGMie3A0vZowhLRGNHbwIS7QqJI4ljvmuX9a5xU5xwt0B2gf6M0QHD56N28+8dxw//MaxfZZR8/+54MON1rcoFSedWvOFj2J8ibutfLIDTYyA3e1FkH8rqVwCUm2RABT8UbQ9ajdbR0UJJ3LsGUvzBANAZfpV8+5bgYjpHbF9kkMIHAvvHvMZe9GBzXhm8LyTAm4CKsrkl+y4MmQ6G1ouapjTCdq1Nhfb8LQZ013MbW0je8YaECtOXZyDNnNsrdjFALbAyytBFywHSArz2+pqa8tcmj81Olu1nqXz2NEOb9u8VqTLms34GbdgIxrXfY2uqeaY4Tv5ViMOXZIvTWNlo0/zOQRIUOBDTVmBC9fERbCfNvYTMBwOquTXO9KA5uAoBj6bU+3Uuvtyztvwwdm45/ExnvmRvzxe+fmfGte+9KvH1U/9wrH58MnYnhz7qOiJ6XjOi40Pl8UXfufDpnOSlJQteDKUnzna6AnBxc6FDyC4NtUalNKXSx2jwxU/DlJ0VXVwrSesi/T2nQTdbnPUzlm6tY/wuwgUXHKeCy6YTiZ9t0NscaZWMW+Tg3dM1XOMhDGUjXBNjeu+fBefpjXWvmDUaqrSZ4uSkgBxTnu1GbjbXMw7LqntugZdZPqbuZ0pLDqSNUYkXutNOnVJo33m+IEHqzLHUlxzrpYcFnFvcNyvPjCkj2ApTV2N3k7MQtjp7nhl86cM7oAa6Yg5hJ437PoInECTE4IJno06rULfOykZxiedxuyEcNP5Je/y4/zGOH7DPeOFv/Nd45nv+dpx+dqlcXZzOx76439p3PfF/+E4+Y2zsT078uD77i0kXXwKKIocfAgNPxNlrIM1GFkAJiMYwapBFefWYfMBAnDLuXucCe2BMEc4/c7ApKmk355DEToeByPyKIhP0Y3tTfRZSJUsZDs+p6QNKafvxFqv98G4SxDSWGrGzXg4ZaLsrYNS2ehTWxElZvD0ib5i8I4h2TlLZbUdisg+2nBQZ+x8KYYJTLcLqS3EKh57BGLrPhL58prjIpPnEg5kgvBqTufUTVVls1B+iMYI3y41ntLPcYOPfHq8kpPDaJMxm3kJuhZwLsTQddt6yTJjd4wchOJCX8iLPta9or0u2Oa1JswcEzs0jphNRojkjirr13AZ6+vPGPTytWV7pmPoKXtEFwJgT0CAe0EY0Z5YOBFtl+wktDnkgvPwZGzevBmv/L0fGk9/59eNo3sOx+aSbijePhsnzz437vk3v2489Ef/1Di98cDY3OAegh4qhgMSNhkR+FHp5aKG21Ox6KNrBx8ImHBBMmjxnbFQ0AmvFGHVpj+mMrjkNjdZx4RXQHxmkouPdw6IeLXe2FXlQNp4FRXO8aVKjv4LVHNlTCqBVfBXcp6D0CQH1Y7X80UOwI3FlzZxJLqmk0txyG4nl4s1zut45UDuOPKlpjgGtRS2EXsOqgzom8v5YccxpW3TF8EN1bKtYNTuSutpp6CixBXfObRezEUHxs1wq7YoR5amD9DCoMva8RqTnR+6nfOJvUvGjmbiUxdxc4kQHVx+tBn7WrArsXBRpyAmBzg9p/xiEox2aEccZuB0uh1CNjOENZgYHamDSUcziyrJu01chd9sTsfhE4fjuff81fHSD/y5sbmi48PBZRGc+U7zVm8nBy8+Py59+r81Hvyyb9CnEW8e5y/zB8YPFJo70UoAYkbeJbUaErOonIg7Jh0QJ1N5Lh67CV+U4fA4EeMiT2O9WCqsYxsKVnZDWt7TN1dXmAq8KPBdJ4/4HdKpzP7YudKLfQ8Ybvj0mhj41JghJRAvO6yBGHlp7/HikRi9sbTbD3Gv4KeSeKFKO3XDJg4fj2kA1AFh7OL46GVf11qIoqM9+RpvinCGQ0qPd/M75sIdNXVcrQPTSo8R8Ra/qQMDUM7Gd9v2Utd8NHkwM9YF3+gnTkL6jK3hezUhd8HdqnsIJplMZXCAZrlgmjsYC4hTGB9d5YCP90k77wZicmm/5c+Wn+kjhEONkv9ewenpuPTaMZ77ib8yrv/oN42ze6/pzr8+Z1RvOFg4Y+dxMM5u3xiXXvf28dqv/0Gdzbx2nH9YMfTs7xYsp5JKhAOEdw754O6jsxPoDkv2BGGHnTYm2srPvgUVTgcidXAuDPJQwcd4t2rTpibbcc4JB0As1YnZKhOsMgraLhLmMCRXGbzzqm0cG14cmFViQ+dcUXZs4/CzY+Vjv9jxB6+NVLsDQvugo3hMutFU7YixfA3EqA70X6YozGJ3rgClQ+YABDfUzrGxpgHXAhUvSvB2skKbACCiwM9ChQ/dwuM5KZMp1jXMkGa+E0+qvXl0e+Fv6pmfY0ppvXCkwX5DyTw4sNpLamWPIqSNmfnLnv5398q04E3Um4xpzK61YUw8/m//Xs+WSXxdJ2PAlZG2HpUwdg1BiwjkzSa+CWw1emWL7fBUBwSg7PNnN8d4/Hjc/NkfGs+86yvH4cPXdPkAjf64iUYsPmS66Yvt85ee06njq8cTP/qPx8n1K2P7AV2Q6aDgnVkiA+13tY7H6RjL0fkprndGMHqho40P9wTcD/U1NtpeoDI5ebVxIi/gIUUd3iy2tI2PD0685NBVLSypXFAuZW0a3/Gdi3DOnVr69Z4K7bWs00fguQMIR//cX+mdM47Se0yQ29mxGFP8SUay+wYG34wJTexrafuMrTYQ0sx4GU4ufC6qmrAA3JeFLz7EMx8wKYHAhX3mZiUAlFWCa3dj6RPFfZPBXW7fcNuuDWrnQMxu2E96DiR20wZ+gMnJPlJ57NHT18bHH5cir4qm/UUGLxuPR8sEMc/alhy+xHQcCKSIzbJUkxcOlfqR1ZKrgyj1cuJCp06izWsPbJQE6WYpl619ZJwDpk8VuGdw9MSlceN//4Hx/Hf/F2Mca4QODpUgQKZEEndfKmVp5aNVQIyzl58f51deNx74hr82rvyut47xIfnxIfwlQzyjzltYCvFnEUHytQ6jZ6/1q51g2AktGTET4sWgNgWYS+MzZqaOnxq0U8ylxtS1b+I4JmD8A5IMzEU6q9uPLqxtY8CDU52FaQLp2m3XL5zBN4+5TFK88KR43r3XFB59zBmfvTGGtIvDaGN8gnVt39iEn24SPAY49VyFz5j2aZqdn0DrXGAnhj+lwiY/+7eepDgQpiyicd3lmKdz5ge85695Z2y1E8icIUbfJRCPLQ29ctDD17lKZ844wQOWAoaaTfSR0XfBNO1RLvV8MGnq5GEnFEuwyGsMJy9Y4q+LBqU70bXfwXRW4DOEo+04eN12vPTD//V4/of/0ji+TzcNjmQUoU8ERLSV84FHF3ZOOPVOL9ExJJxuXx6H1944Hvoz3zYuvfEzx/l7T3X5cFzvVHPvWJKTeLHA7OQXw5qz4wFRp9GzGO1DO7nEtwcGPWPV1d4BxL7aAHUBl7Zk9LTjb0X3JbnEeXIIbxe4ynVy0i7SXe1+gMWoF5dafqAJLG3Z5sI3QfsSsNsWJZsLPxXPmxyBxJ5cDehN+hHf4DGvYzF9BAAD15JCnQlKYf+QNMB9ax/ztK/nrzGJH7uJHKhioXc+4MO7Mzmw1wVA2ZMCgteo5o0YFzmmXTjbd/QwuYSLsCF2n3pinA7+mA3a4bL+4kptHMKFMl0J2GX3YJKsTkSbvbq9rIuTaqvBIqhumOvsj9NHRg4ItHG49Obt+PCPvHNc/6H/chw/+JCMujmoc9c6H9A9ASF5bNVnBU2cgSXewbmuO8bRODnR886nx+PV7/77aj8xth9kn+XeBHXllDumbmelw+lkCoPNJjZKwnl3XGncjisNuy52iwAgUvHkSZkFkRmxnzbgeWXs8AnH+q6AMhOMrxexhMnfBOYFCwkbOZ3rtvZGb3fch+HrtP5KrfAbvYBtROJYervc5va9cFDWwVeC/Gv8dHA+1BxdKm7mxoOg/pKfL9FSi3vmLd3epQxx5bPlslC1zM6lNrs2el68W3cXfWpspfSpsem/y+TCjB7+GKVzniBXXbA4d5nx4CB+9AGoZojph6mQsbFpnxxRnUcIwKhk7qqlLTxwLOvHPNr473i2HX7ztWOH8/iuZzXguIzI2bi5xEGdVOhX5gWcpqPakuvBJIKAllNKLZZqcYrlANiDU5AM+HSTzbGlCNQJqoH+8FwPF33UwXjpb71rvPC9XzcOdWZwcHSsmZfVDjiKRJXja/S8IGnrHyZGb6ODwfn2tjBazLdfGePpe8erv/+nx/m1jxvjBem0V7PwgR/ICWrv0FLMQZUyg2EgIApOAnvCHbdSs77NwIA7HWqT79rYXQTwZKthejYMBJVk60IiHYvF93Ekx2Zutdxm5gDV/91OJeNGO6v3a31Uu9Gl04Ee8DrQZdmBLzLleHBb43fiA8VWn+oc6LLs3HsmN04rKX+lmyOiiA74Yoku2c7P9SzIFlmkZ5ecx1YfE29vC0NSOiafH9X8ketGHfDBRzYeNuPA48E3WLmpyZikVM+kpNCv2FKTGlxVlR04WFWUjHE11MaAwwQssm1lnGYJllGrdGVluO0GTkZ720Fyg603SAQaQq561wNa8jEen+4X4xEb9To+MXWIyrGV6Cxq4zFrRfQsyQ4hSSW4lpO3P6Lu9WuT/1CLpAR1Uu0U5bRJTxLeQKLC4E+dgNlpK4PCsN1oYV559fl47me+fzz7g39+HF/WAjvWjq21uiErk0C4J04CcgjEQsfiZuPprRfGwbXHx6v+0+8dR49/2jh/WnMiTv5xWGA/WgtclOQd7gwSOfgACIA4ABhdFfuobZMbpZ+2+DQ2rnAwZForHiMfxZGtKD7tpz2e2k14WIuPZOiBhmrouKlbLLIfjkO12ZfPTl7Sg52vjFvPPjXOn39ynF7/kG60vjzGLe2lL704Dm6+OLav3NbDXdf1enlsb77EF0TEfUtEt8ZGZ1hbHzDZUZU4uWvcNrr0Orh8TfdkLo+DS/rU5557x9G1B8fmvofH5rJu5PoZkcvjykMPjHH10THue40O7g+NwyuPyPdwHOkLKSenW/VXPVYHN6fiv3V7nGquOGs51AMv55c0oPp/zkfO+rdVfA9n1pVSYew9YNKh9s6D/kIBRvGOAWfLrm3QJiDaKnOue768IzIEwq1Q6+1gt92m/VAgOr+WV0W4Fjgu1VdLircYEVPwnaYptDXGgGXngJz9kf6t42V9kpHP6u74xMKHP+UGZwAhRBelybuJ2rldSHBtOpEm9DsAi+CB8/HyT37nePbHvn5cevje/tlDgQ600h1IckaVIF1mXmoTwyXBVNci0GWCFv2454nxmm/8obF51ceP8X7tMFqcHHD4gvdGn0TYTYRzkvEX4Tp46StxkA1IHIOxLEW6+KTfGeCMH2jbmDBzstFFj4C64qnreO2jY3Nb3+zUqf4V3Qu5fzOO79UuxQK/eXvcev8Hxulv/bNx673/dJx88NfH2XPPju2Nl8f57Ztjo4PA6XjBMjEP9W58riPagY4kG73O85ms36XJgY7QNf3jHd2/GEJHFIxVxdHQi0s7sBL2F+RVbzgdONXTorKdnp2M40vHyu+aDlj3jaPLV8f5vfeNDR8b3/9qfQflTePKmz59HL/pY8fBa183tsfi0YnG5qYOBi/QJ03MDc5AuPdDnuRLVorj8HVmV1OgrZSYPX7UanjntVIyriqFr5o2XUbnLiOkxKHbpolzMEuNyW8SC0eHdgByjinUbreSM86c/cVvDyd+OFJwc/8stFZ267DptZrScDg2ircW7ydyqvVXFofTXJrMDYk5Q4DQYNaEMMiu2bBGpOeBQpJOUtASG4gHpH1QoGPjeLzbXdM7weUb46k/8cnj5OZTY/PAY3rnuKV3O526slKaSUg85WoGy9UuhBXKxadk7rX8peRc4Py23gmfPxiP/cSHtG8djcMPKGcnKy69uzpHaJXUvCSiLQLvC9QEKEL3kzQaYjVyjsRAKb68gLOa5sr44cRCwufU7/ACaV/wQn1F3+bUqf7hvXoW41XH4/Q+9eEeHRCeORm3fun/GM++58fHrV/7W+PsmQ+M85MbulBS6rr/eq4DxiXthIdXrohKBw+dssPnh7xY+Vp5ZwenOtCQVCXGfYJaFIyXRlf4Pi60AAE9wMBOqcsCuXJjl3+6DTwOfVDFxn2afigMjHy4UDu/rQOGXtuzZ8fBDbVl44B8cv7gOHjNG8aVj/2scfXTPmvc944/MLaPPqB+6CDwsnJ/djtuv6j+6TLk/JJOf3y5ovFiRJWLjusqOkDQJEUK3VKqhkhntdre6XoNuyvB26n8EL0WVMNnHmS9fMyUrqktsDb039yqqsALqMuFpvOxGQO5NidwuFgfjuEG2irWYSOmarlW31RzCeJ1AxReCljJfFy/ZZwgUMHc4q4t5bp2jWmgxwG/+aQi3hh5URFI9ZwAlB0hRMFY3x2j48HhQocwQbh5la7+r7wyPvjn//Vx+t5f1o5w3zjXg0k6LwXh0uEtJyUaO1lSRnfJFX4W+tkNnSafXhmPfsvfHsePvG0MfVOSG5b19tQ8IZN/0k1cJso6bTL4wOmE9Uxu5xMhfUaPDg7XVfU+qXd7vfvrpkld76vLh5e05K//5rj91JPj1r9437j5az8zzv7vfzBOX3xSHJwdbHTWrlMInbpvrujEWtcM21PeZpl97YLOFU52vrpvwtgwErXSBdXKEsKp+oAhO4+oeye2f42JIHbRYUOxGUlrPO4gdI7Xz46Ivf1qkcgDsIPIRnwtGnZiP667PZXpti5j9MzJLeWtSwmvmyuvGkev+4Rx+Il/aFz72E8Yx69+bJze/8S4fPzoONOaOL+lDG9qrPgevBImhLlZ9MQiBylVzWKMWta33UZAemUtEx9CKorzL9F9a9GVc4X4Qolqciz8M7ckFF9iChdf1PjPNna1fVBSzfzyRozORYJzVe0duOs7bCjEZV4wBtQmZznRgQmXp/DtumSwoy3lPIPC23qzLyxe9AmEXriVB9OcAMzCbHR6eHDfmfTvHx985380Tt73K+PyPbomxaZ/LDu2FN6F6rec3JR+17HE6bAdiJbeTWQ8uXVjjMtPjEe/6tvHpdd/5th+RDuPdsRibj7h3AeOVhoJcwLw0asw+w47XXjwiQyBFxqw5jzneQv017QTXNPBUE9jn5y8Mm7/2v85bv/6Pxzb979vnP7GL+vd8b3ax3Vz9LJ2Op1uHGjH52arvDQOItOede4dgxi1s56zo+vYoHuHniPdGpSv4jkhRhFvbNpGTTv5gWs9OpqutXGNoiRXHCiUReWnfKDlup9BzJzN0yxucNhWc7jh6+y698F4+1MOdvizs3Gmlz8NUV8O733V2Dz2MePy6z9Wz6d8wrjyuz9rHL3y3/NLAABAAElEQVTmLRoLXaLouyunuszwzSAtqo1+OKdGgRwr83XH7bQwugfU6U76Rk2xXjU+NNxmQ9f0ys5pIq2TrGkhChyi9rd+tcU+DeW3wgOh9k4JtgGdyp3tBYPoxPEJWavSwaYrc9anlB4r1r9kx+KAcMdRA2ATeqeR7EWeeaYt7wwi4AyUJwabghLA77K06ak0W83qwcOqrzw33v8n/pVx8PwHdb35Ki+WAx0ZnMyMXhwzToXtazkOHsU54QJyV32rd6XzU70rnT8yHv6Ov6Mbjq8f2yfrGtULkkVVzs7RfWluq9nwImflTt/A0x/v9Itc46PlKQAu3AzcchNNb+yX9Uj28SPq8Uvb8cIv/oPx8k9999i+7xd1yfSicK/oAHGv3gEva2fXmHA9pgOm7+j7oNB8iupdjpt96hcxSI4DR1s0yOx4suj/gRJyTj2p5FV3vNFXv4HSN95xKfh079xGOzWkpU5zQKBw1uKDgy5HuCHKvB4wKOJyPp5nDkY6m2E+JW3UPw5gXgNaFyAdQRwbP4zGuuCiRPUtvU64lLx3bF/12nH1Yz5v3P9vfPm4/PGv05gdjptPCvU846UzIo1xf0Divnu+4Ie+IpTQMt1137B3J6tX3Xs1aj6nm2Fp2SYMPBdxwbgG0zE4S0rcYDq9NG13QwaGL/ujhwmuidwJzCH7FpcR4JJTNyfQbezsj43zmUcjsOdShEB1U1FA/a+FP6lKSAATkm0UOCgIZW8CYkdPANW+lkQmjmovsEfOxtH9p+P9/86nagf6kO5iX9MCOtCNNh113FtV+MLTL+SU7C4dQTg0LEAGVQuYhXb9uXFL9xKe+G/+yTh+6NXj1gt6J+I6FX5du/M5LwvcTvIjTmIge20jdEHkkwAGkMvcA10yc0qnw48mh51NC/zKrXH68JEW7LPj5q//1nj5b37HuPErP64baFrkV499N37DqYJ8tvTV59XpDXUNcvq95lO9q4TikdxmjVlO059cQyJTeZc9GHxXmfY6GLGlzuIzbtnEntomNRhuSnaSi/YkSJ/ONKAHWmy4nN24PraaQ31arR/Mef24+vv/vXHl879En1Y9rOfYHh7bD93ULYtLOis80jDqDIwzB5Fz0Gdx8rQKog+IvUOwZp0OONlBRrDcPtFRRw80JRz0jRgcmObZhEDOQzqc8c+YBY+/d/6CFAacXo5ppzaiVLsrEOab3GW23ralvfpgc146kLNPUrAHY/mT9V2GTFgAM5cgMXRBRZmYpWH4amhwfKquZc1obPTuuTl/33jqL/5xvYP/X7rxqE8fTmTXyPLY8nmdVjie02bk9T98hHJhtHt0EHl/4kzhjIX1it6N9XHYo3/m3ePSR326Lh90XcpBQPhzLaJ5PxMiqc15IYbpsavwTBTe/M7jRjszp+2H9+odUJck25efHDd+6+fH9jd+Zbz0Cz89zj7y/7gvR1ev6L7BFXETQOScUqsUL2xdELtTVGkuiCDvWsdnNUaXerXdISegDHfFS+kFfYfjnYqFatlJqyfFXYg1DjKRy8LhQRL3TThw3nxFnyTprE+nBZdf90nj6qd/wRhv+ehxz0d9xrh0/LA+TT0cp7rq2tyWF/cZGOI+g/Ehlp1TZY2XsXZAjAqXHcW6Blc+sqnNnKU9yaRfx8XzmkDYoIZbgo9VyMRj0wcNmpOXxu9QVgwyBRpe4UZXiuZcnRrnfd5ORs/N/EMt1iyODqYNnaBMUwuzXebdVgbb2OElODCyOm5981UvZNCd9c2N3xzPfuuXjpsf/Ofj6F59ts39ZTnw/QQOHx7gRHAnzNTkLCDt2B6NBmX0heUZh+1NfTR3+dXjwf/s+8bxGz9tjCe3urfFp98qbEIXUe0+9oCI2TV6n94f66T4VXrq8sExrv+TnxvP/fTf0MeC/2icPP2bOvnQbztwM5ADDx/74alFXV13tpPXi9WtCxtcyH8vejFcQN61uYekQSp3QbbJuWHnFd/YcFv1tIOJ7SIgU4B9LeW3Y15zQmY8qtS8EqnGgbMGxlB6fmHr9KY+Vr48Lr1GNyTf/Cnjnn/tS8fVj3ubPrXYjNvPCaeDgy+rjiqCjiu1lgm9C7+K1Ukl4DUrmPvsDT5ycqfaMPUBdp0q9gs1ofdK7FJmzJb0CtqY2J0YeAGD9ToSDp3vyeGTssSwg/ZFDnzwTU5hgdWjy+0Q8hwE9i4JVlLJYIJPXGrrZE+ySSDgfCRO0lyDckZw8Kh+BOXg5fGRP/rEGPerfd+jevfVu4H2VhYA17rw3Vkqqb08hMWnDrySNLu0trpuP7t5MB7/q7+hj+seGGcf0nMAJ/pKtR/+oUPL4DBgCuZcMRGGNhid7V9+g/b1e/Rcxf/80+OpH/q6cfv9/0yXP0fj+P5XKWWdKZywcPUWpbMGX5FINF/R1EKThknkeMQZDYg+tGW+XddEkwTBqz+djtnK0+Lc2Kdbwa7xS654cTLubmQCuP9yqjGNx66+m9uqI14VekgLphoTC9qAj08heu6kRO97BdxzkK+e3tDrkh6l1vjd2o6bL3xE9oNx5bFPGY98xTfrdzN+nx5Wk9dTuon9Emjdb9B88VV2QnvtMkiS99aVAjvXjukhl4yOMcg9EBT2g0s8uj1SbYDC+WWiXTM7qSFwwgEvdedkXg5c4jQ/ADB6GdttFKwrcxpRm+RLy3PWC8G+KBXHZ05SRBduzCjrDAErBWtKO6GLk2uwHWiF44aJpBwYheRQ06ST/Hqyr7XgZ0dRzdNq+rRpnG5eGU999WeP7Qu/reeV9IH7JGpuSFQIwZHNAgrL/c7LAUEALjswcJ9go3fnA83mbT3mfPbsjfGav/yecfD63zPOn5PtVAuMgaLgR16IkjPopSCmFvTBs+PWz/3YePGnvnXcfvn9euDmsn7q7aocNJPuEE/dcQiqu+pbLeIjffTBkFEI5cmiUSlWTVsFVTCMlyFKyONqhLOztNvcZeeWEST3U5CQS6w2zZRVg0ypHbe21bZ6fzNTWRn2Ib9za5ezc2tgaZkzpcsmer8p1CGTsawbocqPsdYEcivmRE+sbl4+HUcPPzIe+KI/N47f8Xt17+hN+nasDgg3ruhhqvNxJOxJ3gTgUXB2LAprymsH2QrV5IF8oWT9eS4vAOLrOaMR/oiLzoFkjwqo/RG0EDIEa5zYORDNfREOLxzpKCGk7v21l8LOZuCyEXbvkiEcgYQ/SbqDa5ICrj6WSUwCPi4ou/DJmXPDzkunfjxByHdmtvoa5Oaxs3H6/l8dz377n9ap9z/XQUGPz7o0oUcn2bSJihjEbZk72i7Cs6TtocMuMU91B3tz/OB44Cu+bVx96x/SPQXeo+UrkAddmExCEcrYIWuBPjle+V+/dzzzw9+sTxH0KC+P4FK0IrXcvFD9buZ3Iw4MIkRO0azxjMGiicVhaNxp6wQaebHlTwukjN++fdJPARwYyg4bTVlr1yvMv2y747g7cmWu+Uimhb/on7afhxC0/HWQQA4ZB3z951CLyLdjeWwa81bPPJzd1tnB1deOK2///ePS2z5vPPiOzxXm6jjRjWVuDHMkYOaYmjnflU7H6wapQnqxRI8NucsU225zMNLd7SARX4fRpl33eMGYGw4a4AKUbJ0BZat3FYBVVlN0+HBAnAcMyfUpgwQS5Y45pytmB8iLYACp1aQwkHccnYLFLmD2gSSNrwceXJcMDh9bgdvqZtvmAd0MfPKXxtN/8Y+ISF9guqrHYfUOz6dyfmpOTixWSvJxQ6rdxPKOWAcCxwWp/+yoeJ7f4jnhK/ruw4+OK2/7jHHypD7x0GOEuoLQUVaIEJOX/1V/yFFXAXoHujme/p++R1/f/vpx+KCe85d+q69vbzj9wdmdrsMyH/uxWCnEplCj4UWe04JfYwMqVeUhYPuRVVryXtwqko2NUW5qgrcPmwZV5FIki5j3eXZjbo6in5kba8d4Jb+KGS2Ba2aaoFNZOWOpiDtLOKbG8UDH0p4ajFof0guz1TMpJ/oo8+rr3joe/KKvHMf/6heMo+f1Tdnn9RGvbkQeafJOT5QVcy+8z2BV5/KA+5kseKJkfVlWe765SeFlUyErIzjU9psMerVnqq1XVZxg4ZNi7oMoeFEMVIW9m6j3zGDIkxpRtWPTWIDogLgvErx2wFBkm7+6DIpBgdAgvMA0gWXpUPPirMtH1247ANl2MU4bd4CEJLtiw0hSmtun4sq0DjL6ruIjmqT3/aPxwW/8wnFJnxkdXr5HN+b1gIpuH5uvXE1Rm9r9axkSeT9vJ6yO8I7jFDXqpyyUp6+Px7/9Z8c9r/7EceNpvXOQm2b2UB2jbxkL+GBtc33f4M3b8cwPfOt4+cffOY6v3SMj7/x6KYCf/wes4sXZs4Sq3s1ryRrQG/jJLTtv4tlMLhLWBYk+Y2FMbxxDcuawdqy6OQuEkcqWNgdZHzpRu+wihyOWmsDZaqbd2IRi5iBo5HiFPfXdEHN0BPKctDNclLnDV1Pbi1F2mnPdTeRZBz6+PH1Oz3689m3jkf/kW8a1t36aLvn06PcLrBqdWWid8bQnnj44EFsD7DWjxeAfIFabSxNH08b5gJMX64WdkJJ1080aJ0AounaVNk4q7KzMKTgvGUBrkd5+2txtbnwAEh7auTbgVM6sS+cFNyRwoEfuYjUPJrnNFtBq7dVpJwaijW6XV9CukySwi2a7amObjNh50WZJcq1fPlqeuhY/eFjv2L/5c758GLc+rIOCbiLpetwenUjhm1OWFB8YenSQOdXPInObU3YdFHymcHI07v+a7xtXP/qzx/lT+qqv3jEYQO72ORo5J5DU5EvZ8FXiB2+Ol//u9+tvSHzjuKLnKPxUoK29GwrM6O6iSw4fRM076WNrUyDUFws+d9MXjrFMj3eeO5+dtLPeKV1E3a2NV/KYdhQ9Vegod2BK7SGIrdzIu9YC7cnZ+FQXexiv/XjFCMmG33NQff7KS+NUX6w6/pjPHPd9/r8/Lr/9D49jfUFr+/yxHgqrUfOBQK6OTT8oUPGiJEi1rLYKe2wtTxfpvWxVe/9pHuS58zbfjrD5QtKcgVWClVbW6ow/QS2QF/4XOTA3P+t877sMXqwALhS45kKWbM4lwLrDWK3N5FrkuPRa8QD5qAV/x3RbhHwL79Krz8atX3nPeOa7/qzszwnPN3v0GBAzRhYCeye8Wyebzzjxwc/LN6B0QMjR/EyXD4dXHxr3/gd/Zdz/9s8bt/XDrbbpTMFnCfi0L2E4qh4IwH3uQz2ZdK6Hq67/wo+MF9/1p3S5c790l7UvCKQcub5NaunfPGjKwLhVXlnOBCi9pLuWybNYS1ccUU8cAkl0AUXURWVLYOiZH8pFDLrgLsq0KTv7TirLaiuNEZVOILO+w9u4HXjfvt9aDxa+72OzHnhSdj5H1MfCvBlseeDpjb9nPPAHv2hc+4Nform9Z5w9rUtW3yDugxK+WW4SM2dZEzNhbHolE+qUOeetmDYJ2U/w5YDlg0YThS/4HFAmrwRs4CjBVUvbxTBx0YGXMk3X2sybiiRGJ52UBN4l/SUYOWFLZDui249nZnYk9LwoHgjq1lvZelZdBsN4kuFTB65F9P9QTvyh16NHT8fJL//k+PA3/bFx6VF96K/vPpAYnaE4H3zLTa7L+0uUBe1tg7t1rsWx1Rduhn7W/eF3/v1x7+s/etx6r9r61p0nQDhCEYf6MKOom6D8SIg+ZBzb1x+OV37xJ8fTepbinvuv6dOSS76mrCVVfp3unABRuRDDYx6F60Qs32TAwc832oQJH3Byo+y8kKuVvHeY6FOHa2mXKIYaSzdNVO+gxKJvOw80VYBxexVPiudYQLC7IrsM2DhsFtOKSeRd3+JbMdVyPtHu14nl+dN8+bSfM0IFJJq/+anFVuN5S78ncWNcef3bxv1f+T+M+373W8bJb2tOX1Q/9C3SXo61DyiM+8PaZR9Z++Wdp/KYc6ocvVyoZQKS5QMyNvqCDIZuUVi6LjipYE+fwfBmZQx152MCsHo5luoQelfAceGx2WSFc9/89WeBop8gfFuPLjzIFNopsSUeRstslpIYUbvuhjnUM7/7q4MUnoHnCzRXXrMZN//uj40Pv/vP8iMC+nKkdlbsRtUibRprsrHFq6I0dLhGkgDl4Y8kdX1w++yGfljlhfHIN/4v4543/N5x+rK+VswCEiyThYvnhxnQjPCLTTwNeXimj00fPx/P/9S7x/P/4zfojEPXrTpF9SCJgz6weIhZXWPBY152nJlRRhN8suzxLqcyeLvDmr4tucFFkxgUXKvspGgMQX0H/0RYKK7a1RMZl91o7vBeXJ3UnbTxLnxaLFr/pP6SbeW2jtQuxp5EEEqTmUvNOkvDX3eDVThL4PjPx9DM4VaPPW+O9CMyL1/XMws39QzDvz0e/vKv0e93vGVsnj3WutAhi0mfe5jkdCixIFZJP6q1a6NPl7zzJldqpQG/d/iGGX9BVtMHAN+jkuxY2gQLv3d6Kbxmuw3APorjOYFIBT9eSSX+PkNACXgmNVHtpQqHaY9aOpJYbUApexRqMJ7KyfrJAwh/qpZdaQMvR2c9t2Tny9rhXvl77x7Pvfub1L6uHU4TTM8bmw/y8F9L0deOPUdACYCrLVnpXUML4/y2PpI8uGc8+BXfMa7qo6rTZ/XtST86K3R3gBuGBPXfotSZCk/AYdvqlOpYf6D2pZ9Vju/6Kt0D0U/K66DA49HlnMwqIynTdUTnQ93siCUHLne/w1HrVZOvHjAGBmenKSOPPfFuyGrIx5LGYZYePw54/ojUQWnDgY9ePqpIlJMjMGbeM8TMKQ2F2Oo7j3CTVNkxiKXSsN6ckChpfjEJb+yUrqrxO24rC9JKd93/dq5sxG22wppKYuVRjobLsR5Wq9jx5abRuX4A5vwlHRiuPTaufc4Xj3s/9z/WA2dv8Dogb85YOXPFM/n7jE1Jeafr52q8VLLYSYTApFAVml25q3Jn9mA58UW3ipWONXdQXVAwdu4vm/it3NJt+C4DmdJBY1CC7w6FJH5gKG4bWL4epxgEMq6dPHnYFIq72uwjdiWWBCYaB3LwO6lGNDoGlyWkE7xx9NCNceM9Pzie+bH/XE8K6vsBWo08h+a7xOAgVbFviZWHZNs8i+7uzA8s69w7h+StfrRlc35tPPIX/vq4+uZP13MRcuaHQeR7W2PC/m8adwBitVVxtOPHny49dDpu/IufG099/RfpXeayPpG4rGtS5akE/KUbAvKfhYmzCuODnd9tqEUtu3XwguKAJYWD6eaYr610Tcy9EPyclM5UfA5bB0rQRSJ/kfE1Y38LlO9RMLeeYNX6BiUP+fidmTwZC85udMDV4VCdOqyPfBX78LLyVTCOB+R3wGdyqMTtj1z1HID76HffisvvMfCFJQeVE1fyPp7UKZPwsnhABWFgutTImF5a9NEUgFahaxzTvliD8Wl/xq/c97ZhN5MI+ESLn5y7fPWJcfXzv3w8+Ef+9Lj9vB6L1EeV/Dq4OTU0HgfykA89xMC4EMq7j/RgZ040VGZ3JdN/fADZD5k5CLZM2hpiXmK1ufRwKOB6ptGUZVfDeHjxXbBus+my4Q+1pEN0gmDssF5bko21V3k4ecQl6QLtkgTOYNkXLL0jyMLjwYNGOpK1CSG9Ba4X9zLgcj5qHLxBv6P63V81XvyJ/94/qsHXjXk2wAtP7rVLsfB2+Ujskkhp5+CEFxwc6bVgT/Rgy1PXx2u+7x+O49d83Ni8Xx876VtMYPRgowuyuyRKj5sU/lEQdtKHdInzq+8ZH3nnF4/L9+qAcMjNUAYMJDuRdhz5+aAgEnZ4Dm2y1AFHHO6BfvUIvwN/5qWbXbJuGAN+W8A7HWZ56vcRt/pSz/mtV3TPVQc08bCDnusHVwf3OTSQZ9wkFfbgmLMW9eWSPirVTn+gvYXfUPS7u35j8fymPp9XIgfn+lHWE8k8C6JLIg4++la3fPUJkH7ohUs7ftj1gJ8/OxLX0I+4XG4+/czauXKug5hyUW9YNxzaDtSf+r49HMwH+SNzwFQTlSvQKCjyx962nTZWYhTO0RTMo2oH3jYmbUtktO9jby18j6/mZKuD4qnG4OiDHxmHn/J547Gv+baxffiN4/T/Va76kRotOX+xzZOGM4Uk9CKs1z+yVI4lITqgKLv71ew2y8QOqhgPTr4oHpsS66ADcdqq05xjKAVjHjpygNfLkFjVtBAZ/N6fg58oe1eUgAmEgzuCMm2JFOPYUNo/zVL2tv1iM5SGhK4mnK8TayVoMHzfXvuTFo/uIdzzhoPx4Xd9jT7ye7e+aaiFqJt4PH5mf+H1fy6enC57UcKsjtRpvxvCkkHr0kkt9lP9HNuBfrXnQf0xmKtv+QPj9MnjcaSdCm5Os7uLjsmG2H5OTjvTOd+Lfuxo3Pj5vz6e/YGv1UFN5zdXrip/LWwd2RxRgznPB+wvrXcWYSXybU+O+PScHxNBOj/RwYCHtDQsLK6j+x5X/x8ehw89NM7v0+PTVx7U71U+Pi7d/7h/1/DooUfH9rJ+/FTfIh06ABzqNxD5/cIDzniIqY9YeWjKh0M64MXnjYZTfdAB4fSGvmX4ig40+gm38cozY/Pi0+P0pWd0j+UZ/7DriX6h6uD6TX2p6CPj1vMf0TcOP6JfRnpFZys66BAHWjqiJzq9a9I5/vPyeLvzsjEuhZdLjRHCWiCT390K6pip170mNtSZ4tAYi0HFOUjhZaeWvxpPVtev6+Bwedz/JX9h3P/7vlADr99m0PMLHAzm2S5E+EIk8vDTXEviWycQb4jMpR1xjowoOXhq22JPLTUldq99tfG9WJwbtnABSIwGz7/L4IRkNJg1IaeZDGC1E8TBm8BJS575ddToga25OeFWhL+pHMMJxkeLh3dtTY3Umi5kER/qt/g2j+kZgL/2X43n//Z3jkv3XdO7mt6tZIefl/fzSdxC96FTlBJpB2ZB1LmCbkFpDM7068Snxw+NR//kt4/jt37OOPsA75TaqTgg7NyKAiZ0Op3f8u4szOYxnVH86k+Op77ly/Xuqe80+FFs7dCK6R8yUe17ABoPjwXf2+Xgd/u2OLRT3SQf7ShH9+qZ/CfG4RvfOi695e1j87se0f59vy6hntCXdh4dh/c/pDN/3uU1SvpilX5NUgc05a+39EP4pCen+r6FEtVByePKD7lo3Ogz/aE4D86xOSXjAMzeobMSPv1hh/bvVRzp0Mf9Ebj1K08HOpPZvqTvEbz4oXHr+gd1CvfcOHjhmXHy3t8aN977a+Pst/+pvlymj43Vc35Hkfs0B8f8QKt+y0BnB1u9CN+HSrKQzJZ/pcWK5s5S+ovWMKBfS8VZNFJkreLjX3/mwC2IoyWkLq3GS/rdx7d8xrj/3/1aPQ792WP7jFYmv+Skb75qiOYYeuhEwHEQ7r210qFDu5ffXZW7XvduuUt+JrlTmaL1ntMVI9nzGzg2FXwsSqhHl1ubgZkcEtwZ2e9IJkSQNDHM4YDSPItO4jwa2gfFWhIYHwZYNiCeXH0R4lyPF3uQpTu+pMPza2+M577rG8b1n3rXuPTY43rn1NeO1eOkAzX+5ISAzLYOL27MSbMfOwBgza5PY/WNuoOT63p3HOPhb/6Zcfjajx+nH9KTk3r3Iz/Ox1w3t3/oUuz8UZNTDHorv0d/1fr6B355PPVVf1hf9dYbpe8p1CWC7oroXZTPvUXA8/c3nxlH+nWlrX7qfPPqTxr3fuIXjKuf+9n6y9hvGIOnIfW49eZElx/PiVo/Mr2V7+Y2lw9ayLqWOdDZExPOtwD5GUPeofmqNvRKVQqNjbrnA5rSY+HqP7dIlK/aqjO+GOYcaQfhWHVbZxSc5cjiBXHEwUTk/C7mJf1YLkH4AtHhFWHu1RnVVQ3c5ds60dDZxbNPj5u/8kvj+v/2Y+P01/WzcfrJeK6PDvVo+iH9PeL3IkSryxOxOwTCXFuyckjC1hmAmrJ12jAWYOpQUjTc+PPANB4/PIutOBgfDo31KZds8tnq/okOe16z2A81wWf8WvTt83Hv53zZePir3+mPKM80Hxwgt32gzbu+dz4S6+LcyVFkHGcZr4wxMOsEikv6Gv89A459eoLIHNuuGpFCt13Q6UUTW9Ystjty9JOKYVCSBkCAoxhoJxGC0qSENISGYe8knGA6DR69XtZLZIBnkZ9jRQFWgNJpIXRgPubjfprfhXVKzQ8P6e++jqe+9cvGzZ//m+PowfvYHZVjZZncPW7iREtK0bMkmPB5fSp+50k/sJCHblpy2rx57vnxqv/uF8aVxz91nD6j5HSNDB85weMGO46clKK/VWd3+V9+Qm8u//inxzP/7Z/UAeFEv76Mv76Uq+t97Ut6tkKn/Y+8Ztzzpk8c4x1/TF+6eofe/e8d/PmE45s6QLyghajLl6FfaWbhjWP1XR3xg5ucVPiClrFVfDonW/rhM5FMnFy5JlXl4mEGbkEqbBjVZn5NhU0YhUHtwi0NGkc6a/CPzKjJVZLvMXA/B185nOt3VY80YWdHuvuhA8RW31U70O9fEOf0tz4ybvzi3xjXf/nHx/kzT+oM48M6Dut3K67q8oYbmoJxr6R+R4LIBO2DfTer1bpGBFnZ1hyhS7FdVDW3xRpbna3VAQCdP5pkEDx+0qvjR5pvHlw6ffrDOlt4x3jka79HB7S3KH8dPLTQeKaJscs676HarTklwEGXMnMlhHymjvHDsUN7PsrsucOPVff/UfYe8J4lZZ133dC5p7unp6cnA6Kg4rugiK7iu7Km9fUlvbtgWlQEA35QMqtEAXVAEEEyKhlEDIAIIiIoqOuqmBYRBRcUgWFiT+d0036/v6rn3HN7hvXz1r3/U1VPrniq6tSpw+0xMhJXrjw4PWFTAEA6jYIVSh5hOOkNT+chBMBFX6fNw8YoKnwpKboQTxYkNgnfDHRlc54LWCYxBoqujFVnVfB0OKn43Ek4V2+Dj8Ruu+NCO/Lyp7UT76Nw9riAZ/VFJzWzy7Ji3LZyhOh2LlNHoWL+7WJWVvnIyfol7dIfZzTyBV/fNq4H6oIeGWXD9MNGC1SYVATZKhEajh3Ll7LQ+OHfadf//A8wLmBKcse7tx13vnvbyYGi2+7+jZwJcTWLdKSHV3VtSLQNWo28JofuCd+wTvtSTzt6yq/gh95BKvFUOTs3V5HS+ZsICc9ctQMrQci5VJqGiiAuhJW4iaZ0WJnsMBW4gxHSbhc4iTPqWDt5a1v5+J+0c5/803buU59rK5/g1KkTN5JmpkHkySInTnvnTqOh0SnKfF9iPcUFynq7NXaCK5Xlz5I1C86x87DCh5AZdQ8OupH5a2yDXuKx5J77/lDb+8109mc22nk67TWexLje5I0oNuPbnlI3EJEqIa7EDZh4/kHgGxg0BkNqfOD1hOsmOYYD4CJyMA5vaseRL51uIMNnNB9qARiFEhAow2K4IPA1nJFENwkgXHfg0M0QVhaj/tQ7uQIoVxp+UwZAJG3BSkZgJQBj7B3XyG3vUH7cZP3Q6Xb8zT/dTr/XTmEf9tKH0mCn58SDt/ep3RrDtehYood2ot24ZHbs4wEnZ3QtbadTePpbePpwdx5JMh6hwvpat+cqZvFM0dZYHWGD3FS4+H4GHctn/iRz+11X3ZGpAaewnsaKc3Rg7JZZ9MAWeBatTNSgUe+U1MMISz4Rd9iZeav5FwKv2px/Ib2iAI6cQMYFmslpIPFwC4+wgZ3HCW9p/ENdyZE0jkDyjMicfWADM1OsKyN36BR8csFn51iPWFg+w3Tok+3cP32snXj/O9uZj7yHkdTJfABm2Zfc6Hlz2GzyiA4FO3qjc6xnYuZusqrrHagyfdPvoU3qkiFkZJBBdfHX6WziOBZrVs+u5JsTlzzqZXxm4DA7H93B2jlNZ9I6xIQHOVM5bhqh+MnOLWWGDNNZ7SymzIkjdPMSfEWLbsgwGiUDvqVMpakpQzIWogizMhIePN0HcXsFHfrSYcTCNm54+BmSEk8WKncIDgkX4+lMLixPGCS1QUmbjJV2wPASNvcXGV/vvNOOdt0LHkGn8Goa7NUw0VHwk99Ze3dIGrngwlp//j5hoHMkoYbOU1818nGZU5XzKzyKunml3ekt/9TO7DrAW5mM4LM7ycdyQ4f6CFYe5jGdi3oAsnLNE5H1Y+doALs4m4E7pdMgfn24CbOJJQMrT2KN+QRYDRWfwgCEyaZLZzLy0nIoO8IHPskf8opvwpUQ6LaUk4Jx8io6earsALufch4ChU+yifQyAIbRdmTGvZjbDoSkXiewzPx89SLWHA7ubLv3szGcHYTH3vFr7djvPr8t8MWq9Z3s7TjEQqoJWztLHvnSG/qRa+ef6V+k9emgkueuly4GyI9e7TQ9+mVvz3ibPiYOeEy8gC71xBsPj1vXjl3HqOcu7ZInvb7tvebu7eSnGSUwtUtZKGMILx3q29JWujndiBmR+ZSRhrqF66StcI8GnEQYqgR16JQGo8VW6Z0SPnD99edBmTyCoxPPm0aHlUA65xiUBipwOJWV0crQWUksLOHBA9MvN8ql44sAZPEXnUxWJl14rATAXFnPH0qWt/MW2xcttBuf/6R28g9fy6IWi1XcfLOuMHJQFYqp3lZForo+r3UH6OEeo7Kip05WXjvBG3O8IXf5M97Wtl311XxajeHrTu9QONlGBTVqHjmBEZxDPACoT7j0mf+zEOecwBX/PgQeDIDnZTKMDGN4IStnXKceBSs/4UQ3y3KCGSgh0ss3nCh/1qtqECEY5ZgyhUAanbqMWB4laJJXcAmHE6fcpE08+ZU6TNi8sRGsudhBx7m0m4Xdg74Cv9hO/f2ftZPv/5W29vG/aOs3foKpB3eC7Fh1JMgvi8EKUXj+Zxp7N1/XgegKNaSciUiCJjGF2fQlV8fIgdgMYP0cC9BtV7vkYc9py//hQa0dx76zjHqYQigy9W5TSleDHG2aj1SH+Z2yCkCgv1EGKV+yaJgaS0THbREAZBYv0yvFE4+MAKenDBEMdq5/pDcCKzERxCU6uFwo8MLeKXqkh7DyumRMzANfhgcvo06cvhcFUHiunNvT20gNaZtlusZWwqWLzrcdVy61W15/bTvxrpfzWI4vTINLhVPOXHgEC+yuGn9Ipgs6VIum6HJ8ylOGVU4AXuDsx8OPeWlbutqPwWCFC3662LoZzEKddxKkuH7gFliNrkrimDfPHeCrAu7cs2vZPWw2vUlT8eCHBN+7Uu7AxS5i8Ek0BaUlHj5piSvX9E7AIhaP3IxkZJCvcMYrPOjMJsG5DHnDi3ztU1fyoQonMsgl4E4FnaYK2mCtYGk3T1TcKcnZiO34p9uZj/1JO/E/PtjO/+172HI+phTuIhyy5Iv+SLhNNwD2dhxM0X07qAtByrZEeynAl+EdC47u2jx7tO2698PbRd/+GG4UX8B3OSwPj9aDpxs1ZYtyuyxDuDJ80PW6B3xGNAvOwWH3EjyXqXyQOelVvnVPHzeXlXh9yi3YGUEKS+AwUOEltGD6omM0ksWjK064SBXqQodfowth0qb85JU2TANRvAoQ7qY9b7XUpE5LIVtBQborLm2RO80ad4lte1iBPXi6HXnDte3Wt7+k7fRDMPIqZ8jT1klf6SikZKMXsamaF1bOmtf7QZkl8OfYgLOwcKAdfuEHqKhXsdAInc/w+LfCmzYTmf3vKLSypqGYNuCsiXIhrH6cvguUffjb80eTY9bwTLuw2C4fv14xaUADJ8EkExJtiC1ezDN0dr7uc43QmKG8KOh+5Ax50TNVgqFDXGfvdikrgiLS2JTPQ2zqiesuxjEn9K6dOPLI3JuLx5yFhox0ZJbOX/vJM9N5bj8vve04yevKN7ajv/2KduZ3Xsj5ljvZr8EbsVSGDDBGzqjIheHahKbKyWnEzN4enAEnQjHCdR3fH3Faro5BgWY+ZIGinydIi5fco1325Je31eUv4vuVpAEaR6whTkSAjPy4ZJ8N8W5D982XqZ6WWYOgyluw9W1WNAqci059KHZVx158ecIrAy4jBAl1IlVSlWCybBBEYeGRGnr46i4TwzV24JSpU14qMn7a5aQQuPiyLtRdbhAQ29Bz7PYumHef4KRk5o2rh/i8F30EBvhoyINSs58fEhMnr/HFazba8Rc+rh374GvYxMfmJeabSZubbMhpC6A/o+6KZS1TpjwAhtg48QrIXJWgncLqcTbkcBTzFS/5G96vuJRTmHyngLtBaJHHvHjNCq4UBESWwQiDCIW5q0kv3vgI65W7kG+yr4vtTBKVXMLhIZ5OyISJHvDSrxzDoe0kXYRw4naEw/SJZk4bnDogq7xTTNFED4gpLlJ9Mhi0QiSzhl+06h80mzYCMAHy4zkFW9rH3g42gK0fP9GOveqn2vE/+00MuZkP/4Bg3cYXr7K2Y8dCj55pp/WTgEf3+WfZaF+ZYVinHxMIlC1b0jjB01WSJgAy8aOKtRW+CbKwuL9d9qL388nCL2xnbqKuut5kMvjLY8MhUNbAFRE8yQCXm0jZMmiUb7DLiddvtCQg+TLo9ELXSSVPfMrPGVKcri8q9nC/QhSDZn4kzWhKoCBlpkMobSV5IEuWMuZ8c0uFTzqgS+YA8iYtYpHh4s5L19tnX/AYdodd3w4/9oU8YWAj0qmlHNDqPv3k60yHB5ku7lzj3P5t7chbfrodeyfvPjAP7Ys8UjvvVLxM6ululE9FZzbTEfDXq04ZSQHzAsP508fa4t4r2qVPei2fbrtXW7uBiujwFjIXvNjf1BvAYDNPdPFG2suEqhidYlwhnPKuCAcqeaesITNgaKpS9QICOvj0QmtAuhGPHCJT5wR8coNOg1UjT60jREbpjrBBMwsXk6ByxVLxbsgUS8DO3bp1Gxxw93+YKQs8nckd+gBPe/ZutHOf+4d26r+/pZ37wO/x6PIT2a69vpOFR+iyjyVjEErS1m8mKUOPKN7/D7dZG8Ik8zyBRoCtMp3x5nXJY17V9tyTQ32P7cqIdt55yG+Z3EZEBIvkX3H4llPVEdUVj751V2d4i4NQ2sjZgtg0uXiyqDgRlgaZFAJV8q1HAwsjF/1UIgJhk14+cQRivPHhQk84tAWcR+QjRVU4EppA7wBLBzba557xwHbmHz+IPTTyq7+yXf3s3+ausC/zs3QI0CvOO6x8voiXj63u4UQkTjU68du/0I6+jY+/8gbihrU5BtIplC3lK2cCGlCabgBVQtCY6beDsGqs8Rn0pf1XtEOPf2PbdsXd2ioLjb5cxDkq3qhim1IGu8HJmV/Ja/yMcAamdGiqjGWX0RIUeVyqsoQ1BAltuaS8gBRtxHKJfuERZmCwjXiBhSZ8O/DgBjxyAZQYceUmWVOgMD19sUGQeF0J0Z8VRa97XVOuXNJJ7GBj+F72Ltz6sXbyL9/fjr71pbzS/FneQt3LFnA6aqeeVBJ5SriqvKVkStFFFqrb0Yk/fziyNtE9aYNJj5e9dLvu95R28YN+gE1NLDKecbTapxFJFkzp/KCfJ12ceZI6ECkXXLqyC4DDFnBVZ0Iw5GhSz7/Opohy0wihgOkAFCQFnDKXhQpPnIsCq6JKEoR84EpGweSZyjICwtGNGqwK6NuHN3HL23m6fyWHmT7tQe3UR3+n7dh3RV61XT19tC3su7xd/bKP0OOyXZHvN+ZDsbKSe867piInl1n/bduvae2mlz+qnXWb8zVXsaeAmkHFYIAfhTOzklzTL2zT7w2/0mwsWADBIGv93HHuRNva1b/yKfzd6RTYn5ediVkgM3/41c0pha12AwCF1wi6dItOmEsK0bhy9EUIhz9DywEPDpQuvPjRK22gAsAZQWkWPQn2u6aBTievTvmudVSHLWyOq1FF9HKxDvj0Z/O1ZuMwmUZ8O73wjwwwLFo3pTEyoBt+KSza5BX8rhVEHr7LNyseoMOC0zofcNlxDd/S3H223fBstrd/4MV0Cpx7yQtgPIyGhisZkDoX4U4/6dqB9RV/5Qw7h9Luaam3gJnNxBh/RJY7VcVlzSKFQhwD/QrZ2tEjbenrHtXu8KzntPOf5KSu07x1QqZ6f3LgoleChfURMqAg0IefMht0gqUJvjJQHGFpS5Z4+YpEnuicyRNn3m+uIRgxl6uQpMCVYAsyoBlcnXHCKiKdigZqjh+sE7IqmLSTCPm1lna+Yz9fc3rNk9vJ97227bicdQO38SJ5gVX+9TNH+VbjvduhR/0iFeIyVv2391d50wF0gVkfSO6QrF0rbcdli+2mFz2hnfyTNzDHZOgGLo8kh62xQf1zgybDutlmWl/8oZBTeag4SSwXcGunTjAy2cnHYN7LW4d34zsAzBRhskCSteHfTG8aQGfFlk34MGny0iihmxc+opLP5UucvFeeegZ38F50hRM51fitepP+TipHykZflshVVhkrDERwhONmusuIpLPwg95opV/+sm0ELxA6dMtT+rSDn/saUj+BW4cN6/Kq9kWM0i4n/Im/b7e+4afbqY/8IUcaMIXY6ctgNGNl9Uts6Q16COhilMRPWPkT4vMGeno1CHswqHNTe4/c2pbu8eB26WOvZeRwFXvalUlBUImyRwX7p8YLU/i6mE04cbm6zK0mCJscEeuLxZwOgHjKr5iBF16QbuuUQcAFWoo3FRHJ5p2uBPRYv4bVi25G0DOnw5JYcPrSTOqkJ+LddmEXuXLwVLv15bzi/Edv5hNpu+lJOREZvD2tNcAzAta4I+/8om9iO/Evcse/tG0ch1fBrtuUPHkYDOh8dLV8JedcvOGZ7di72NG4y+8udpcig1ZAWAlXxZOiVpR7qQzhYcbWpEKa3r2snj3Davcd2sWPewVvPH5VW/CtODJBebmbF7tx7dNXSS4qy7+QTac9xGTtlxEv+JARPCQTrWEjuOQJfqIFCwaYjFuYNnUVf+kdLPFSjoZmipOeISuVEfQkeugN/Tw8p1EertAT7QQAib7S3TvkziBMMp/W+B6HR+S5t2NxH498F062k3/z+3xo5/Xt9D/8IW/JMo3glfBFXi+P+el1e1K6qsoUBOK2xjrs814R4M3LJyRxGLTogRnYc/74ybbzS7+hHfyRn2XE8kW8Rs54li3cUyYRLF1hj3Ggh6gqx0l3EQ+88AqG1kjJMEg49W4QpZ4Pms13GYrI+q2z8esDH7ICmGRLL1o8AcP+KhOSkA7Y5BtEVYDKjTEWHvo8kWjnblrvgZX2uWd+d1v9xHt51n8JnYHDMKtW1+GMzOf5GfKdOtbW91/TrnrRhzhim891naYS0Gl4oIfy+yKiyckgDvtomFeeolN4fjv1zp/ng60HsKHTSuMYxARtfrBFo5WEboJJL/F0IIH2Sy8sCXx7kYLnLcnFvYfa4ae/ry1fdiXff4SOisnIEDx2QZpGKLvh4Q/1XeWgiXbC5oC8GfLJRjh88uKkM24R9twioAOo3Tp96710U0UIRkCHyZ/0yMMv5Tt8hcvbL0Eb63ljQJ4QjLAesJKXsPMiXMiUO8Lak7u7iFkiyk7Bc1lEw1wjzcS9mHiFRnC/SWS0yNL/Ik+rFg/c3I6+863t5K/+VFvddqrt3nMRHcig8/GUwwzrgCK4ZEq4JVEBglRBV6PK5Bt04QumpzFmhM66SYwb2nnOkGiX37Xd+UV/wGlMu9rKrezSNPEWrvljoqMZ+QrWWW4VJhr1KsPNdSYOQFVBcwlekeW6+C3lJk1OTOqVuVPOebbwDgGBRXrHylsoDReVyi6aSAqZoBnWresJCd/AGw4frzTvOLTSbnwpI4P//pq2ff9hMsPbu9iuxVAnlsncoRGzyr9+4G7tyue+jcUankHxfoA7AFORGElwwA3v8Xf+ZSadK+q5arld93McjfU/XpNvAeapBEauOQxBQebVsgzd6QIQOOpAyk2sZoUslLVIpG2c0HeGnWusKN7xFZwHsJ1pDSMFiZnxAEcihV951iteL8RKbspF+V1c/OiMrq7buPq1utw8LryGi4WvMostAEMPYXVS84o2anllQ0REl0zkl7T+0skIw9lAJz5h/oaBeqEnkIqeigGwnAT+KFrXBOwAjSYPBryXehcrm2Bd1BPRV2zKfyANSxjdfhr6rrwXcd0n201P/U6+x/Hxtrzftyw564L6loNzIVeKqwMyeksqPUEFummDsNQRrrfrYI4NSMnTDgxZ49yI09uubHd4zZ/y0VqmxJzh6WjGm4adwjrrIe6xcYE8yhGtDdEw5JkegfYjhquuAE1cXNGkPkk+MlA46CmfwnsPPtRSmbWpDSFKHC5MhEtwwMOQiaYUC5Ch52MXROnECOEXOBOi/kW/l3pord3yy09sZ97zS3wFeh+NksVChKkq9gzanuhZ4+RbCGunr2877sY3/B71Ul4SupS5PPd7anjuHnDnwywISdxHUOx4W+K7D8d/6ant+Adfy5t3LFrU6lrs5KKikRNm5tTjDmjITA8B02CFCEt4tBzEmWNtY9eVjBRex7D1Xm3lOLrZXJHT0RRg3oR3yMGrgkqavVi79aUPsNOYd7rJzIpDk+CMfs5rOGXe2QdxRTb9lDfRuRixiQ9gheMPGyfZAKc6M+y+PX5hg7Unb8gWPneCdRE1o5mXTdHEyE6eupipGnHxeX/FsyQvYrv7oaV29O3Pbyd/703M7/+Vergb+SWFEkS4NXBe9iV2ZkJsKq7g58iht6eRqQMF5+jWJ2aNE6dWD9y1XfHE17BF+0uZPvSDbnJW5uCzU5TXaqCLHORX+XTo1mvXNYp28E/1qEiFI9QRu/S66SlD8qCgIKxkqYcz2JRqcKnEJhpXFWBLxZzxhYy4hWI/4aYN0aOjYrsxwyX2q3/uZx/Rzv75m3l8tx+cuw/dAw73kDXUBZahl4AYQgNj+93q8dNt8Uvu3S679rfbBid5+Zku94EskaOekacYyftBFsCRvXT56Xb015/DPoVXciQZdwnnkxClMUMfHvzP5wqvKYZ1WUmgB3Q9w7MK/VpQu/SLePHlVW3bXhYab8YOb39mOkyG+qV7JaeUT3HpLnATL0RFp1/wpJfIvNAVIX6qUESSzTDqK8iylHdyxKUXJi54kSMe+fLqpOuhiga2BQimaCDvDkDkD1zBQ2dkMMyCPc0liAoV+4nH1pJTeLXIDJ2joSX3MDB8Xz8M8MhH261sbFr9n7/bNi7en4XHpI2E1jhB9nJlg6INV7zwF/pFl0ejJCS7Gj3Qh/GAexUWDn1xO/yEN7Xlw9e0tc9wM+HFKNNrftghlEv6KjKDpyylB1fhsql8cTrTrqu8ro4m+uZbl6tSdKmdacu1JOP3O68G9Lm8OSL/hTJScUZBlWI7AkXR3GPcrjsvtOue+9B27i9+k0UWvqhs4+UWuuhLIaE0BWqSy46qp8h4D3EVRQpXfI+envbyV3+otc8CuhUZbBKyM/KO6pt16RowzI5hhUebe6/kmwov+m/tlve/rO08dHVbplNYTWKirg/r4RWUO4Vh5HRrOk3SHRNQBNJVCTuE+L7OeJIdltsO8JbkP3I0IW/H3QSedNovVAEqaSQj9vZIl1/wLToHvTDz1ryWJ542jnh4BqN2S5ByITjXYdR4SKQhoIjQCwxCgCDTOLpNiEI38JkKBABcX/iml3DQXKIDfOwhnseIRTt4p7wtuBLEjXplXVRHdXpW+AGS0il7d/Lwc39KP/2bGkSlWKRjWGXB+aKrVtv1b39LO/XKH2Hr+37eRuXlOA6w5RtiSUK/TShkJChSDdftIybNykI4eHVKazBGOh/wxtPHv5xr3c6eOYktF7erXvvPbfEMfD594MQZb04euRenHAXhW44myzpddXIyq2jAh4a4oBJjMAAzSRdk9/uiYqDAh6LJH3C9qSINWBV08lo+afhVJYrhKKy4uBDIQH6IWPY78AdOt1ve9DPt5LtezDsH+0GQ+WYCtWrR23sn3WK/uWBn4AYjG10+r85wPy/BoOTcyZvbji+7X7v08a9k6nCQDCbjo3NkkDK1GT3UBU5eosivWWw3PudhbeUv3sbxXxztEwa1x3IDqdymx/yr9Adh3AAXK00I9DNPIuokkLxYP87wcOEQ+yfeA/aubJiBJ2mRucuI7B7dUh7KnJeB+qQtt8UeEJsdNmGJU1D4hudOWk1VGH6Vl1HrrksqsogXl9o+oweyhUdayXSGdRU3PDXuAg6GyQbg2p61FSss8cjxQhqSFnnBlfyCF106hFl6Y3vpBq4N0lg8Sa9lw1LV0rZVTsRaakc+8ift5CufyFF1/8TRdZyt4ecDk3CElFPZZAyysCkyBQ+aYX5iIa9Q7O/di0bEDjqINRfItx1qlz2PR9aewnTajoN/04qAkpuymulR7Kb8jvAGWPQJFIFAwomWP/Ik8K94NeuvEBXBppTBCO42gkFd6KpCzvJoslLZ5Zym+6EPzxZYvpT52+sf347/wevbMkdseWTWGm/8VIGZoVtcjMQeEzK3qyxMOrhQk1ePnm47vvq+7dDjXtmWXMV1TSFGIhESRwc+ErLzcU7Z+KbC9qsX21HWME68+7V8rIMzDLl9p8NJ7ng/1M1TE0CHIUMx6a1tSTM699MHzmrR6skTbfvBu7UDT3glI5m78wyU/t/OBxbvJ/PCT3IVNaQlWOqDBDHwmYYBC5iLYJNrZVN3OggLHrh3YStMNg+BXEqr76OaZG4qE9Y4fcrrxTDhLI+8I2KESpPOz/DQE+HGkS9x2ZvyQk/vxumch33pYKTXaZguhhPVZqKCU6dmuEIEJ82glSQORMQJH0TRSbzgtXFKXm9Q5pPhNerlEsforx7/RDv+1pe0M3/8RqaSrC+x4OiU3zrRD8gljLBKw1AT9ZuWj+gWz1JGkZkpk3ckA96w+HrY+ZtOtIt+8JVt/32+hw/QsobGDUO1cyebTtN1k24AyWuBIkEUrSBh4RE4Mc1opJ+mDEbmhdz5J4Hh52IGmHGVwdEDPJUl2jpOeNyglV9XlcEnvwuch3jqNZxd8Psvbm3/JW0Hgld4ZCeN9FWYZfy0q2zoicBxybxfXm4txbfKScDLd/oP7YoXvJP354Efx0qf95oIiVJpsWPcLjaW6UQuZmfkG5/ZTvzeL7XlSy5J54XUnr/Jn02t2qgrc2JzB3ElZkYFORpPGLDjzPm2ePkXtSue9WYazx3aCq9OLzCtWOc5tZtl0lHJL6826hNNHivDyouXdIoCz67c7sAZ5JwR5sg0ciag/q3R03ie4yJf0bb9e2iLR6NzbitPYFhLkQo4J6+nU6qhtGc0eGDrhpvCONcxC2EoXNhG74bvsNcP6Gprkotv5bZP9KTmNQpzmc4glVoYSoKTJYmAXl7D/mwfJkA5OmE644RT/wIYF2nlGXQh4zLIuxhwsW3GF30zooqnasi1k41sl6+04+/6tXbLq3+CvTCkfYkDbfjqd47IR1amKuoeRtnUdYpNcMjPTWUYkEVK6HO6Fob3uzGE5Pv5Ize2S378V9uue31ra7ewcW6F+uATKXXoTAfeEJt0Jw87qpthvsaATmi6Yp7wIScw0Lrgutm93U2fg1cZgkpWhjFmtkz8nKtE4GAWblCD5JNoKmCROnH8vEPpKyPCpOVvfS+vsB441q5/wePb2l+9lQM22RPgaUJUMBcNpzmqbAhQT2+ao94AS4aKJ2U+xstnxiD0vFzP61s98rm2fOd7t6ue/552/nPscDzFDgbSxfQ9QuwLYhO+bWSVU4K335Hpw08/hENA38nBrZeC5y7O0MY9Cn2JCWJ0JN2wa1U6U2Vio250IRUNfW8MyFkmjUdPsP36i9ud3vz77eynmaIcw14a6DrfXsjdgjxI3iIrIr0MW/WSr/qQO6rYzoGsa27bpZDWOSZ6YS/bYi8irZyGvEzCltjfsUI68mFbDGdqzAo3HcCNZzg+ne8OcAyYld1zCv3I9sKeS0k7+zr4TuUS+biD5/dnKa/tnHx99wp7YgAAMBVJREFUnue4KxwRv3iK/fgnaez8tjHsyNoPRnqIbE3R3BWWw1LJaPM6T1eo5NbNJMdMTIcM4EI3S+/I1uS5/Y91SgGSVK22TgnpsKkoEg9/yYO/GodITUh+ahS/BU+Q5ji7JXe0fQHp/cu3tiMvfDTH5XHgLh+l8Z7i0fH5TB+yok87hitdqR9DZ+FCLY9lQR31OxvrLiTdeoqNbK/lbMYHtrMfFUMNhs6OtKeKAGTVBu1UxZkXIRhpIDbRmaZE8TMqlJ/fAEeW8XTQ4pThl5uSKV3OpDxlBAH/XQGBSbeMwgtgJITDD1KCTidK42IgeR1SLub3tn0EdtzAJ9+f0s5+6K1MHdgkQsPeFNFDXkuOhidh+kMHXpc7MYJB1xI5tnr6SFv+ivu1yx7+orbKmoK1VTK1uP7QF3cA2Al5d6NhcbxB+9yLf7id+JPfatt2c2ew8LiLZ3V46JpUEY8zgRr3eZwYmgoko/Nizrh44MvapT/5ahrul7QNjvP2AFIbSEQhrnSEl0g1BBObCkcZaG/jewdLnkd4ghOMz3JQKVuol44dpcHf1FY++5l2/vpPMj35JFupbyDfWcBi56fP3Df4jsMiZxqqSdmkEtF0WGSwX3Xyew75jqbfhuBjM4v7v6Btu8Pd2vY7filfqNrHxi7m2Bcd4MnQYd7wvJwKuoNODRmU7cI5DHY44lMeR2/UvIw80JNsMnGGSQNe0uNNQzsGCugsDNA0hzaYHh7BENpBymz9COHwqqpKOw8b15VMG1zqKjDPq1hcW2nbD29r5z/+gXbkdc9s5zlSf3HvXhoRSIzxRlW8czmGN103xqs861SybJsmutHOeixjO/D917a93/C9be3T3LToDOx0+ktxBEzzUJIyF2R8pniqeiohDeajeRA6QFsqUsXhlzw0Zgpu2rrco5vXylD9CwshhoR70A8aY2V4hdODEamEyKvxKXQzn0q37SIq5rab25GXXdvO/sXr2sZ+KhqN1j3gKb0IUwg/+Gf5IGar04BRoqnU8KyxmLfAqUaXPuEXeYJwZS8QKmefgtAhINhpg2cr+FUA1Sx7IvDlnOf3y9e24+97FR0V21yZX8ZlrGhIS7x2i1RrcHg9ktjMZpFisDP6T55kWnMv7g4voWHemWkNDbXXtanmdi09WUme/JHCBXnb96+3I7/+M4yAPsqBIf/a1m/9LG9fnqQyc3deZu6LYY4ivONk+EFhLPCRFO3NYJ5CilnaxEJuX+NRQ/9xE8uZEx6nbuNeIh88o2INesdiG9v28FHUy3nV/Oq2cfAwX8L+QraUfz2bv76MV/x2MvJaa+eOI/c0/Bjio75FxsJTNg5NI2s0sjvVA4ydhMUPUCp76uWMKXgJ/g03yYE29Rz6iCF/7BCSTZga+5RHHV06SCd59oZ29HU/3U5+iEN2L9pPnXbIbwfa3SR3xG/P02ZUdIWrfFzjyLm27wmvarv//YOZJvACFL2AetOgFYzQdHIEq03KHqXQJQ+gi+4kItgpz4wFzCV25tJphDidMcHWK91tdyrKPRQoKYTCyKAtjdNck25Ok5QOGOi4wRs6K7qdADBJzfwM3RG0uGe17bpypX3mZx7L48df5UvKl/DW6BCI0b4x5qKgd/SpFE2EMP5UE4O82rjNURN6041t6aovbYef+3tsXmI32Apz2tyxpCFZ9Ez1CMoG6vkF2qfonYxv1+54pt3ykv/WTr33NW3HFXQm52kMaostUo30mBeG+Wl13TeMu74RgaaDPLA3dH+C7/LTLjlIg9N1Lr1Hu+KXfqstfJYF0KPQkDHJe/NZ14V2BYhLhRFOeJlNXauf+gPy7gFtx0Hu1ghd4VNs3oXca8EYIPTp+sibdSp4uoBhs0abg1GhbeD9NqSc2QdCqCeBPAsRnQGji3T2dtziWVNYO0s6zvLZt3NoxIYNRg6LbM/dd+/vbHu/7kE8Y9/HIbXk+Une9PPIOQTEPvLEtCrbjsv8T37h9fzr+MAHKtkCTxoJROHFL1Z9nXK10xuQPJofXpFJdU93j/W6YFrVry99hAJYZI1p+Zr1duOLntJO/+Evs6v2sNtWgp7LlV0dQwx4rZGC8tcQDeKA2LVbTrdLfuHdbe+d7s05DtDQE0QOwaSVSGy37ckNW9KjYMkVpU/UfKhqJmweDjmXOb3ydMH1YGzefNtxAPWQ1y/R1JUJKhe8ChLoiqYKOohEya6wKQxgTqeBzl9MgBVheYnFtoNH2g2/8BPt/N+9kwUwanpyodN0gV1msjcKVFKODHWy5Hvv3B3bsZO8UHaXdvlz/7wtnaSH55sHyzS0NOlhlB2UQ0MbcHpL/H60O/ZTeIys2/YrF9r1z/5OpjS/kyO6vCtawDaiMqF3EiM2yxjTZnmmAyDBUTtKS5yrzL7ltnKSF7Uu/qp2ySvexPoC269P0vhCPdJmPlkhsDediqpGJmywgrj7Sxc4WPa3ecX7kQxp0UjDz6lAsbUzqy5PVPA1wRJyZJR3QrDBjtXO0XWIfE1KIo0kPZabs15nJ9npByyds52GckLD4oBvEtKh+Bm5Bb7YtHaebcInOZPC7ytcfq924Bsf3vZ8zb/j5bUr2vk1dpSy0LvEYqUr93Ys7tu1XiCyN3I7J03lKjh2a1IgwydSd/OYS7zzdHwiMswcWRkZkZNLR0aLQshCi3EUVdZIzlOvFllj2nHlNt6afVw79Ue/wrsRVBDOcqzWVvZNqiIjORSQdm3w4Y3Vle3twCNf1vbf8wHt7GeokT7NsVpJgG6DXlJ3LHPjZac0uNJlfhUqcC+jriQepeqFh7C06pE/HaW0wsT7XYaKhKiYJfg/uTBBIP3cFVzYhbgZnWR2Bma6haNLhbyIBrJ6XTv2S09op//23Wz35WOl0HinCj0V2MP21rkz9VTAaCpJmUO4NQ6j8AvH67xRtude39IOPPYVbfHoPr45yGfTqNVVEaJQudiA1y/J2cSI90qujg1OXtp+1Xq7+aVPbKc++Ma2Y89uCsoiMxVeqfyRVZU34OliGiUdkjvcCDa7gOp9wQ5jlb3t27/4Pu3go19A/M58tAUcNve5LCLmxg+ZEZYwn1Pzq9MsgN34skfyJic28f1EXqNLWrqlUkNsTRj2pE+JkG7fJl0Hlhp93YQ3MAP6GE9AXXuemC99SL3BiGXjvF+ppqPmg7Pb7vBVbec9v75tu+Nd2+4vuw/9yAHeAoSfd34yRdFMy9qVXjK3cjami5vZos551hANwZYGIFE5mXXAZsEO41qwAEZEWdY/Co11HkZejBROvP11/H6OVssCMWlSoOReXUBOHSJsDvROFyQfzXXd+OAPvJSnCf8fi95839Ia0Bkh6G6orWj31T8ai0FvZqpJeEZ5gaieHuliP3wlnHhAxMNDZFpUVN6MblBuAmUMk/4UICKikATjCl9x/NuAVA5Q1j4MJUxiU318/Xn3DXyN6WfYKPTGDD19g9HK4VmIMuZuMiqh1SVt2dsn6HUOotj9NQ9olzzyF/hKLy9InaED4Q4FlkLdNDZlNmwcbaTfFWIvd0sItCnfC9i20tYOn2onXvM09k28gcNaDlLI6kMhUxAXy3T9mmDS1mH9DjHhDGCGlqThYJnseRR1ilen73IfXul+MRus+P6AH3FBhydNO5IwDZHDpZIS2/mW2gKHN267ZJ07zh+3G57x3WxuoRFuv4h6ia+d1DobLtfJtpLR7dSenj/qqJzqfk9DWSy9LnQKQf4mfdfRJZQcMlJidZNvWbg8J99a23X4S9q2L/+Pbe/9fqztvJIvVn+OpbZj5D9HmK+xHcSNnukMEaGSISbpT1ixMxc7QOiXUakqcxrwNiiF9SmduWK4w/V1gSVEmsi/3ilT+3jisG0/Owz/5l1seX4SdYEF4m28B2FeSAenay0uWANAMPXP70ic2miHnvHrbedd/u+2ylF7nqq1wTS2nMVUNicdXOIjJmU1CMOhKuLyaG9umOKBR47w4h/wJMgwThkTvzzCpg+1EAEWlwoGtvwoADPyL3Qms5x8E61AAaPwKqoynX7oCUQfF++1fQCunI7wk+pLX3KuHXn649q5v/6VtnDJ4czvmRMgg8G0jyfTt5pTfa7r8Gf5xhvbxt2/uV3xwne01f/FU4zzi3mt2htluaoclpUzjJ4T+PCXnTHOeAYiBLBrcdvZtv0OO2hsD2pH/+LdbefhS6kkVFx6tD6NqESNtA3RlWgriR1ehoHB0ciQm7srJRi7EOH+iaU7fiNrCr/JZ83IH+6c2TOAGaaR/9B6V0k/BGCBlWrH82vky7arWRX/hw+0G575YJ7isP2WxZI+DuwdaTpFeLVLeSXDrE85gionWbm0e7NbAxIZjYho0oAAUcrteUxMoTgbUkLwyWW++Uh0gx1hG3zt+jxfi162YXzpt7SDP/qzbc9dv7itsu187SYWVDbo1FjsVKVrTt4TrIyWX+WZitUtKiqN6ABIUw0tYPhSmfGSlkEXD4JhcnirkVlPKp9k9hubCytYz9OoM//wnnbjk8nrS3gXZqcf5eXr3T5JoH56RsYyHaCPfFdOnG6XvfD9bc/V92rn/wUZljk/y8B6NuV92aftMxu13bhOP+WvvYS103gcvvcqifqopuPMr6y1iJJGXvNw0CqnP2UgYKRfIieZovxkWAJEhhCjkzNi4QzgJMd4NHQ/BshUMMM4yUIq3N/MwIVdDC933tiOvOpZ7AlgN+OeS8DbfVAYjitxU6by+GyJufTSvb+7Xfro5/HxFCoee8JdUJOj9+wEJoVy44ir1kvs6KCkJwUkEJfBAER+rHT74cX2med8bzv3oXdh095OK83IhJITxgsu6hoiu07Smwox0dGozPQzt7JST+PwQNnFq9sSjWOdoeq6q/QK0V4EGTTPfIGrC4b/HB84uYY1hb/61Xb0lT+ehrd9g9d9+XqxsklFSDPesPYPOWXXlgY12UVA0ijsowWbvzwBxe8SMGeCzfHBIkD70xCg8+6fdQORrPus3MLxeEs72uLd7tMO3f9hbdudvpy78TXcWSlLV/BcQLFlUiB2r3F4kdljm1fJKlsKOmBTVOPVzc+02ah6GuUlfWSyMkJjw5klzpHFEi1uGwcAn/nYh9qtL3kEJ3ldx6bG3aO/gdiNF4yEVnjac/gRL2m7vvy+beV68oDWqSgbqfJVMYpi02btEqePyxRh6E/ZgwuJl9GoQyht8RJWttEBIrTp5nShqTWEC4kvjCvNjFJ4ek3ihidHZBIuc7kwdN4ClYWiSs+0qESCTbhwj9le3s9C445T7Za3/Dxn77+YA1M9dZXeF+ZaIFvnWbHPvPc+8NFt//1+mLvNxW2ZQvBdCPNJPRZ09JXSAS9TBZddBUvF4BJbuObuTmQHL0QtXMkTo5c/ie8P8gYjNtlhpHMaYhR3e26mfqRdSJUyMih910LMy/Wzp3il+z+1fT/07Lbt3Bew/oiScafUplQg2fmZZ+ZHhr/Usux4PMzjvr/93XbkBbyss53l/Z18ct2pVxKKh/NubXxuVxBAZk2ugy64ds4LgImaZ3YXvRy3+sKV3Ln7JIic1Swe8aSZ2DEwalih/Hdf9eVt59c9sO35pofQMfDNhSPcdd3fQKdgUj6fDVNdvMCGYtCmuCFAz5/1xYBlP3UEwoiL9zJ1FBBnpMMXw5b3L/Gx2j9qR179JA7v/Hh/jRpaT8/aOL3aLn8yT87+r29tK0cw3UeL8tK3Vd4YSMMfAHUnDV11DAtKI2Y0PikLbdHhF96gMiT3Iqsu8R7cAhM/bV1O5dJIBfDLzjsiyZjBrCfTZIAFgnQzUbgXcSnbAQu9OFxo8OcJl18B6nXxbCm3SwURpnP1ceMaI4VdV6+3o296fjvy1mezt9zNRTZPKt65sxzNfrRd9MTXtYu+7j/zmHEHq9vwU2HMdB/r+SixbCxfe+LUr2H4SXeHJhGxTby4UfkktaNyfr7Nk51e9niOeXt9237poU4EbWigi1gukaMYcQKHSxBAf+4vziE/qrWbxu+wdJXKtP0u39qufNbL2umbSdvYaanwGg5GLnm1kEcA6hGJTy+x45rFdu4Tf9NueNq38dgMOJ8/SxkNQ8wPmljnAb3ZlDXSxAMcbh6bh0WnLGa0xXOhH7UxgPJzdNBNZSSnRKP47GpyFJNHxz6FOc2TCr6jefH3/Fzb/YAH8biOfLkZS51iuGYau7ss2bW4RoTmfZfc6RIJAXARlmtVCuG4gOUrOmADFZ7UE3iSFvpZp6MOXJZ30pGd+Fi76VkPZBp0E/m9q507sdqueNGftR2Hv7Cdv9lt3OY39DYSdOTRN0HDsWfo3FQIfMAKJXns4SJPwoogbMR4bFSmYcFcpnwi3omGF4IO64uKVh6AqWAjXFqSoUNJFMlcjnCiIsoZJtFTIszwQRd+M4KKUCwxfPBO5VJI6Qy7oLZ8ri1fsd6Ov/qZ7ej7X86HQPdxx2Sudv5Au+Rpb2o7v+xr2so/aw8VBSYLORnk2oGCdcjSFp16k5nGS5/BgscHOXLRoV1PLD7OaFtineMaPhvHmsKpD7+HDVYXQ++KMaOJIcjdeeuUfnTJg9zJBqJb1Jcd2JugF36rt97adtzjge2Sp7yM17kZjZzkASA1yRV83UhSD0OftA/eBaZRy3di1Pqhd7dbXvwjjLbYs8yjQffjO4O38+hSekcX+7jIrtwqR4VLt5mVW7uALemQeObmOOU5Ycm0qGhKGX7gMGRSQ0a5iXeRtK6dO8ndlXdTrrlHu+Thz2n7/t1Xs6+Ej+/wmvA6e/7X2EjmrtRuM/N27sL2Nxod/V50Q1fSNaKdgIh1RjxueFP6U4cL2ElKVMrTTnzN1n4Fj6mv+1/tM0/6hnaeR6aXP/3Nbded7sNuUUZFju6QoaxMTZBjm6tBm+ILr/DYbYaLMA4gNETjiCQ+4AUulopHjhGJh5vqoLwW7CCaFhUDEKgrRT1226tCoImMWNRJij0IQUUzkzAjn0FDmvgkg5jHYptzgcnI48bl3cfasd96XjvF69KLV9y1XfyoV7Rdd7wn8zI2wjgqkI9LFWzZICLiSHwyYxgSejUTNyPDKy1xcRMt4cTx48Bn4yKPJJeu4JXZl/5YO/nHb+7bnGHOcJZGl+Fl8eBvyhgGzHAFSaUg3X2xkQ4OwAqPJHd+5YPawR/+KWreVXyEhPuMmxAxWr48fJnJigwQ3oV9cWrboY126q/fwSarx/DY/CQjBRbqaC12CpVf2mYubHYRZdHc7k0lm9hNWIW25N0FhKOvLNLum9Gj0HoedWt66iiXlC07Sc+cYZ5+tu34kge0A//lISw8f1NbOM3eB1bvuf9COMSZdvKm8kHo3IyEu6KeOPBpcPLN4RKWK/hMkGabHmdzNiyfoCxcTnn900c4Mu+f29573bct8GLdKo8lS+6MvSR3H0TVN1XFjcAWnrIDAnVXpYr8znW7V0nNBOt5wjPZoiLWNYTKqbnBIQhXpzQ4+Itcki544KaChjDCYZrzTRGQ1SulDgzBc1pl5U6nbBFIzPZi30Q9dL7d9Pqfa3u/5uvb9i/42pxA5Im2eSRpoUA91S91wW/aJljkKRM4uUNdm9wwBeL8dz7pBoX1LfYMPs9t2GBL746DZ9utb3pGO/7eV2WXpWcgOGSPc3w4BMxUAfJOXJI7qfhACPS76BhtAF0/c65t/4r7toOPvJbju3kTk6PntdN1q/65uM6bSqIcBNnYXbjbYDqxwH6ntU//afv0M76n7eQx2QILon3nnHxly6ZFW21FzrDNsUHu4GVruLsMQMOZii5hMzRQU0EUbffN1+iQATfny5jFPLWwnFaycMqkjQb3/7R9//XpHIfHl7zc4MOLV56OlTQrbMjRjzVcUs8rLkI34FsapAwW4ZATMuK9Plbqhp2YFLPlQcgCj6mzIMnoxXUbwemgkGVYN4knoN6MGkpOEYRydkF/la/Q0rklS5WhzImg8xsv+DwPlBFa/emxYxkyMGEGFn8wyKgF5k+GOcIF8ptnUsLASkaMMDKExXijc+FTRiswxd8TS0wXnUDM5CUa2iqbcBY5pnmdRZoNjptixJjTkNShXOuMAirzYgNxwaVWuRZSn9QBL+SMRv5k3pBl2w6dfLQ2G5wSbfy77rDW/vVZD2WX5VvYdXhN33oNPluuS+kFvlFFlR7TaW+ZBUKMyw5AU5959VJe1Np5j4e0q1/wynbq78DzWJWHB6xiy4jTTm1SEH6CKEgDQdk6j8mWj/1l+9fHPJCZAwu22/dxd6PykhAXM9eZEPdTfYaw5JZhU9ltNWS3kSwYcPV0bVIZ6l2MCevl3SmCHBchnXoAjCSzO9Rr8iZg84AJBMNwO9tsWmIq4bc1fTno0kf/Rtv3rd/aTn8KvezyXOeNTR9RTiKHMsvLulDWVFzCaiSGk4elXyG43KBmvAPc0wdzvbiVrB+Gq8fXwFUqXPDcKUOaKn99AcK68QZwQ2/Zq31TBwKu7JU08mRRTowROosbESfM8NCpl8eOQXjBzRuOoJm84CdmuLfwgY3cIbwTb16T4IrCKJmXamyG56zBD/oqqOC5LFEx3H6sbT72OU+q3c2oSzK4xLYO6jDC88yu8MRjABnzjBVUrvIlRhbd0FM6l/jq9A7mkNf91EPb2Q+/nUUmn5+ziIeQuT0ls6fYq81nq7Pj06VhWdnoJFzotVau3nqU7b/f1y7+kWcwdeD9DDoFK+Ng6bqGwJJL28kUB+62cRibPvbudtNLHsvCHBtqOCosQ96hMR7qo86IpgxB3apuV6eTcAtJwJJLG3oM6+nofKOrmBpBGOpiIqrAC4afhVILB7SdZGRn4RUcK/nrJ89wIM5/bvu/7ymcrfElfAtDLX3ObkWhyvT8GeKTVyNN3ciuVrmxfQQqHFIuhTeQxqmNApGfxjf0pDEO4rzlOWy2Hs1lbdFdcvRxyQoD6h2wypot2QTONYzIlm7QT7TKKCfeH/S6skdQ+OqxYxGVETEglnempKIUyTwUJzgLqyC0IoaLMsKKm8tVRmBeEriAdcB6I6VKKdyKTUp7b2yhw+PFtQZ9HX4qwAgHxkVx5Yq09AovvLh5hgcOMHYQ6XPFThO+rF51O7bt4a5Np3DrKx/bjr2Xbc68JQkkdpYOO7LSJUxlSVMi/TItGJLW4OzxeNlLu3xYcI5NLq4pXPz9T2OdgE/Rs6MxoxdwcSjoOhjFWPgsOfiORs9/Oi6OeTj3sfe161/4Iwwv2Ai1l1122ctg48WkLuU214Jvsf82VP82QDm3J6N0X4jP9Amg9vtjwMS6gt2MgsxfXkQ7fZZvYNyl7fq2H2z7vvmH2pqjR47k90mVKQqt/ARSVwLo8hSjSyOCRje8hAfpNEq4EB/iiQjeWYMrfbFb3ZE49E4RgCMcTzs3QZthkAWv2dMEEDc6vy138mJAnsGiH+qmuLhphFDGzOgNhte0hViAUoiYcSpPfMBEm9v5dBU08gTFJQUAwKF8yifE0EiEKxGTL7984CKn4vrhGBeMKxlCahg1KUdACgKmyFJmCYVeHXOB2lnyox98FaSMSwB9RLbBgqFtNFMT8iFpsheilHy5Z/nQSY5je3I78/7XsnH9II2Rea2CIFRu+KLIC7DIsmJr0FYXCi7xQTsj9ckFL2i07V/5QDa8/Hw7feQiHmkx5KdQMmOFTpnamt2fVVZ0T770xPpsW2Sf1/rJv2/XP+0hzLduYKTAkwc7VtQvQGMHvAShX1c2btqcGsV++fP8DJ2xrD/OUY1xF0STz8pSIrKSj6bD6EhidCVhHWBQJzw4IzCYM6gMr3LiIOhlGY25SXB6S07f3v6V39YufRQLz4t8y/EmFh01Dz6LSH/utCe2DaB6dSGTRz0VxzdseadO4xdd5AuXVuAcJ1wY+sv+LfySS08Gyh/eIaPouuDO39M96KTHyRdbDA9eAdpqu9DF7h7MVfiUFiC9Q9AQpWlMSS0YDAVSQoWTsdBHj3xmNM64NEmc8dyZZgiCn9epS70QKAOxm5kok4iBLBoTPoEHb624V8VL2opImaNSqCMvTuHHCZAOZyaFj4rkSc2NI8S2c27DCnPTxXPbObMRXhY4LcBFThpa4SOvDsuTuTyOXOAA2YVreMX9aQ9tx/7n23lMehl1wTkwDY27WxntTNzJj41GNZMzXdiZghVo3AtEOVHKeTQGrt56rG37hoe2q5/w3HbuUwz9TyOLLcGZUqVM4Bnlk4pIVBk+wfEdh/WLaSzX/WW78dkPYypGp8B+/DUMDNmouS4hWotROToBohjW7bWxYhMJz5QGYE6uIpMzypEIguQlQQPhkI5ovUcQlBdcWMKADiMdEhlTfggeLnLCRIKx0zMqV47ewIlPd2+Hf/KlPKr8qnb+0yw0nGcR1o7B5OCpIuJdl7BlEBFezuQ7lSqgOPWnjup3dcO6QacM+Wayii9yVThokpZBJ7gb0/kTlVH92Dv5gz5mySROn8TkXQuD8uEik3BGK/ghAy466TAMMPFB3xcViZSbhEVaQfGLCz8ZWdIHSaGNKqMXZKcVdpuCLDkiJ7dVaGQOwRWuQhzgmFXh6CRS+pMWRN5uUgZTPHm0oQiNBIDPMHqJWrGN/QYnP/S2tvLJT7SLvuOH2RjDvnWG6ero+UGBpHfpFd7r4k74rtpoN7/oke3UH/86r8qypqDcjPW6jqxEj8wyj5T1f3bDsPKoletHj7ad//5hbf/Dn8J8mvcrztMLU1EcZtfagmJjZxTYtYBjA9ciC4uNNYXVj7Km8As8kly9hRfLSJsZkFozaty4jeTOT4/bK1SaNpKQg1yTET2zBFRyNNdfcUiSPIolxgpv6EIpwjad2HkXukmNhvSi0rJOcuYEneeOdskjntd23uv+vOhG/ruRKLaycAtjisIk6ognjwjG1m5wUNNlU9kEMnAbUk2BVvILk6M6G/SF8Cku08j2OZk6ogjPvI78AEXg5FNvIkQNVKclHHxgnSz0g6UzKTOPHSEQUS4CMSh3UoGThk5xew1OkhI+lxXeASh80SbOJY0EfjtpjdZNOggP0GSGeCtT7pg9koROZpYCcLNgjwhDoDIneiKOZMw8Myxw7uJp3xxMunyHhXb6d1/Zbn3z81jAO9/2POAR7dD3Pqud/xQsVLBMnWCP0CE4Ge+cf9di23XZqXb9azi49X2v4i1JhrC8d5EB8MQoc7/j1lVhlQclOnZ5SQeSWGjMh/MnT7U9X/uQdvChT2MmwdHznH0Y/sE8l2U4DjneARe203HtZyp005+1z137o23jln/KW3iZfJgeFi3WeF9/aWEbJ0kxwiG8QENz+pCj8BVCWu18evJVAKzn5GZex3ag+ElCjBjAhLde5ph5WCr16IR7KXlF131sIq/Xz59oB77uoW3vdz2Z3Zw8nuQDPhkqw+pochS9kubtcLI7ZanCmdKkE97oSSTsnUag+Yo/R0lRfAYM6yS/PVeNdyKUCOLQe1HGEKI3+myp4lLOm8UwgAOpN3iHqF73p30IQCNcIn/ROnmJTrIHbRXspHh0fZkHIWPoC29EcpF2c/5MXDr40hGo07g/wiYwdzoz1w6KeHQJl7bciMd+4KJqyJY2B39w6pEH+rAMGQl76ajQ+C6Ah5Vuv+Myx5P9bDv2+mvbzsvYicji1erNJ9re//Sjbf/jf65tfKLLtPNkWaHrrg+BOMRG57qHalyx0W7kW5In/5STlw5e6eQ+6Z7yFMndHBioTZW3Auf25Q4I0vfrFeAw3bu2r3Gtnzzddt/nB9vhn3huO/t3HE6yxuGtDJEr7xDc5ao0anhfFAPd2u2pzSskb+MUZzB++CPIPc905DiPdT/Ni2Ifa6vXAzv+cR57Hs+ZE0vsa9jYRaezbW9b2rmHqQQdhIYyr9iwl4wCFY7fBfkLNOmyY0dKwsLKyZZ0T/6WW8BWevIjWBgmvlQoOl7yaG1xJ988uLltv+zu7Yprf4PsPdRWboB4mTUTOjF5FJhsGQLUbRbpm9VzGkBTPlq+0gy2hLOIC0C4LqOQEQltMRTT8KvMjU4Ch5y0k6IDbV5nOq7vD5idnEqVUy50A550gE/bGgQpsxnfNEIoAUqeiMihufCJhoBC41AwGT9AhRrR4EtmRnTqGMhkekWEAUhZDsNLViVsKhxpB188CQlM9OJxiUtAIDabJpXqqmGI5zdPk+f+bbvKY7hf0U684afa0gFX4R1v0upZB1hhO/H+Bz217fuOH2vrn2aI7ZHmykNPCsjbjjKBhYWNEtuvWWvXXfsw3tx8R16ICvFkcchnsS6r0qjQPm83RV1Rf/DKXVAIGw14Y5xDVniv43685PWwJ7XV6zhxih1LzulLTtIoA26RXtNpjh2CeVKjpMXLIeAdkB3Y7DHqPke34q/xwZt2htX86/+ZMxc+0s7/44c4fPRv+R7hjYxKbqKvYmFlYRdrKzCnwBSKopEvkxEABcdurg7/y6V8h30F09/aHcwxtw2P7qHP/+kQtzOCcSSweuIUW5wPtMM/+/a296K78dVlOgQ71Yxs0ECLwuLYrAlV91N352qC7ICyfKo7gsEnfTM6wcoLqOD6uOH1CAZkZA5t2gHQ6PBiXRJuGKYpW6UZsElWBaQH7yVFMgsbFB78oN/SIVRlieFFAI/BMBk2UMoIxv0bsC1oIlviF8pCoHjdHBVYIQZyjpcpaIEEtiRe0CDewkMkp9uKh8f9IysQLu2k8fJ9hpt/7ent9Dt+kTk1py7TCWSYqQBahyvvHtW970FP5A3LH6DxMQ9f90OdXVa2NVu7IEt+Al/cQaO9kiPef/nx7dzvvYE34jz9w2Kl9zBjkZ27OZDbd/1O2q89f+CKy6vX2ubQ4whrCvd9VDvwoMfSiC/N24HZeETG9Of5kKmOn/2WSYkjYqfi6Ehbsg2XpyMb7tF3RMB5cjmiHbq8OyAzmbZ66mRb/+zftdVPf6id+5d/aSsf/TAfHPkwI7zz5CUd0nbSyaGq6vGjNbmrKh8j7M7Mn+TTrOPqBs2vJq5SW3DjSXQBJt888iU0hXvQTaV37dxpdjPubft+7Plt7z3vz5Z3pz9Or7r8kBLWtmibqY0mRQ4thUqHUcCBM2p9KXD5mhs5ApSFP/EHMQTghWfQ2VPVFD6gAU/eKUpZ+l50Fe+xrdcZjYiKGsjbjiMvumHFKhKhk40G5JwARIlXdI4Kn4ByI1w0iQ7GFADhkiPLFjri4kbbmpCRwSWZOQgqHSWsZIZWwTNBlXGsO/sJvTyGC/8eWsRFJ9v1L34spzW9lSPcDtBIqTAospL0TPGeRpXjVBKODWyXfTfTift/bzv/CVoI/+aL9jKtTti3EN1WnRX17Wc5en21HX3NT7ZbeXV698UXkwaG+zA5vPXDKM7FdVlwVCt2IyoyN9M07AllqHvjwq7czTnHcNc3Prxd+vCncjdnpACjr/vwoi5DWKdD6IueXvWrUlYFU2LlrdZgminOXVSEldPHjqn0MvFkY2E7uvdwfuLazbyIdF078xd/2Y6//41t/V8/nHWKpYtY1NvBB0gcmYSRdGNVP8XKlNk92MvoeoM0lYb1Uld6TIJgEvi8l55H2u9PFxmM9OycDjz42nbxd3x/O/kx8EFAVRndVWaGlrSXfs0ZbhYsKwu16UtkZcBpg3kaVYM5sAlpoDvhurmOLmDAIVBsyqiDNtujzKQjshVQwgad8Wqj8SUJMf49x5mKpTiNAmTkDKIoHUKUmURVIktQ0WqIYX7FNxmE0EGmmJ6AoiceG6SByF8NnQIXRsDMDOEIW6drvSAyBzpk0Iy2FVuUaXlPto2wnUIXytuTfA365uc9mnME3tGWL+b9expoBpIo7/ZojXcUJGHMKnfBtZtv4pSfN7f93/hf2urn3CBEZWZR0opk9dY+3RqLItvg2fBDKJefbzc+87vY0fgujlG/EnnsIDSB67wEY8PA2DzG02gT3P97vgx5hVK2Dcv7rY3WO54k67fc2Hbf/znt4I/9SFv9RzqC87x0w9Qmm3pcW0C0dJWvic/KQ7nRC51WFH3efxgZ6zpP8pSLW4XXmH+ss5d4eS/Hr19NzjHtOHHdje30S5/V1v72be38AruF9h5g2zRrD7ytumonmGGR6xl0WI5Iog3B5JU61a2dkyNStowUTKii1dcu/ckpBIAnXK15xqOvzX/X89ql3//IduZf+KIVD1wydYLGuquOSn/qfGfv9oALelLSOx91zRf3VJmGKwJn3JGoUxj5+8XASIl6CVtn5EvYiz9g1v+srREVljZmeDjJdJolf/HIJy5lLTyWKCCRycjeIQxFpbQqyCANuBTIr+CSI00pMyxiC96IrhhKAKAtdIOkyMsv8kn/YJoqROR2qsAM+qtSGIJMk254CWi3nxowlxb3n6PB3tRuesUzqLhvoUIfHHd4K6gkECPTBtdrCo1WBBXarUrrp9fbgYc9u+3+2gfz2TiGyCxYaUJOMCbkrjpd7swwLnJu5PbLl9p1L3hYO/3nfgzGk5ds0i4oendEHyypbyMN6hvBblMk9ovSCyejn1dzyH/21hNMa57QDt73R1kQ3Mez+L6VOgLqZjxjNg+DG15kcpHEy4QeBSJ9DgkhfwybTRI5Olr0KQsd3cIhuly/vXHzcU6Gfl07/7cfbOc/9dd0ls7pWXPg0Io+AouWmWbiQ67qdUXRY1uvqi78ZliIsU1nZ+uoxIVTT2ja/aCfaIce8KO8LHYxnQKd6RgSOL3KKEjWFASShoJ4JZaI6Z7j5vko+2TPoBtiRG2atwXYURNenD8FXSjDeKGhKbLJF6kTcIG7ELVwTz/2ClEq25AavtKggDkXyCp4MyC0MyVztrKsYOWHXMaSO4Lzyh/Z4LdkMnRzthSCwmAcZdgrpLBBWPyCdPLEwePdwKPHFg6ttvO3/COvBj+OufBfcWKxc16fU1vJi6F6GLlpcHTzG3bzUcQ1GbiTRcantt3f/H28VagIdjNinNt8MsnAJu10pGHHssRIoV3JW5KveGo78fuv5mMne4B7dzfh6lFu93u0J2okrSPGVXnJv4IOflum8+Y9/5GnIt/xGN59YNRDp5DFE2gifiYwZTuPj7CeaRxdVWmJHxyh9Hkjm8Jm5vNb9AUsnjxsuMbJ481lPmq68i9/zuvi72kn/vhN8DGN2nMRAnxSwaauSO3GOWoqncosF/lEpDXcqQbFAMYrgmLUT8VhTEV61pC/xrc29nzNt7eDD39WW2CvwgqdQjZXMZd01OPsppfDphbF6oRXe+iZ2eG3UVsGgy5cyQgHka6j80cWsKIZKSvSTVUSDBsKmDo+Y7AY0j4kncNnqkZw823HCJ2gcvKvQUNAhstkTgwcuErZpFDaYWCMIxwDRiURF9ryJZdm1OToIh4nnL/+VtuAQadNynSerJsSWHzD3iCBRR8R0Y7y6y3NAPg+4cJVvPFHZ3Djcx/R1vjU2dp2dhwi1C9HOZTt0xGExlA9rMqPagoyw/phyxKN79yJs23fI9/SLv6mb2znPg1fdjD24WQfXWADiXCPgyeB7YVn8c7n2vU/94h28gO/wcdMeMlg2Js7mWkOxMpY4QAGFJsgyBTD/ApRp5TDRbwNVk7X+ULU3v/38e3iH/qJdvZjriNAE74hlLBPGWqomrJXQ1deXnQmArtaSkboHW1ZR/wZlpfhuR99yduWADb4rqULNus7dpBW3j1ot7YbX3BtO/2BN/D9SSy+6BLKVMPMM3X0K8ELHHDSYNqtPhaBPpBeRqKJy+0vtuLrXKlIkfktS2w7bznzBGLXXTmZ6kVvaac+gc0cB59W5CiKtJim1DXTjcDIFNaVKjZA86FcLwtiFxhSJGVX+dJFxxCgnoKp3wTasHXB4Ucf8FGck2/nPJlGuPjkzQ2pjBi2TdFpH4JMQKfESqEBCsCI2CEN8SRUuOFhjBVJ42OYlsgATHllrCRT5lS4rB76gleOuoUN/gS5KMNwbCNgOAVcSgRANPFKGwYDuMil4nF3X/C49x1/165/8qP47iHP2S9i2G5uRQlMVJbJngDhB+QcOgd2DNLQwOMDgw2+oHqWfQqXPfGtbfc9voVNMDx9IAPNjj7tprIZM2O49fja8jaeaiyzB+Bzz7p/O/P3f8B5Crz7AE1em9YWdY90VSBgMAW2IQiLWBT5Rmgc+eJ0Zc2jyHhUuu/Bz277v/2H2rmbGMZzZl3nl7vLMpD2iL+lLsSE3rEpd0v+grOOpKw1gp/arcSL7vvmqPF0nnQEa5xGrGk5Is6pFnsZdtyJfPjIh9tNr346B4v8OR/9JT/oMKpzGpZ1mbHUPNRtdheqLWfYvJ43Lo1KHoHcYOS2yFqHVYY36Nt2Cm6VBK0fuantuPt/5fzD5/FIkhc96LHTESBPmV3nZjh5oFKQwSlbvdIWg76Fjy/NnIdoXGwlpL3aJK1sE70R3QCmqk8EHSWtLmlWXwogoH4pghm8QCFAnmX4vwEAAP//9igj3AAAQABJREFUhL0JvKZZVd67zlSn5qGremIQBa8ajQqoJEZ/3HsxIXjRMCoq2qAIjUziBQSZgxMBYze0tEyCGIKGSJQYp6gxUYyIGhE1KPPYQ3XN06kzfd99/s9ea3/7O1V6d9V599preNba4zu/38ID3zqdLkTEVH/eUMi0kALLxOsiMTDq5dQvPYo29aYJISfaLGLbWPNbyRZ2COaKKXewk6v4H+xnFUrfyOR1qu0CtlDLC7F4zVp86hlfH4sXPxmrhw5GbG8rxkVJ0V+0TatJ287Fk1r2IHwXF7GZxPbmRiwtHohrnvmGWPmSh8b2id0CSP9SLGTiXNTfVLKF1e1Yut80TvzkM+PiH/9iLO8/7LaSckzleEGK24od21YDe3YJqsUMll3NhGZgI/5kKzbOnIqDj35xHPhXz47tS3ti8fJKxApG2LUYDSb9jtXM1YGANF/GY5Op+1dZIVsVEabVbobRxjwxzZ9s22D5iBT3L8TaH743zv7mG2P6qQ/E9upqrKwuC2wizOXYVkD0owdKj9WouOrJ+L10JdHiaduqEGN9OtmIzZOn49BjXxEHH/XCmJwTU31qTTYjcNGZI3Zf4q6gMRnkiMZkkTbOBxt00szqI90ZEDtsLKsNuMgxrqSy+5TyaCudicqoLtSCQEnt7s7EiDJZGXb7NJyq1y1PnT54UJSg6yNXQreCsQwcM5twqg6mu8fERIBlrmjHVQppax5YTdV+rZ96CWFfDPe2/OF7GivHpnHud38uzr3z+bG870Bsy3BRgJMM1PGVv8yb27aFNaMIQtOVODUdJpuXY3HvMS0K74jdX/yQuHxCg3qTYa12XtKGWaM0zUkGsbhLjGPn49SbXxiX/sc7Y9ehYx6kEUtErpgzp1JKVbdWmpXNz8Bo0wmaqgz12WbxOb8W+/7vm+PQTS+I7Xu0WG2uxoLWBWbxJEeRzZuZK1nl7jfxyzcuaDb6rE8MlbsdNDoygJchtT6lDVT/6cq2FuaIrcnxuPC7vxCnf+HVsbqqdjm0X4vhsuxUfwHQd26PZpaAgM6n8jWXAwCDhbZlyh1lTLVYLj3w0XHN018VS9tfGJN1LQY0GibSp8uwcRLRrDJH4IqlvLLiDfrouR6lU7n4tBE7Tpthgy7y0V5F+E4WDnGljHHVbVP1ahnmORTtZ+FBb1FogEviSU6uYu88Akp5xVD65YD+rMayqgAcDAUCkxBMDxQI/ipLY1TdGAhU6A2TdA0262kz1Y5F46MlMCxQntgIYDl2aPhicISCOkkHBLHry7fj3C/eFmd+4VWxeuSoDC5KwkCoZlJRlWHBWhSIFxRy2AInp16AT7XMTmTGvN4WvaVFYfvshbjxTR+Mpeu+OOKz0mGPI6w2tRe9OCwpDnA8SHZtxsp9l+P4yx4VF/7m12PXgfsp4Ikm7KY02Fs23yq4fuStoi0nJi1HqkGLTZap1xp6kbotTbUQHI99j35pHH3Wi2Ljw5tawLQoKHaOoGhX4ilcN60222JCI6M9PSjFIG7zsKlUijQjwtR3V9lAx2AC8eBPGYWJ6re8sh7L912JS+vrcfYZD4mtM5+I5cNHVHXVCpvpknI1mvtF9ZN9urB3XDcOW+qPtHGROG4WIP60yIb+ts+cjN1f+fi41y1vi/Mf2YzlTfXQdmuIGr+uAwAkIFU3qkKqao5HwdUE5bnGonHEtG3mxEQ93B5qJMcIMHIaTQl7+1FuDOkbU3mrk/iSoY6eY8Ref9VGsJ0KI4sV28KDdMqQdUpR6qdBZ1J2bzYONrB2puKXgwqKgFw55bZTXkcZZQNWBWOddFA8N0LqlC0q1bDYk7otwJlosKFoHY09HRHqSOG6tTj1iz+hQ9XXx8rew54YKLe9UAZRQORgSV5+2pDT0PPI0RTUzNnWKkF5unFRg3xfHHnem2P1ft8Y09N75BSZMPRXHe9ytu/Sfk2KY9tx5yu+O9Y//JuxvGe/e3hxYVmTYX5BoE7G2NkILUzZMYGkI2dYLnr10sTj9OjUmdj3qBfH4W//gdi+eCCml5djcUtxsdC6cspJxKkMHAiyOvVz3DCU0EkVl4tHniozBTHow8KxjgCW0/9kuhXTY0uxsnQmTv3y7bH2X39Guls6itonLDWUnblGogEDYUgVDAIHOXPNQG6nHxJR14tbceD/elLs/74Xx/bJPTFd07Lp1VEgwm47gRl2NXU/xZIoXQxKSVYcxKf6ZthJiDcLz1WgKoWFrtsbW0JBfaARYwQr2WZRIHyP75Q14yZma6zMq+DFiFOGAkARYJeTdlCiC8Bylp+2QFu/ZNbNyDKbrWAyQdlOS5iGtkMuwhVO+h/sZ3RIAwawJNt1UJVLJ/Hd4BnD4pYmyW6dvx/ajJPvfnWc/7XXij4iWO2NAcqUEFV0vqMasmmTjnqyJya2qWAunT8du499VVz73HfI7r66vqC9D4uF5I5N49sLqOzoDHwt7xPWsUtx+rYfisvve1cs7LlGg5eDf6R/T5KoD5gKnd2Ljkpw4GsVmgwsDgtyPNE1hYULZ2Pl4c+Pw9/1XC0QR2KRWBLe11swpZxuq08YAvSlkxQgXQflppMHLcgyF9VoeKSdfaWDl9YmktEW013qH13e2frIb8SJt75WRzY62tp30EdaakE79QA22tU30kr/jSImjnamsRELZ87EgW/713Hwm78/NtYOxaJOE/rMlaLrKQ7tSv2wdYIGTomMP/dlMUo37bC3HMVMVXcwB3Zrv1JS3n2mnss7jMq+szsxAIElfp9jhY2ukmPkCMGlUlTuiqKERH+exFZqgMj7YBDfAwc71CUj90aEyxaIZhRwhMagEy/ZbnRc9VT6nSF90ezcHG3mqJEKC6U07QTl3ggqsEfSWmaf2IIJb7KyFssPWIyTGnTnfvkndYh6VHY1PZlAmopyVBzimUvC0dDNsxgORzkkXojNy2djc/u6uNfL3qK9/tfGlAt5GmVcJOR6GrEQn9s8ARfUUFzHWDwov3u0h7ztWXHpT34llnRKI9XS6rEUh5gYwC02tk2bPdlkSRI5W9SMm6rz7EO7x8XFTR0dbMSBR/5wHP6e58b6Z3Q4rvMe2tRJMJD8gWhUbdi7V7IqvGIorzrB8xiQvvNBB1kdITSaFlQb63oGCwOnhVsaKwtLW7F8dBJbq6fi/JtfH+f+662xckQXXZd0xJRjiQBrXLkNaFD318yh4yQeWmmyFpOTl+Lg978z9n7Tw7UYrsQipwgCInZO/YjN+wX5oK9cZ/GMU2D4t1XbFE3uhF4WyqTatsodQHqWlXEq1NhAltVyW7qe6aZnsnXbi6HQHCt2QFZbly56TUHy9OmLilawRTpMC1gZU7NLHYvxRkJBNIcoXTnBiaKcWl1ePRilC9/42pS64SggBzaxza8NvsQv97BbcKZmIWArrMy6kDJ83JgWpSHQGmRZ597XX4ozt7881v7nW2PpwIHmyOcnOVDSsAZ3xxexLaxqBgbQ5PK5WN59Xdzw+j+M2Ht9bN6BJ/kFQ4mO8mKk3B0tPgsPiQzd6W6dzx67HHe/+Amx/onfi+VDR2WnC2zCZy+PNgstCwy1atbIXOxl4kKW7MZXJdoiO9XV9ZNxzc23xr5HPDkmn1m1MqcOTEzqsrCs0yBbN+yqfwF6IAsfYPtOusfTRE09gyAj0ZfE51QBqjDGq+uNsblrPXZ9wWKce/eb4uy7XhnLWjCXlldji6vBajCuzOiqTFtkHbx6xHXUgqgruYvqxwWtGgvbl2JrYykOPvXW2PuwJ8Tkk7LUURtx1KRrwbQYstp9wellBVj168GmofuTsFT2DrUrigGTJB719jhHnjqOAfmYZDM3oVWmD5zAg87cQwg6U8cr/BIor/paXZt+DQGGzzUhEKCcANCk8g/tikAoVSy2aay2RSBFN87A//8bMFWx8mdcbXbiDJAzcgx2pNEAg15XbmzKGR+jyPVY1bnr3tNx5u2vjI33/XwsHD7sHptowEg9J6o0+a+KtPNIwCnr3F8CLn5taTFY+sKHxLVPe3MsXXO/2DqJL25mCg5lwEgOpGV9ElNRHdOyt5zoGH7XHg3i66dx10/fFOvv/w1NBB0yb7XFZeoVRXItEpWALPjiVY6P6tdsCk/gqXa126dOx/7veGkc/tZn6pbbvghNGiqM3qImnS70u/4dSwQDyinrkaX5DJ0Myvqiqy9LhIGhipF5wbqaWp0WF7Zi6fqluPwX74mz774tNj//V7Gkayxc0F1Yoj/UdNq9L4lw21BhNzgeJNStxe315Tj81FfHnq9/Qix8jiMSek165ZM8aayumiSnHVHbmaqNLbsKjuskvkUuDAjwxetsEbNx0eZdtTk6dVRUbshJZW9+YuKwxcziWZpN2T5EekEogDKmzMDFuIAhygheVRpd0lgeafxW0OjZFiKTdbPDTItPTvLAdVDiNdYsnixbPMRmu5Q52yGrSVAqs/NQfKihpLC4qj3G4XNx8i2vjMt/9PZYOKALjfo3WdrUOTYto6ReoS6ViGNBA5ZD/XVdsd7/FQ+LI895nQbwF8TmaS0meu4BA9dRpOPGGBAKmRlTMViukeHTFILasx0rBy/EqTe+IC69/5d0K+467TJ1DWBZK9k2q5ri6aAzvEYNW+mUS5+W1HGN7BenOn1Y2459j3x2HH7cc2Pzrr2Kn32ujhS0ySPqVg/xcFd7t3Z9YgbuhRe3Cg1/2WqmKwD3r2Tu7wyq+hxsHFMn0+iBBY/F8vrLOv//ZJx480tj/W9/x89teCK1jey0nGqR8MEdi4XKW1uXYntjPW580btj+Uu+KbaPs8jTdjhrcZJXPNSNuCtOyyijrzgcjzsMSbM3lHiWNXab4Fm/eUWVMEC/ZfZ9hb9SkxLVIzkGE9okv7tQGQxjlk3ySncwbX1iZdk86Oea+xGglFmVnQDDQGOP4xYmh0UZAY3mowsrS5dOE5PDUT/bgH3KPFAkM56YwEK7oipXRatT0sxZYXDhizngvYZs8Y/MWOSJ55hEd/zUU9YbYYFbeuo9H1pSLwXIOfS2ZsCu+1yOe259QWx84N/rQtY1stEEzCDI7DP9N19LsXnujli51zfEfd/8O7HxKZXX1V7szakzp6gktaNjlC3t47rCJ1aBUh+3E/JsGGLiit/qfS/H557/mFj/3B/EriPXxdL6lg7pdYi/oiObFhFIcxRHMrQVPeeYvRW2cj93YXmrO7abp0/qesJPxzXfeXOs/a0WR80MYtqeHYQ4VoVuPjbUHx0SfOpC6Py5TynDJ4AhUeQvz3is1EbkTMlthZ4EPmpS+6lJY2XPRqwe3Y47XvK4uPjh347V6+6nINV/6rsFDUCObcCacl93U6eDaxtxzU+9L1Zv/LLY+oxkuobCM1nUi9joCwj7x0507xuCrASNTJnrprJp5Flh+G5zBKSyV7n6FlbXSx13dzWkeF6UZJMu3biOC33F62Eh4c44am64LsLDJ2OQKiKrZJIYRbidvSAAiEYG76BsKT6CNCBPldZYNsIw7RvZdKRo09EeOfy0c2OnnEXE+Dvs3L5pV63SITuBQktgFn7nQSSuW0R0sgrSwTosbRbUYtvqidUDa1I7Had+9vmx/r9/U9cB9NSMZjN7bVqPCeW2wun2Vmytb8Seh+he9kt+NtY/rfJ53caTiE5zqHSMEDj/Z8E0k3KRUjK0A0EggnaRhjtcBiuHdKSwbz0+/5Jvi7VP/1Hs0hV3X0sQCPUGy6mDFiPZ4jN5jSk81ig/fEMw5jNq1nVfXqcP3/OaOPiI743pKd0q5fBA9SSOsX2pOomsL8DEAQO81B+KYmaCqVRxu+6N1W07hvh9gukIYUH9wwK4dFiLpG5P3vXa74kLf/6bsaSnG7UitAVGNrjY0uBa0Gp8zVNvi9WHfEtsf1r2y6qP65vBuiFmLIeRIldjqAcymyp3vbRxjn7KyEml10qSS+D2U+6xXXkqYGebTjRMVts+R6QwN07KRjlmbMY+gkUaIO3DuqLYwZPw6yMEK+JEf6wiSCwcEFzG6irJMmywJcHIVAOmAYqZsmoU1Fo4zcBYyRtgmnkJJfcEocxf+dXkcYMP9lWFK3IxqtE8qcsZivxpd8ElqukhTfv1j8eJW3UI/an3x/IB3ad2RRsA/ra3dah9earHXZ+rw+3vj6ULx7Q+6FamLmQRZ651Am3h9hjlc3QL3WXWZcFJANVRp8jS14K0XzEd2Iqztz4rzv/pr8TKgb3SlkKBqeQ69LIMnZLhosFk4pOhVJfcddP1hAU9rHTqYhx+zI/Enkc/J+LcXi1k8oEZ9lIl1tEn6MWretgtaqPrZCbLvkuv8pJVmepxZMge03s7BO5vbXTtd/mIbhv/+x+Ltd96q25V6qav7kBwazH0GPn22noce+7Px96v/JbYPIFMGJI5xlwICMILJXyZlf+RrjqX7AolYsOAlEpdt3FbXaVjPptBfyDdxqpym5PYIpT+DpPORwWdVGuwqW9ZEzd7+OnMYz9p2/fbjjKws0TEwCsYaAj4I0JSyXbkiKyafNszhsSsAJoTNJMvmRchlbHtCf5gB91quUNPvuYNW7EGpvFKh5yUjnpRBPiU++TVCPa9eikv7NHRwrG74/gPPS027v6DmOzVBbcVLRe6/D7RUcHk5Nk48pK3xYGvfVRs3qMFY4sRZ09usrZHVhk/6cDtSygZS9NuZlVVD1gK+mOetvbgKcQW5+I1uvj5Mz8UF//ivVqo9rc7D5Juy3BJBpz+GD7rhw/CYhFgW36sgzCT98RstKedXrgYBx77I3Hg8c/yKdDyElfjhaAKWE82PgLCB/aAEavqSVWpH/1rj9Biuu5ikCOnPiTKhWmD0kVogKaDD/evHYgn8aLugixdeynO/8rPxoVfelXENQdjsrWm9zW24963/F4sXPtgXTNQnbWosSCQaE8vMMQBA3/w8ZWpSPj8ER+xYFexoo+e+xlaOtSlgSpX6piS2Sc4zRuE7TGBoE3cRtYRL8uISWAhqrZsTJXR01/3ZUHThbSd6uijVjOagu2y3G87olznsxUYOjhwEhNDkoMlT+dzOslHz4Flp1bZuuL1IxFGQ1UCfP11/PRpG/SwE89qKrPHIGXW/CGkAuTOGP4wZsl1lZz6dDyJ3cEZD9ompTTdkN5hzqM/EXe94jv1ZNtndf9+W88XaG99eVcc+/Ffj31f8NWx8Xmdtep+P+e5uHf7kA/xgDuG0zsDNnXLuA2gAHqbE6vKnEeTeJZhottwK9dtxZ0/9OhYv/OPY9d+PVhkuV6EklM6fqy924H6lA/hQPbWyTipqQ8UdM2EUb518lTse/rb4ug3Py7WP60r+Jx0p6HrRkOR0v4KGoeqHGImjeshmvam77p/0cAWNiTJ7SLFWhQbN/ngJc4S70J8UcTZf3drnPp3L9XpxJE48mP/MXZf/w0xueeyDrl3N/yMk9j7tQuBehyBJ361kccpDivQtIWV1WrxwkBGUm41KgOtPEnD1EEJvJ5GPdHWp86lUDzlJJrc8VKQEuw+zlRw2SDpH57KHU/66PDHgm4McHYeIUh0ZRrAAADFjYEDaP2Nq+XYUEX3QADohYblMjxkJOUmU29UbwoNwjpsBgU6s8qwiY2GIJWayzZufG/RQyeVoKvsAaInGuN68e760zj1umdpknxEpxP31bsAt8fSA74xFu/c1sG8Jooa1w2fjWynAI3JwIk/8HeqEUqqepCC5bbWPPVLSpwb75fXG7fi5KueEmsf/M1Y0EtafudCQTfbncvh4DDJrLJKbflwHNrwrD+Lw0SnRBM90bf3Ca+KA495Wiye3O+HeHxIzvm8zmU8DojXdkPc5UN8cF0n6oFulce8BOJVsh72Kas+slx8T2pPHino2etd91+Ms+98fSze+AWxqqO2pTv1roLu8rDD47SrJgAB6H8/Ny88Zhr1YMKVT2ToVnIMI6ME/0BuX5JXjqrbC0KhQ5NTzSsSzDLMMYaOxze5g4WjhF6WIUmzo5JWHrflF97CA3WXoYwqGAdJgFK4IrgKDGPkKpulQuF0myJSYP2yU45B2di3CuCNAaJWqey7Ebr6KzednwbWT3nbWzZBx1Gx6moJQBIi78svBTmZqEWZ46t6/2njjj+Pz/2b58S9X/b6WDqqQ9HTxK1JIYV+lNHM3GEE2OuUPtyR0JnMtuOsT8pgmRRRh4jObUCYk1jWrcc9N16IO279kbj0gV/UA1V69JqjF8UzpeIMDqUGn4Yq12EvshmXEqkd5XDplHrTL5PzF2L3Y18QRx7/g7F5524dpeiUgke/5cODKAfhbEAJBTuhc9RUqdocn71tIFEZAnHRSjM9F0tPbBKR8lRoPU24pLsME70Pwt2dyXktiG58KcoYUy8IidF9QChVDB5X4iXbtv3WalOdCSvmjLW7yzKZ2zDtSp2i8bWpBQa/JOvAr4K52lRAEkD2dQDFdFL+m7H4klEv89EDN3NknY/I7zKAjIISJKnrA5SMVLEcZg8ehW7QxSYcCGLk/CloT5qkfQgptjtAOXJ0F7Xk8W0C+8gYGOCs8hWrAwPHATa+OxQWfJJsaiIhU7Gtpsp9OCi93jjgZAsbUhtszUKPsv6WdAlhcfclvRi5NyYXJOcYkNeHuXsALjAi0AWbMn/IxuR4xDSfessRNo4dp8LtOJQdvPIMGD0eQcb3Cm9DXrsRx19yU1z6xK/pLcnrhaf77DjGJAPIYg+o32GwFg44KlDyRg60amC7RCA6R9s6ezYOPOG1cey7nh6XPnJRbagXryQnJP13qjWoIGDW4uP6VD2aevdX9rYTGscrldyOKvZ+RZQGutTRxgVtJD5Nwh1SfPFmJ4sFaD5FUWV8OoQtf8QyJnBlT0ZKFy67DvCKicIQh5XLMEWoZFjWJX73BQIllxOvj0dhOFbk+kNMXv5Fmlk4vU1S0WUZlLzsHbcK8FtPG6kdYYnvsffgfNuxHKNsQFDU0H7NGP9CIMiK0M4ShElqMPRmKq0AD0zlCNGrQQ6rB48hZfmpBi+sJtAWeys1Ok3aoM8CjdYbqKnZBl7F3EAaVmEMsCWG1eO1cwHokp1GmwbVGo4YXO2R3mW/82wt27vOgEvNWTrqg6OJLMOPE5AiekwiKm5jSNaGNns9jlqa2aJHim6/HZjE+r6NOP2qR8blj/yZLjTq8jtPWCqYjomDDKIwQYFud+6pI0okppEkPrwSj5eh5HT7/Jk48rQ3xt6Hfrs+/qKLjFNVPk3c9qILuyYyDPPQg848zWzvNlNs6JGq7l2nsRtOjugaK9aXon1QgGDMCm+iVd3HKDm2jCsxuG4KEfaRcTlmaHRGTJWtmLIqzmzbKRd2pYeMelU7lG9USIVvunBt1GRWEt/jWsFaP/W4jmRcK7V4jVP+VCCWhLMW9jDhI6g2tlDM2TWE0crSZjA2OGzUSPDdgTAyUIR2ZAWU9Idcf1WRmULK0qBUkTvoNFfWcBgAyMwQCZG2xeyVKz66qUe2c7FA7IR+ASfLRW3mRCpQ5o/rbb6wJ53aIzpEDD3KEhIMG2DUw2n0ThllS1KvCvCgwc6cR6a955MvXd/U4s3XnjTxeVP6gBaF1/2ATh/eo8ec2YO3Kc5pDdOdC5OGAa+nAi8X1IajBWHSsMo9sbSaL/Dwz+nTse9Jr44Dj/h+XV/QLclN6bkBJJO/WqxqgberqoPQIEkVgsdHY8231yysmXIaG66AZGtS+oRR481tD6OSjVRIu26egaBvMssoug2w78qiuzz5lEe5iiSzR12Yw/jwHEo7Z4WjvMjC9byQ0pwb9IohusgiwCDNzZfGsoMrfNRFRTcc4IUAiNCrWCsUjCsCk54rJpsrZOiDhQw95ZUKu/sRI9vKKmByVOLKwDFI4iUNzw3iwZgqsjMmedkZ8SoxyM51R+4AZTTY26x87MCjrsZPbLIqS2QcMicEYhImR0hulMy6f5Xh21Y68LtqDWoxeFrZt/oKTO8Z8DKjeRisXNTbmpfi+Ov0QNUHtSjoy0s62ReukKXUTgraduZg8EUcSsRR0wFYgvdpDRLtdbcvrceex748jj7m6X5xi3MnjkVsIxUWnjp/x55wXVdwDAioEgUaE4eZqiuIz2zjNXo0ReaxJ+Y4Tqpv+pizopQzJzPNgCOwTD2u0i8BOY4HXcr2LYzybVypzZlLz/GIWXLDgaeEzFguNBqylD0HqoxPC5vYNBswErzXGT30xbeInHLqVxsZMGWz247Ntk2uBMCwwACi7WgQg6cMFoDwlGVH13lbs++TumZ7KWM7JAcIiFKNEYDHSnRHieH4sBkwKZbPEhkTNToUJn+ZuilExYisjMV3PFUuUZYLyh2LHalwSkcYwHPG4b2mSJfhKQ3QLTT0dRRCe/d+cCdw8LutQ+EVf5WJdyQmqiyTkKpxtKKHJnW3QZ9wO7YZd7zosbH0mferfEQ4OnSWAu9jeIFvnnDvRDx+xkBYvU7iQYPNgUidTnAass1h0sm79cmxN8Xeb7kpNj8hTb277NvBCppHtf0CmIx9xCAH9Jf7JiucWW8L5L3tRJbA7U8RjDSiOSwnV6omhwbGCX0J5vpG+h43oy/Rti8QZOgpg3RRBeOkfQndNlJwPKWrHOs6ugDHZ14QpNRv/aAymI3dxrtAwXXfI5O+2028FkxmBEbK3HNFxcFNO3Jj3KGmjdsD8ExU2b6U91MGA7CRpBraDZ9G9pdOUasOSvEVmR3DRRk75WneWCq784uJCjqlj1naWU9lY4jnuFDsrYly2qI2YGDmVLzENC9tEJFGUcVdZk2jbTtPhDsqhfD5I4HlNhADum0gZjquT2PZDltsbKuCq6eObIfi7G21V9d1gsnFs/peoyb4WV3l1+xb0gSv5/G94AiALyst7p3q2YS1uPPHvys2Pv4H+ujKfg16HHDngFOH5jwzSRxBRnRl5oFTyoxOBouuK2yeOhlHn/aa2PPQp+qq/i699q0jBS0G1IM0ol5Bi0EbeiCXQdpgaxZG0HJXMTdOblEqnSR3tj12pTa4MYD9l50qSRk465URmjVzoItvJZXTfzNCQal4+EZPf2P8htDGdUcfBj7gKStz6LK1LnMUObill4TrDV04gKSst3OylM0lq/qUQQZjoNbCGfzBxJWiLKaNRzszmm/LCWJIFOewqpw+rD4qSN79la7kxtkJJjkCGqsPGtGGM3ABoJgYnUCrKbm+NkJ4lXQ1v6jNIEZycCQd4kvd7mKwQzR2NkB0oBPXK/Qm4sJ9FuPyX/+3OPcf3hDHnv0a3fL8Yj99x4VDQ7Hhj0HNhBTg0n6dKqzoy0u3Pz8u/rnektyv7ynooygsIuy/SJhUKpdVtkoqOB5hW0dX7/1tCwp6TmH98kYc1tecDz/yZn2GbLdC0DcbEgxzSOfJo2DYHLhWGGTd/2Dcj6ywTV3aDFuK/VTMwBknApVHN2XbApBeYtksbct/HxN20HSxL7+eN+nDeInVK9zcs3Q62RbeDj8pnocQ1hx+KSl3XJTBKZ9FK3dI3jQdq2QQV/WdGP1tx2oc+5CwH55czScOpYN/PLuxKwhYYnivlk5QLBIT27EZVjozB8zyj531kSUOuQ+/ANuR4Fc82PHnDocYE8Ck4iuvgVIi8uqQ0adNtKk2cC6ndUhI2THI3hjakJsuP4AknxhctAJOJRKtOat+0D5df4v3X4q1D7wvTt16k77efEKTcF8cu+19ejDpvvpO44p02i1a2m1TRxVaI4yxJcbu0C3Jo5firlc/JbY/+l90+nAvgXM+gkPctUNbF66yGcKSBZFqMdGMYFI0ma4nbMn/5VNx+Mm3xcFvfVLo9Q/poEcd5kGxoX1a/eU95XWR1P2QSp5AyCnzVyl9F88q2lAXTmso9wQfWyt1rk3dT5IhrtMaT/ZSQ6Y/YoTfjtbm6e4MECXceO5lmYUKDAugEaJUuClLVh87yB1L2crESYoVR7G6U0CUugkYMLARUeNZ63mFYwXrYMcRgiuLsv7GABIbuJZSjnENeHR6gw20+c2q6t473q0lhbGR7Lv0UwaGG4XchZ51gsalI7ni70o3k1LvDYM5cVenUmcmcCl2XyKsK5kbTyo9iWd7GFbqksYHT6nas2KH7faSDXR1jOtPWX9sqv3b14h1rs9TgHo/d3r0bJx779tj7V3PjzioNy6XdsfluBCH9nx5HP4Rvcyz9x/pNIKzVQJsE5AJ2873dVWA5/cP6GWrvRfjzpc+Ji5/9o/1bQX9EIIOI4iHVNVxLI3VBrUkdSTB3YNWOd1q1YhslyfxqkVLQJOtDX0h+VLc+Ly3xPTrHx+h7w34a0t4oX7Cpf14m9QPcqlMtzmNgYhhXXgQmRXPfQAO1yhgQqPU3DSasviISTVGrYue/npfKgjoUjYmchs2NmLHnmrEzUQfx213LD5LktsNEBtnjo3IGq8ineCRHNPoO209ppAXrug+zsxvZcfgwFHQX6a5ujBfYKSe60tR+u0IAUP+qr93KErSU03iwZeBbSLmHL9bzYiyhzPqYu9y+qZQcrN28EecLscGI3orjftAEOuKBoB3lQQeHV0Y2PXGH4MqGgxobPTnwQVvwHBclJNdRMWHjXbsHrh+aUp3BXYd0/39jc/GmXf8RFz6o/+gNxx1JLDI8/ia7JqQ082LsXTjA+PQs18Xq/u1KJySg12angIC14PHI4yO1SjYq1enr93Sj8HcpBei9DXng/oalBqLCc0bnI5Fdn2AOEiCSqLqS7loRFoouA1KxSebm7Fx9kwcvfl1sff/fLK+wqQFY4vfVFA0UuEr10wUt2/Cgl8uwAWaWCpRJrkqJpIedObkFHYmdDvQjB7Z3WTQq4UDmXV3GHTVHfwdxQ7dQBJMmZuNogyKLszSdb0BHPRaqW3LtnguUyigtO1liXp8nWi8flERZQ5RcU4iG3HMhzEAoEe5y2REpcyzcBaT7dhN5mQ1tjaMU8vMaEYVQxeByZgmr1Q0/sWj2FkQMBOzGlocN3yda5Yf+DuTsbQZB+acTjktZvqyzwocGUAGU546pdpPMbSn4wi+qWm6cIpwnf4W1+Lulz8uNj/35/qKk96i1G7Fe33OyQTGv+3Ll3Sd4L5x3Sv+i2433hBxgReb9AKSLjbypKeT1F0PPT+wtEfvJRw+HaffoC8vfeBXY/eRY/r9CF1nUAw0sJ8OBZ6i/oiVv6qCyCuSFx7OUWTP6cGm7j4sXdyMA098ZRz8f74/Ln+Sr6YKRQ3Ooao/gdje5Z7D8kCuWEuSzst/xWJdmMVIfYpcjCWOsulQqdtar7hDLrnHmAyr3+0COyXjDaDWsUIKRzptbIg4ZR7+O2Q7508/EBt9ymaHWe+fCgm56U40httK5MhWsSUx8d8x6pebioEEABujmAa+4o0SE1MtyiGPKymWdYEvO0h0sXcLNB3KHmuJ6fGKjsq9wVKnYuC4zI/Xiu8kvF4B7IhFOcl7ncQr/+60xHdd0K0Rga6KNi87gJSwp86lYDzqQir7ViqVLLU4PCDTbxeI8LkbuLQfe/LMedR2Q/xdfDPwhiV9hu1zcfx7vzImRzTJdh+QHd8o0J6WhlKlfGtPFad+2xfP6+j/YNxw+wd01HAsls/qc2HCJQZSW+hbO/IFpuVF/RCKbkl+/mWPjM1PfzB267Pz/GhNLOlVbr267d8kUJF9uR0oo429kKq1OOT3dSLAlfwgEo1CZ3CkoYZeUIBbJ87GIX2H4PDD9YWnj2oh0hONrq/UvH7YWCbphuat83hErWMyk47+u+C+EOn+hkV/yNgZIShW/Z/Tty08OePblhW/9XBcCiJNI9AfVfIYgg8vk337kE4M8Y2XcjL+ChL7qiNt6Hqik/oirdyLSdhG+lVP1Ki76ycd6L5zQyYeZf03jX1VDR40Qs/lRnqM0Ccdx9cQJKygsfmHUgWETlUAZ1WwnHIllKzQfMAm0J4GkEG1i4uwWipgXrpFW89Kkok5ukB5bJzCbC3XSsYr0K7QcMwWYG8jMaqhwSi+88HWJIFIvzDMk7FjRFZAopf0+44TfRbs4p+9Ny6+40V6zkAPGO3l+wrqMK0kPKLMxMTM8w9zynLMorDyhV8Xx57zBn0N6P56aAitpfZMvygPIrF4ZmFBK8/iYeHtuRh3//h3xNbH/ocuTh5yGy3phyS4lVk1B4XYWwUgWvJXmrIjXW8qpPhaPZVrhvCW5MbaWX2p6E2x/589Xncf+NQ5pz08Vak7I4Drz4tEd5Su4FddkSlRJtlOdPPVeC3IpJnEtKtS1xWGXYCZeKmhLONujL61vjfNF62CT/68kcyTqwTwSeL3OjWOt64PeJUAqljF7yIIyexHZOeXHXkJoaXgcTAqSk49YY2qxpXPcZGxQtq2i4ppNOLh52oJ8BpcyO1QTNqEgp2bCaOVO66NG//v27rTZdBtdioKg7FXCdKHrM2z2Y5BlGUqjAOgDxA0ByxDpi72DRelWSzw51Ipijknk3GtwqP+oN7YdIyOtPmlp0V9pSx0fn/hXS+Pi7+t6wXLa7G4omsI+mECSdXj2ir4OlpqWHLEfzXaVKcDk/ULsXq/r4t7vfjdsaYfm1042S4aIre+dB0nuRaYpYM6LdGFxrv0OvfGn/2qbknqx2B0YXCqrw2ROEJols2OPsbeWN60gjHFFWxb6NRBHCXQ8P6B2bVLceSmV8W+b3qqvlgknS39niR7aek7fnIVGg4Fs2cMgEmp0/00bomce6BTP5W6mQpFl4mPKsTvdUJnUIL0OAOIv0FmDBYcD3qXmhy9vyeN43pUs8/aKUhgV+WrFMey6NIxpgpj3GVCGGVW8Vs26pdyKYJdzyFgDR+dkgNaCed2nAqlR6NZXwx4pF5OWemWA2N1RZu0DYbgYJd4ZiWfjGQ/3rSYSqc3EDrZ0zVAEqJCSJCW+Ug3/dq/veSkTqc7fVeMtEnVxwMobecaI50TMn+1WGDLBcDYt61fdtKbii/6jlj72O/oYywHY2VxRYfPmjSupxYFnk3Wq8bt8ByfLBDN2UQV0D5fh326+q8fhtm7fDSuu/1DGq/79MFUrjvQJ22StgVIjz9jq19F4tWsOHwi7nnN0/XdyN+JXQev1zUIbklKpsZr/vEDSjtGzupIo9XHjycrHnnIQ2flioV/VHhJi8zGJX3g9Cm3xL6HPzE2Pq149cu27mNAlJxJt9o1Tc2nCbqu28Mm3tCGblRK9LnCdD9Iz7IUexyIhld7U+Oq7Doqp19Izixscbk8+oFOP5Akj4EspGnHMVsb+LWGGFMbxyO+dcxsStXuxXe7SERCba49UAJLf9ajrD/HBE9FJ/FStTgujzx/DwGuu5tcRDWyGxZTnJHnJIMk4ch8nJpIW2QIS0F5mVpP5eqsrpPqLos2cOoBQ0oXreICxIdlitnnntKhDPbYoL0sIRgcEde1jTnZgGlf2riRsQNTtiT7qAKKZljUNuimHLu6sm7vOTIxW+bEbdeliEO68n/L02Ptr96jJwv13oGSH+wx1TbjUdDoDj/A2B0bdeCW3kZc1JeFr3v5L2tvfJ+I81o8eENT89nPNqgTULWtZsF0t7wduhD3vOBfxfo974/Ffdc6VMYERxfO5YOYSeTw8OoXn1KmZUC80rJY44JblNLXEcz2uTNx7Ut/NZYf9LCYfJaLkEIQEG3EAqX/PmKi7GZSXu0oUUMuHsokuUS/J5UZY50FLV6ri7S6oFnUeKTkMZpVaJmUM4BkN/tBp6HIVjywENmHCFwRGxDmp7LjVUDw2BmZcKGRsBwvOvQZ9gUAaOqK6ri9vZLZxwQ6o23KHVfRGYPjrIuKyBwoxvozhmuERLLkwRqT1bXBtmTw5uhkOGNDksJAmkVAPQZx2Mu7ouKjO17gGfVsjD72VagcBvbKx0arfrgiCPTdGwlQvhPHXLBm4qRm2ahq7oDR64hgl95JWD4VZ9/4g3Hpr35Ddwv0oQXNEH9RWDakjkV5Z6XNs5rqx+TEkT6MogpsXLwQK1/y0Lj++W/QJ+Bu8IdCePAHQH5v0kdQQMJSw+7ap4uA3H34yR/QkcLv+ULmorDmfgXblZafMS7ci3HVts/42kNMPJOg05HTZ+Pgc98SB//p43RLUqc0ekZCrSB7gfgAhHo0PKDHZPfpy/WQMF2Y8OQWz3qZl5y8p8So8VBjgOYd9RxHgckY0nJtPJ6S14dLKSRIxeMJLl7hD5AtJPSLSd4Bm7i2FW/CtzqnKSZ1YRCsGmeOM/FGN8bcwaDYvphUwSQ4ynaaBhaLrkZA7gQPQgoDhAsEhLCP4ZyBVMqHuhgoUMvBqARfOlUhsymLmGvQ1LPjlHeIQX+uEUtPtpjvTPhwmBA7FFx3+ENyCN4MTJFmlS6F6uBRV46Wdmmz77hOFR6tyfF3eniIh4XWVVc9Y+DAE2sePktMTE4VcKS/cqrJvajZrnsVMbl0Npbu9XVx3Wt+LRbP6h2Dc7LheFnx8MMrbn+fhvhJBH08Vj+VtnI6Ttyu33j80O/GwkFdh9gg0HZEUVv8+fSALe7lG/cVggmVnZCLQZw86zCdXtazCjooevKr4+BDn6hfXlIwOqrhVaklfep9k9uRmaBqHBhb5WwWj0WqMNNuBcoeJyI8QVKn7FV0sp6oypFXcp0oJBMdkv0NQBUbsrEdKDslOCY1BFJix4bXpk5hugyiAoMefarIEYPnkPJx/tA2mHkhkk2Vs6urOlaquew6pI3d1BeTRhDJfShnBGkZEE9KPhRJx42jLc6zUA4ozk2irpCK2ZvAVgf2yonpUxfpmEdrQg9+C46G8SCBgTx1OJrofNkXNkMZgTsQ3/qrJNOZPwlcRogJ4xbMMRaMU8n1hpaOD4PJKeM7aauzUSKjjruP8BWiD8XnX3FTLF7SFbfdusqfDZdn5dZnAxwJW9uTi1ntzLTm15iY9Py4CrcHN87oRahdx+L6t/9NLJ5fiq1LK7rt2PqRPTKHpABwbcHtsmsrVlbPxede8aiYnvxfuth5rU7HtLxQD6m4Qm5olRrD3LapqBC1RYA9/7Ya349W26A14qaOFI7861+Jo//4YXHpU0JVPbDm6KXaFEzqXHWU5awNKCgm6m6yGgd9RCrXYfNoZzVt+niAloL7THZ2gIFA6noLPGKQuz7+3c/JxwyfKraE7VDusaCQwYCHkscNvKyLKNsC5n4tBs4BrYRcdnXq2+OGj4421BGanLHW20NMj2V09IcOvkhXvP5sJooJ1tDFVRkbGxZQglhAwErFwgnJNo3sQmM7inlM6xeACiMGMsoWa0NDEEvnpTzbuzVm+ugxo4OtQVQYGtkdswNPGi2Vk8zJ6pyRgNqAFVGjWnJ3uHJ0HTQ+01/B6bdlJdfUuXY9tj7+J/rth2fq16Hv1BOF+qiJJrP3/j1YgObr2zgNnslPozR1gOVFIwBfG2unYu8DHhrH/t+36kMm+tFZ/eR5fwy5RdjiJUbFs3xQpx1bZ+P4Kx8XGyf+XG9J6pPmqvCiRhUq/LleqCsVXXW2QknU4D6dcRlaF0h1y3GyeVmLE5+v/09x5CsfHpt366Kovm7NxVPwaqDOsJqjag73V2P1eDJ8ezKGqfk2qwlY1y7srJpLRn1MGSzjSD5wVXfn4pfPNgakMOomzZh016s81oe6EEfxqk5VNhZi6ZW/klnXzmf1A76S9VVwn6gwyoyRfhPCZmD2BaFxxJCGwTL4bgBRA1qy3jE21KY8pv0ce4e+MRO/Ko2++d6UdcsLGt0SV5ylWTolL37ldufNDLMaC45FZVx6Y15AmaP6D4h7nEN/z9ooMdgps1LztaOpHkDaOP6neqz4GbFw8Q79FoQeUVYj46OncpiMuSK9qdSuJfCrx15OhK97/joM3zp3Lla/6pvjume/SZ9/O6jfOFRkqkSrh/xoMfOgZjei3diyfhFpc3Imztx6s3478fd1oVE/qDofzY6S3V9949Wb0xslbbgb4oVwQ7+1uHY5jnzf7XrM+SY9p6AFR3LarMeGESGRBrr3nXh9LJQcntQZo8XCvMo4KDm0jxBQGNPos/jwMMxUJOyuPjLFryKEdXZglGHpFQ761Mt2ZaM8u7k7LP05ewroZlxlQ/17KqEYZYusP4dQ1qOw7M3ThoZDDweAI3fnGYlN8pAhSH0U0R0TmHSqByFCdEngk2FjpbSFJmXeB4FYmNtGm6JN9EJTynE5u2or+YjjegkDrD54oOFJFziSYSmnblW1GYovmTvBQDKoPEnKHoQGgqmjBB3/LR7VEvGp98WJf/sM3WG8Q0/78rNkTJLmgSnuPpAJyVMeW2gFQw4W1yC4FdmKOifQgrCtx5OnJ0/Hgef85zj8T/6lTlOkjY0ywmPj+ov0i1HcGtCHW5d23akjl2fE2if+2IsCz0z45ST86JbFlEcO80gEmJaGCotBO/kAJqXEKfO2kf303KXYr5+i3/+Nj9c1hV1+mpOBtSQjLpGiWgdfxNsYDtl0sfDKXyX4jSFKQVhmZosJHI+J5NW4tr146Hscl9yCma2LUnJdwLKBynSXUpo1+VC2EDsTTYAuZXotzUW1VDjg25fY1VfdSQFgsgObstutZNItTFgkfJP6guABnIoIfeGiooOPE6Ey3PzfSsYwuuWzYlJSlZ6dszFGK2exyeWn+wcXPXwPtrBdNtHk7kz40h39w6rkAQ9OOZQACMfUiaZtXXoD4aCfUvFkgA2Z5FbRxqcPTalNdHb9Fb9A/VQfZrLjiAB9kq+T6Ja/J5jBdGGNnzr/6/fGydc+R7/hqD29n/HVOwiaEZtMRg2XNpma/1YZABW4ngDkOoK/iCRK1rq0KP2NNdsefeab49A3Pio2PqcfX2Eyy6oGGPE0LMGkAw7hlw9f1O3KU3H3y/QzaOc/q5h0OqNPMnHYj8HchU2DdBiXiMxjJrduKztGoJjpaF3Y3D59Pg79xG/F/i/7J7Gl+PiItW6W+kddjaGN82xXuxftPpNust3G9farZTIitzGYoumHqjcikrHZJBB6LEIIrJN2rSCeDSRHmNUoH+K0lHjWTZb9QzPOyGRfi04fXhVDU7ELu0O34iAu0cDYTnTFWrqUiyYnoZaqJqijxyNMpYWvfouu/YqZ5ca92tbITWDwodzVBeLKqUJzq6T4VscJjYdeNxoIA6t8FeHVRD2ExDWS6L64DNCQ1temBgN+PCbJCyxzxwh9tQSG+HRII5pSFUcTllC/559C4450YsHnx1foixV+++ED74y73vjDsbyqxlzRR0xDs1MPIvtddRwQABvZMS19y9EVEoPK5C55QY80Lxz70jj4fS+KPV+tdxc+ox+g1UrkC0zqixpghFRmHg8wBDPZ1DWFo1uxsX1HnHrlk2J64oOxsMrXnOlI3pIkDpE0etKOrWiEiQVZqT/67M6SihatrYsbccMLfj5WvuZbY/tuLX2bfAlKi5rehuL5CUNqYxO560m8PinEbLutdmTRddAvWwM1Sc69mRrVGOQVuycOWqOsW4mQnft2B6/pY5RHKKLmINIOs5HvcMVws47YDQr1Ps6hR1vKFY8Fsh/MvOalSsco+7lrCFSoAiiEcdA7SHyVg0JR7gmVsrIlrwFHAFZPEDISvDlcMboshZZrQ3wIC9M5GCnreWIq6+A2TVuzxaiYrTdspOaEjRP4ItwWyqEZSBqjTtazQjKGDHbFbLYYNXCcq+zYHI/2pQpqSZNg4TotEB/+rTj5b27Wuwl6MWhFl9/ltE38wUGRxsUbSvzXg0AXz8Xur/22OPLkF8TC3i/RKYMmCSu1A57VoyDIXSdUwBAUiGCFfiEqLn88Tt72PO3B9fCSXrjik+w1FtDiSAD9jMI5/MZRNqRawKhv01HG59g2tuLoU34q9n7DE2Prbkn04VaORVi4ffcFHwl5BTIMdPE5CwzGLATckVQlArRa2plfukNY5rMpXumIZbL4XXGej48xBi/GCTeYWKfvoARsO2yV6AvLMm4zkVU59ZzJto9tcFCmY+FLf2wat2XJpDj36DJ2zboZQ48AAHtSCKB3ipyQ6iijdGAz9tDzdSqULJy3JTjYPmyhckqU+2wTaazMXUAsJQ9a0SRsaAT8Wd+MJqBcdvjjkBJxnv4i7fJWmG3dKSk3jgxpv+oH5xbMbPDlWAaWceAnluclcQjPPOXEZDvxdQMxlq5biPW/em+cueX79M7BPsu5rdgSk0+WWWz9woLCU0drsXHynH5h6SVx+Ek/pF9Z0snDWe5cSKTXI6brstQsIwb3Db4JwgEoo6wiDzAvq7F8ZxIev4a09ndx548+Ta9Z/00s79eRwroi5WjBtZCScIxNw6jAxDc2RaVyM4tbRwIKnmpRh0V9T2Fr43Jc/6JfjNUHPSI2PqnnMpZWW3uXceoWhorGbZsWv31XW6UC5rWnJybY1X/uH3DFc0pfxISe5aItJxcTvhM6agJkNf5S0voXeTLQ2ZmQ2VY5fpgLbotUhCah58VERLUpiwSJeUrdTGfedcSENcbseolpaG26vJ5UnFMAVRq8qlsT1W2LtS1bDkkyqPISudHTiRWuooOy9TxwZJvGdiHamC4048ImdxJB43goFlNlGoGY3U4DHyj+yg8YiKteppOHjIR+T6UAA9ojqdnjE9zquLKxv5Il050CT2XklD0hzGlKnFazV9xa1o+53mslLv7GW/UDpj8c03371GZIMgTZggMQVwS4s7Ct23kLkwNx8LteFof++ZN150LTWh8oYZISn368WfJ25m//iQVtLPAgwNSf37IUrseHvuu4ckQnLyf+Nu567XfG0rnPx3SPFgUJ+VcImFd7zLhiziVpecRqwVA8pccp0WT7su4+bMcNP/qrwe9mTu+Sfz6iQNWlWPjZBeZ1aAmNxSYT48F9RFl82tzJigMt0v1BnuxxvBSv2qc5avF0GXbpz7wUGCcx7V98wkBc4SCmndugbgLL4OnPdoktTo9xzh9mBSpdSDbVH43DziRlO/BmX0xCIbUAYbI6ONFOZbiDbxMbpB7OIa+iB9udiL7kOxvbQaOkZNxGZuStMMcveeUIlZzhI9NAFqvpqGTZAJoQs8bOWDG8QpZMOmD0QTsyqWsQjDJMSK4rjZErfMeWMhORhnJ/rOoC2/ULceH3b9eHUl+ipwd1FV57zGpIT1ptfG3u0oVY+rJ/Hoe/48Wxep8HxfSMgPh9Q73HYDwcy5/xRdK/uHISUfFSUWRVL/NVZgfBhcvFfSLW/y7uuuU5sfX5v4jYs1ewArZR4XF3BAPhJKsyuPDa4bGXsjaIxZvonYdF7opsrUecuRjXPO/NsfchT4gtFgX/+ISrYCjap3losdu9eMaWoGRW1gZ+E0pmJZUVNm1XybFZsdmXmsF6oWn3YicK5Sr5oON2pUxSbnII1jGkrCphMRviLQXlHmtiV93Je0of2Q1NFxspICpVj0UVBK1TBv3YK5ICLq1RuXjO08mc0xrYO3DAsOMiulFWigjKkXKv5GUjw14ReGMNEqdMXSFiwCbtfWSDgv6qwr0VUCIhT5qsFYetSA8cdJV6DFLmEM3+oKVX9lYcNmUDqpFRVLJ+ZzYG9fXRjXLrik2+tKS9/H01B//4XXH8tc+KVT1SrPsEAlnRJNV7C3praXL+fOx/2NP0SPALY+HCIb0KrbcJtef1xT5hkArTvivgZDob6NL3IFGh5oxj1N2OlYOasJOPxT0/9bzY+PyfaKHSY9cbG75gySeR2qFsc8IW51XyWMuRmy5bO1PI5Aux+mrLVN9uOPL0W7Qo6PHuO8DQKZFWNJ86CRAsdwWBZpD205w1tJEWZ+wvDvXdMGiqcvX8BkXSaDrSo6DCRs6f4xmUq47gkXaOCe98ZWQ+diQZeewpLyhwerhi1uk86t2sCJgYZOpsCAc4E+PXbaK8XVQsp2WFQDz3Gbwsg02Q3itRQIZt5oN/pHOpdFK1Yat29jOn2QrWAztboOfhx34AAEAASURBVA0iu2t+pYYtqfyiSl0rB8NJCnWuRblXHnzK2sADp9vArzJExiFqLlnfIE3fcSoI52njOiYwe6O2Z0wY+MlrwXMdQEz5dEeJ5PNqy4sbsfJFu+Lcb7wxTr79ebFHXzna0otBm/qE2oIe7jn0pNvi0HfoFOGjLALa67JeqKNUct3qqIAKul74haaQvsgtayxtSSAIA33FyQff5Va/uq5z/wN62nDhM3H3C78tli59Tu9l7NMg1Z0HXVNY1K1EVwA7HIGshhgnHJjEhU8SuWP3xUrdcVFwHDFs6cjnPj+hn7p/wD/TXRIFodOmqo8X/oR3HxUQufieNNCKeedYw5+7yI5RUioskZ2NrdyWzG1RQvhK5imvI2v7MjhC/YFLEl1jOotmlxy7MdVYLfclM5x0Da0C7cARnM1FM3a4VuYQKEuAjtuD+lixoRG741WxLQhigIQOZKWii18YNbmrXPqVj3bwquOLblHPfO3ELxznGRv0iNvZRSi3PME80BPI8YoeeSmaAzVU4aW/3lgVZBkOerA8ecl3+C+13mZijDolJ3jTsievDqpB7oGhjly+9zTOvuen4+w7XqUPnOgn2a99QBx48k/E/gc/NDY/q+cQNnVbUQhMWhJYmqLmOUbiG5MUatDBtnjQcUzaOB4K6Hh0ClMvKS0d06S952/jzlufog+yfFx3M/SZNFY8/O8cxbaebXCTkJ3puw8OiFjacxTTzUu6JTnV69xv1xucj4zJcYGDTRKAJyNACdjrk/Woco3DoXrdpuLoMhF94U5sZ+WnuW7tRRykEaT0lJss4OR7PECrHjXGgHBdpJtqPUdW9auxhJC6kdAnlX0rwdBfCTP3+Es2i0SVrdo/kIItgUjBTpR79QZE/HJkY3iklEGWTWdL1gcRnpTKLMeTfTWJXXSdVG/l9AHP9llGOOpRLnzoKthOm526VpGB+dp02ASp2JGbVTqdAUKm5KVpx0TqzlOOyphKF54HhImmZ5ucTG53ydoPuirnhx2PTuLce26NC//r9+KG596ic/oHxNYpfZqMawVK7M24Bkdij1XJfir+DGjst9LruWyrHZwzyWXnB9TkwHs6MXbp4y4bpz8RJ2/RHY3jf6bnFHTxk8MavgEpOccYzVBbBcHDUxJ2NyPBKU6TYqfrCVwNVT7Z0PseOlo4qicaD3ztd+l7jQSi4xXBcHGZRAZqemseVHAdkYt2FVLfBuJXKLAtH2zA4s8mItwOWfbRAHIFbHm1D/biO4kY7YuNwhy/yp3ZNMci8G4bMcG3DEKJrPq6ZOarUHO6sMi782KKZTt/U1FMVxRjBFUxNJIWNQOBlMx6NIY9zMSWweNP8j4pZEPQVIpkM3BEQPNXFSY6/fcGfl+t0RHDlU8g9OzDBhSkL9qXq9waiQUfsTciim5k26at/YvW/zRuPspFdU5TmOmgjo3bBOUygGlBY9VgQp5sKWQSgxiZcB7Moqs+/N7jgr6cHAd0HLB1MRbWd+vlJb5TyGG9Jht2slfmrqvJAs/NBbb+XL9yBz58cvEQO4moQ263v5jEgRxcJns7ndCPwRzQrzdd/Ls48WNPi63LH9EpDu8+aPFSJaxjw0TPDBzIuZRMFp0KlIuTSypv63rCpr6+dN2L3hG7v/QRvp2qhzZaPALBlORcGx/JZBvWMHbb5Lhxm5Qb9EV7XCnX/96OraCy7GgnZIwtPPV+VomE7522Y3vXnEHPsUi55BgTA8myRrpfCNk2yquvUjyXOT5h+C1y5QnXjLMMjhNEVxCtsk8ZKiBkDIry7D4ZbAw0gBgryyWD545IGGXNkQSWSbH7GHSMZeW2MV6V04eLSY+HOgC7DqnvRvfNczHwV/zUG+tluMRkBvlcsfTJU1YqFo0FAqdMKv7AK5FZKvQOzxHKeV7Fbt00QI+n8/zdgoTGhR99pizBVD/BzqeG/E4BtxXb/Gu3Y2VrX+AJy4MoJwL1JB5StUX3jS4CGKlf8dWgbGKeUqQS7dx1omt9oQ+3bt/xZ3HyJ79bzzqc0sK1py1KQvR1EWFmOLbDj/0m1+XGELYf0pYlDz+JqVueejpLdx8u6YLpQlz/478ee+7/NfrVaZ7Y0G1VgiMcB5/AIy2WZeL5qIUFFBodwdtF6icLC8t2YhIi7UnC3vrkyTPf0sYrHbNoe8XaVQ2Wysp6MYmqkrFxlDqurnRch9R1HAUwyDwOsENWnQhdyYatLvNPKo5gBE1ZfwWIfeFUgFXuApRoHHKlLq8CMv2N2KVjGxUoW4d8xEhF87SpfN4JjpqsUc0XuhiUL/zX3rP0yC3XxnVWb7gz067q3PUdQBoVTT6kYpdfiymk3kD22Mq8Fj3bjoqlQD7wu2vxPNBLrwvEN5gE4plN2bt7polSyaHRAQs2QhEuQ6dMVD9a4wWthUP6O/fhOK5bkht3fzBW9uhIQY3JwC7wdp3ADG8SesZIaj4UENqg5A3Jyfp6XP/Db9UbnI+Ozbv4mKz+sVpqkXLfShtcknHYELM5w0Z89/GQlxI4NQ7LwvZg4Up5q1fDhY2cnNR9iWHZILziYuoga9ZpP4AZw5umUSKXVOj+OjEfi00lo15lSx1KnXaYLQipZCGCsUKiC6CFovYQo670ltCNJz550ciqwbGthiAQEtlcoxNAyshLBkt94MEHj1pUhxSWeRI5oUOqSW1H6U/s6mzr7NhYNfXdWmBIx35LN+PEt+unsht64KOKjU8P4OvP+oVRPrLsIhtS4tRhKtgdAFJl60MruZ2S4faQPcVqe8OxEbDP6Zlb6EiJ32qAaOZW8qsKfAPBc5BRb7AWFrE5nqbaFwl/P1HC1YM6r1n76zj+b38w1u/Sh1n0QtSivh6NEc89LuraQrUlEM1vyw1cwkHWTj04KlH8Og2ZrOvn7nXl9Mgzbond//QJMf2sQnVfszDoGkoCUzUn8UxWOZ1W/6VWD6Zi6vwdRMKbS1t0bNHVZxYioP3Sr3HZkODxhw2kNz2Exk+5+zfVlTkZJm1qXPWmuwpu2eGzbFEjuT/JH6jnENxo0rBQGwZw7jTaQJMik3EcBI4DAyPPchel7MrBpjEoZw4GWLmYG9/nbXbQ7AqD3HtJEY4tdSqO6kxk/HniSQef1YBF21461BXaPtJOWWM4MJeslPPEDLu2E7BFKAhnyQOvHwpmvPaRNCDlu/W+yjlQ3FZ1imNv+LCLUlXB/x1XqiRDGTHwhy/0RPf2V+DE5ScVlS/y7QW9HyCOJv2WnmzU5NSpB19er68VcZriBV85mO4DzbApJ6bErER8lehLzXHd5tJSo3bZ3trU7z5I5+xH44Q+srI5PRW7dvEwVQtywpEEA0JwjlsZZLprBXG8dKUf5K1RNNlF8obDdEF3H85P4rpX/3bsvffXxOU7+IS87nLohSyeY6CahEv89qygOXWZaq/Uv1vZQgK9tRl1qTqK9piytGEYT2Xv2AhKf25/fAjLbd+VLLZhuel52lEmeUwrLww3SGGSo0Rsoi0Tw1iUM9lWtHXThnhsg754VrdCGsFARhH5A/W2Y9OaKdSAckWbfsVgJTdSgRqw7XXKMUqI09eswWw9EyAffXtAJC5YvYLiGTvtu+t00BcbyavS2FaqOMZyBWe1VOidmf4s24EDhidb8skwJ3U/nWhxj7H0hkF/0MPeeuIVm7zSFX5KCYWrKPa2k4w7FLbXKJ5qT73AV4l07WGibzryNWa/SahZgN7ClhYMTX5uX25vwNDhuDocF0wwtxEu03/hipMLIs5ko8m/cmwS65/+UJy67SY9S3CHPuW2V3XMawM1uIhfaaxf0QxMloUm1yRPAeOkJQWh5zC29C3Goy/+j7Hv/g/VR1ZULwW3Il0usexMdqsJ68U75fYgmqJpb1RIeYXq/mGyS44KYqtoc4WdGCWTWl/sCgveOI4ok+badcCFXztpnBm7mfRYKiazs0Bm/cQqO/Mlcjll1qsjhAKrCWWhmA66YdrY8kIb+QU+8ES2hEPZ4HwwneGhVb5Sz4rZ+A1EW0ffdKEpViMVvnVxImH5KjNkVR9o+O5kCiQx6DDrlHHyASucUQQNvzoS9bI3fsq7zVWYI+6IAxbJtmlnuXgjjJVKL/MaeO4v5iiTfFWTUa8ya8rH9O7PxPrH/iImJ/8uppcvSkGNvfdgLB+4dyw/4Ctj1/3/D01A7YXvXg6eIl7ilWkOLBK/AnDs2jDB2FFw2qAlpynqUGNFX4LavPMv48Qbnhfb93xIiwIvacl/VaSAmsUVW5CoP399R6QC7+z7TgT+ttZ0pLMUx575s7H/a3VNQS9zLSzrAqQbrvVN9XPh4ZY28tGPcsKxTle40ic2bs/CzbiUOT5MK3UYEabTxn6lhC9Y+O19hTHKJAl7E1FW+3rHVzKMdyxOxhPbORuS8FwecIuPoOumvD+6PKeElpyNk6PweoUwKEAbt01NBushl6FxJGaF39bGh2uUkSnHHaly26oB3EmpgAzSMmVXWwi6PXoquEHxQWMq7xhNjFbzkYZkbmM7kj4YaeRYilbe6wWPxN4TP5Szo2Abg7ZMGp5T+jBfDPxAC6LVEx+JY98YidcnBeXEqIarti82Kpy7b+nUYNe1u2J7/+U486u/FJu/9yZNzs/q24p690HPNXDE4Pac6rcdt3fF6so+/SDsjfpNxmfEocd8d6xvrMb0Hr2CrZ9hGxOH1tS52UrCgkH9qUSX6XsK+h3JrTv/Jk7ptye2LnxcP1zLK5c6VZGaY63GVHlM7j81oI8UsnH6+a25nDbwrALxr/v054bnvDmWv/Rf6khBYfA1WXeIFg/ZA0ERv63QyrSpy9n4tUi4H8WzHbaoUSBRMCPl0Nlf+OAFULeL2DWGev9IblpY1pWOU5a7CxHMmWaXRArhISPkCrBiyyq3+EosfUyJhfqRZrd2VQAeHu8yAGAdNiUQ2ZP4o053KAXbgURKvaJxbrvsF8NrY37qV6OWX9rUIulVg9oJPgAgpT+zxMOH+yJp1HrjuzBrOIrYt8HW+PDqzw3cVOYnH3Y2hlDKGCDxrZ1wF7t+0kUdvKoTDPakMJAB4fapwmBAfD6slc7OZHWcGDClKnqyaHTz6sPUr6rqltyq3lA8pvv3f/3f4563vES/Lv8hfTT1gP72aCHQBNfoaEhC1eRqMekYYv2iPrN2IZbv9eVx4Hv0M2xf97DYPq7fjbis8NUxvICknXKrmxu/xdHrk2H5iEE+VvRE4+apv4h7XvE9qtddeg1Db0mq1RY4JcGr/vt3Jx1AGpO5shBaGNSpdd0FgY80kHglVhB6dZrTnHu/Ro85X/sgLULi5YzyR2jdqNKveGlj2VOsMUmZVJMLGh5yuq7GjRdmZGISk+20KTlxF6+cUBU6fKwH7eUAyK2Ajv6UegwqdzEEASu5rRvZbEsP36ILjtyLADx0xIAnsvmgDmKY78+wlwBl0U5p0QESqGTFx8BgCDDGWYJkViYtCDHnAsIs7VC0WzYk+PrrDUMx8cmdkEOwQT8zF5NX9vaDgvgWSR8TaPNUGDvdOt6gkDZFUE57WDMg8WUz1qnisl7hZY5/EsVul2X47liEpLJtpRms+LZX8MTvB7J4K1FzbmH7njj3n26LM7/zluCnIhf1ZiLBMigB7/2YmARhn5rwC/pgxNbaGX30dRp7HnZTHH3ss2Nr9Yt0sRAf8kLwXIzEtioCPcTJZ9j9Y7WKZ/e123H5zg/HidueEXH8I/7Gw1RPNPKZuBZHxgTG35NwY3htsHFyB7vndPdB73ZcXo4jL/y52POPHhFbOlLgOe4F1ceLsYL2xdE0BczriUFbNQwnefmxKr7SueWiPQaVp2lDVMHt10oz4aAESTJcYpqBbQnM0Cbt5mxSNpqalbrQ7hvK+uvtlHwvqlbKGKAz9Z9yq8rCN0Cuog4QXhoU4ca9ikPba4OdJ2/rJ1u3BvQBoMtsCh+ahnaZDRUpW/ji4Y5kXBMuNoHkaTaPkSrInMDJugFoG20c2+CvdC2nQDzoWdA2xEO5eG43Mdl7AEUyDzvx0LNrDElp6Lql3CJtCqvqjeqcGYW073wZLfKmIfYHdYh//hNx+o0vjM2P/veIgwcdFza1Q22ICSI4nHIV3s0AhpS5QMcLS4tr+iXqGx8ch29+XSwc+YpYuqC7CdjkdQXHIhvHq0o6XnxRYR1ReAHSj0AsHVqPyZmPxvHXP0/fOfhLLVB7ZkeCCTKL6Opjhfq6juDbp/TU6Lzd6QVtS7ckY1ccfOotsefr9KvTnxVfpw/IOR6ZuxZCHSoZuArzOSJ3QAaXWVNCWGOncbwtm34UgRF/5ccKM4POTsKZNrTpXEKg5DHSyAabfLvQppuJX4seKtV2NhVjbow98G0qyrJuA6LUgWyR8YtpMPFqhSxdzjna02SS1WRLHGxIHKb5R0GgYUhQqg4wG7R821caU3H4bgAZVQNZxwIAJTcDwkUbgU1neeDATp02kLKYOsggSY6Dsojqa7siaPAyzzHYfQ/htJgBFNOHqdhRTB4Zf3U4Zz0xim+AbKTqRPCdRLgOUqY9OLvXDYI2QXU7bvHQ+Tj56ptj82N/EEuHdaivW3Hug+mK/Oucgj28/rlts019CYDKiqiHhxb4OTfxpos6FDi/Fsv3+fK47sVv14/IfqFt+d3K4E6FzKp/qsHcT2IuusJ22dpur04V1j4Sn3vlt2va3qkFQQ8vyY9feZZa1bW1RKux2wkfbhS2OebsuGlCkvSrD7r1qWsnlzf0RON7Y/+N3xBrd0pftx4WdHLvhQxF2pBcG+NT1l+dUtQYsQoKLRTndmvjxs9XLhoeeikDA7syVck0Ow3TGXT1pf03kbdW04bcY015a9eZUkKZ4aYWpv1KMLfjRqMaCVnFWWNavLlrCAA78E6IkXR1kjEGeS/jLJPFBhJj0DW6IiUQ2GxsTzlpGPCQ9cZJGrYNqRSDmKKVRaODvMrQ8GCKZ5+iaVTqXwn1VEkAMQYMZKTSa6Urt45/p52Mia8vGonjuMQvTHdi2nbkctwZSUiv6mScxJzyk2zQurK/8MVL+r3Il8bab92q04ZrxNQeXkat2ZrjiVa0cpHTy/V3mxtIYFbIwBQkH3rdOn9J3yb47rjmJbfG5OPLusIvJUZ32WSYrdyC9XjzQMzg5WTXNfrdBz3JePxHv1eH9HdqUdH5jK4nVDIcG1J1Xh/BUpXMv++QM8vPF6QuEXNzMzYuxLYuhB7Vj97uu9/Xx8Y9zAcZyph1jMRDWdjiij9cuD8QmgHTJq2cOohI9qWCQ4Mh2n1OrqIv/CUvXXZYq0tmfgkTY8iuqD64Q1MYwDzxyQFsi79Jj/eCJ7euNtbVpscu4ZXfVGx47fASOpFoJCrqBFLxRVaRTjJbG3htA6EkXprMsS0rANREdz8IS8YCkKsbfq5IBS7BQNq+1MdGxIf1Cn8n4MgXjS0Du7DJjZt6ppFnucNJsdqldJCVfR986CUfedHOB0OXMSapUCKz9EGRZX1daftjvx93vfwxsXhEH0Llop0bTvtUH9ZghzaHAbmIgNVrRi2VsoEcu9TR1M+96NBTE/nspTj8ffodhX/x5JjcpQuRfJwyk+PQxn3kggSCbJ9JE4YrwBqiuw/XTOPy3X8dp3/m2bGtJxpDr063p6MKLXPZ1N6x+gBo192AonRMzMQm0rb2MOlVZ55T0FNTx26+PXY/+FG6pqBYbdiwG4bNGl/AvU9QKUdDbi/a1BjqcCJKzehgibD+jrxiYFxVm2ADDW+0M1+bisvdN4KiMNhQBB+cco46CVb5Ll53hsivP6OkVPbQVh5AHXgKCIhGvwKw9NFT6nIh15t4LaImdHCQqTjuSdGzzxoB0hv1fWskPdBQnPJ0h8ShojeiDQ8eNDky0lA2RulI5Ma0UtNzLABhjB2yxCo2rCZostKBV76rjtZtat0EXmGRcypBbp581cApLEIhuYkU4PbqdqweWozP3PyAWNk+p+cO9ihEWbMXdYVA2pnaVIdbeI2e8Us20dtTS8uaUJfX9dbhZtz39k/HwqW9upCnw/BdwqYPsk284/bMFE8Bju55ErJVSgfvBzWB7/lL3ZJ8pi5gfkzPDyhmlPW01KLulLQ9eF7AtBlRtoXFmA0Ijly7tn0rRfuZ8jsSW7vi6HPfGEsPflhMPqkvTSlAvzymAcGr4vwWJsjunxpz4tNi9khIDc68LkCOnuTowYduSghhtmRSG9blFvtMDQ3zJLM95WbWFwnHAr6VmxAdyoyVOuqxXeHs8IfMlwekb1uMRVQd+hFC8h2UaW0qMFcWJikVASvaouKnnm1SBVU7h1AaAxkFDHi98t4GvmgqSKD2JX7ZkbvPUjYuBtbBCTIVwKSTa06o2GTKwC5b7EhlgzNsq+OadOBJ7kZEQDA1WkTiA58QjhMyHSCDdJGC/qqtGlNl+ErGUF428EsXe9cp5XysZOGGSVzU3YSTb39mrF57PwHowqJAOTnw4iIjsCrUwhXLqdfHwTU94ifBslxzeFEP/ayd+lQcfPgr4+h3v0i3I/U8ABftUtF1lWHCOK/6o+I6i8vzKPrFmFi4Xo8c3/GXcdePPVF1Pqsfm9W7D3q7cVsLwlRPTPJGJx1RpwUVN/Wqe+b4Ml8bx+xgm5yjkW19T2G6sTeOvea9apuvis172uLBy9Nbamh/bo7nFmRf9eidl9g0XLUReVWw+oXqOBGuCPejCPLCJN5Fr5biIdNfP7wvTOvntRfkhQumgZKX+mVWY5wYzNOmxm/FUBcXUUDHafAxO0IwggCkYRKDLHRQyUoOUKeLUN6DT3tEO1PhA2B6h8JVecl0xdJfxVWBoEIafdpsBMRnKe7QTVhjFKYHQM6gsut+C6cMM3cnN5S2Hf2LYzNtCgczBjG5k2Q72x5+1d36iUl8LJxcIVg+uhZ3v/qJsf7ZP9R3GHV70QYyxAD9TDuKxe55yStHgLmfUtDpx4KuoOmh5Fg6+hVx75f951g/qweZmEtedaRIxdJ3xWwMgVSdmaRMSc5mFnUasnCtTkU++f64R7ckly7qmoI+sqLnqGUgI0AGW7AcEG5caFUsdrKs1MJoitPLa/K3P469+C2x+wEPi63jajUtBr5D4ZAbmsje1vMdIwHCqyQsu2iuIEGWO3ssd2aqjWUA1a5us4Hf3UteRxvUswLwHMxgWCTYsSAmma2Cx1eWex/Br1MGg9gkjROEueA0gACecySFzVEPSgoeE5ISAPrOi0irJqsDvWSij14mdCrVJAGs86GlXxPKLgY/6FVcZotR+OTEiQ7Juo30trDwW7KxsalY1RNdEvLiNY65zalAjEWwSn21dsGs7sgTBSyAsStxBpJsc6FXeFJvog+UvEY/cDJZ01zSp8w1Wng+qVq4HVZ3F7alHzMcl8eN29X2jYtr6ua7BtxZuLwrjv3IO2Px4ENanWtQSKfaGJt2MJ41UGaeNq6bbNqRIL8QpXF11//U15x/WHc0PqJTHt194EUpJoWibFizWBoi27a3R+7kDlBtNRvYI5cdWgv6zYfpdE8c+oFb4uCDHhNrdyg+btFU7IIzbgPv7W8mOkr2mHq+PJO6JSMnhAZEodG2E9kAZjiWwyd1pVbsrB38cuk2RKlXXhASuqjN2A8wDVN89JJ2Lpj2tmMCStZSKhWwnasxagdgJek4GAmRM9Ddpsm3LTj6QwFd9AgKFqmXTaROCutQ3j6xFb8OyQi+FgDjyLFvFaEHY3QgGTzblrx0VHZDpL5jFO0cWemRA1K4QxkWokq93p0hM2IYAnY7DfKOW/Eo98IBuOyqDTExVjp0OKI9oVb1q0effE8cv+3m2L16ja6u69YejahJwYT0ZJC99sWeWlWVFj+A2v+r4NvHgz6SrqtAiMU6upC4fv5MHH36T8fuL/le78z7nkg6HhuyrXZzDGoc1wW2dPxSFW0DJpXQHYvp0bOxfM+H444f/V6tcidiZVFHH3x92XFQl5Yo90TbgpMMx6wNuLZTMP69SvEmOrpZ3NaRgk5FrnnFu2L1fg/VL1HJUIuCY5aBuyrbvdkLS7atfaSbuN47V2eiiGMl7Pupb/GJR3wwIKodVJq1FbglQ1nJGTZKljVSBf9vcik5NnT0R6xO6OjP9Ume64gOCihnMilmP0KoxrNmAaKcRtVYozPrIke/wJXXOVE3T7lhtalV1WWU4MnO2NjDy1Q65PD5My8NrqZrvMEeVScZup7kYrCHpj9bi1ljtkFHwmpAN6xbVrweRMPpxU60OHFS7Yo/kkOBD00hbSouC2qQSVwD0XyVSehi2PaLKnNer6+gr3/gbXHibT8YSwcOqWI40Z+ctCcOCL6xauI6BnMR6L9wZ66RkuyskWoQ+9RVOG5jbqyfi6NP+vHY85AfiO2zADQ1YyUQ1vxl03lh9KImpvnoSej21eWCDZX3Xq8Tkg/9tzjx+qfomYFLsbS628q1qDUvWOOw8lmp2P6CMxG7oZs67pb01tNkU78lGQfihle/W3c7HhTbJ7hTogWHWCp2wWPq9i5XDcbO8FzuW5+0oieuhakMHiR4iUNGqms8VoeZvqsOVtLGZto4Rxlaebkx0bq4xYuhdCxnoz/8F6/bgoMYOeL6XQbRNobpJMLtCFgxB1B0LNJmrgFs3GQmZWvn5NiAkbbIoQu/8EqBMrR1oElmzpMdQ7KygSi7bgIj+fCy2MD+vm0ZozzY16TqI73swUdPqXxAeH4ms+TguY2t3TaWSR9bUrqcEYndFVDSINp13STO/9Gb48xbXqDvLR7TTcVN9Qt75EIoQwz+4dTjltpcHIYiOBHMnLULsf/bXhH7/oVuG+oiHa9S12Sa81AhJHMsMobdBmLii2Xu/6vr7WNuzc6zvn3mzBmP8RjHHo8/kjhpoCoqUJFAKlVIICqqSqCKPypa9Z8ikNrSUEIEaUOCkKhUmpSWIARJKicGISQqRApVAwol/AEJUCQQlioBLUiBQEITJ7ZnnMyHPTNnDtfvt+5r7bX3GS+9+1n3x3Vf970+nmc/e7/73e/DfGfDww/nPz//k7+V9xS+OS9N8rcPz/HbBz5SlN8+dEPBh+wsoawGf88rfOsOKUYcdHH6QiL/5ertNx5ePvb7P3V59pf/5nxRLb+qDMiiVl0+uSWm67RPJIlwLFqquGlHWaQ9VGWxddwELmVKVdncMd4P3X11kBsX3SUqb/0lCqjnoRB0hBwe/OpP+T7tuxJ0oToCk6248thzYCNv/Fj3JBKYZC2yduNwjf8c7KzJiqFaHi2AwDRMttjPhTLPOA0Z/sLpzVlDidJ7a48/Mo+blDfK+A5uaaJTC4GOc/x0PLiQ3JCOH5u3/nHTCpNzmVYchnE2lJPw2Q/m7wRyh/DKp/KPWl7I7cK+IMypMeDVhcAFW1QcrzfjTUaf08aLyqRMgZ7wCX+Gv5B87QuX9/2W//7ywn/4LZfHP58LQl7sM2bfyCpNEt7M49SOm1q8sEZYdeXZmydq/qcDg3wp74vkjcbP/rHfm2f0n8yfTr+QD0Lx15m87OE0X7CuJRyL5zxy6t+PLn6LSv84v33It7m89Pu+9/Lwl/zG/JVk/tlMvruRN1+evJ1dOO8vmKv8KKVAHDnibt3L+GjuhfSjLlsUcUnj92Gi6zkOGJKvY51lE9C8xoAJj7Ys+VM80MTo3jzonTvJV4wvGdAn7yI6FH0kGxIHAL4Z0zvYxsQHlk3hQCQYY2wWxATExKF8FBbzilEYLLa0LvoKHB988bnlI3SNm9fbP4M5pFnYNScm80MCV4h8LyK4TtS41jO8RS8eLxzghoPiOVnAW090ZBpfpMqQ4BQfuT712oePGLCdG7DgCGJePSlHp+OPh5594e38c+b/7fL57/mW/Av5r8iJxqcTc0N67iCwBKSVcz17Xk+Y5nGdADkYQxT59mMLeOa5y1uvf+HyFb/tD+c/TH/T5ckb3JqvQTuPxE4Sx9KEi2q5yg80sri5QtA9R66X8m3O//hHLj/7R3/n5dH7meB8cUvea3iYP5Z64q82chGaK6lzPPxrpCSgrYsCkhYHSa2pGZ4vZQIfvHD5yv/p/7g8fvHfuTz5qeTJBW9uSCKHwZgVrzi6Qx4Z/j3m2BgT+ZxC5NiA2lvIwrie0esrx3mOdRnc4+RJg4IYGjK8vlcm0dKpz5jaggPDlBHMnO8WeV8QMEJoG1BVbBYHwUJcT3iwNUbuxAkjQUby1KRNiJz4oysHv58xyikRgEkz9qg7LUInr2GOBRATwmymgZF/qU7iiItreMpxzriTyo5Lc+LpeeRwLlJj8SHXH3G1OqJZc0A3MfhpNS7tehz/PukG+2w+lHR55e9cfvp/+e1rM+fbiR/6n6ADmE1REuuKAhUfynFzRK5942KwxjGs3/nnTgBg/nT68WuvXV785k9eHn7tb8mzOqCcOZAy38wVOB5ni/+pOZk8QAn3EIXTGK5nPpz3Fv7BD10++6n8W/sHryR1/ht0FpLfPviSKISkNJZ4k34ZjfyeBfN+CFEM6I3X837Fi5eP/A9/6vLwo/9evjgmL03ezF1Q7hBYb0LS7WGVHduWD6VjdP6IH9zZx2QTgwQuD2OXq1OxcAsynqXs2DufHMMl70SJJ8+VZUmD3S8ZXENGNmAHmYOBgBGqL3ERzXFCb2wohHVvqAcoF76Rh3rlgijNRVjizj3q6oK7ufgQU0B96bUlATk6uxsXU3Pj3hejsRePj1w+O6Mc7Zz4Xc9Bqv/crSS3mJNkSjvinsIUzpiCu9k40R8+fDN3Bi9ffua7/pPL45d/IhdhvjgE8NxaJ57UlEJrGfS0llR9We+POUWTmNt1fx5+ML/T/9/zoaR/KwS5IOXKDw+36Oea37Cs0FU/42hC7BbBIUo6v0shMpj3fvzx5Y1/lO90+OTvy6cjfzrvV+SikCs9bxyuMV5fGEDJb1N6mRjGKQM75KYwhzs0yZ+8nm9ees8vzhe3/rHLL/rlucj9q3znAxcEBgPptbvWvagW3528IlaoS4GBYmjD5zouy3ZZHvUNZjuIvatjQhe23AMrvL1Y4mO4sS2T1Pu3DCIycJ5NvYoQTVFELtG+RNrj9x3cvKbrTtM/SQ0gtjxjd6ABmic9MVZznDhctMHhI4wdtmur0cCVWgy4tEmzZYSBaqvDxYjDxUpQL0LU1YsDgeLIn8C1aUeO4s22jmuSqgyHvXQurHUOQF4NC4NZPMJ9C07/+FproQ/yzvl7ctJ89vt+5+WNf/CD+T+LL+W3D3x8sfNBooW+SutWGp221gnMegmBtDS8M8+5NeGTdm/mDcXnvu7XXz72HX/x8tbn8nm/DKafJGRcvSLA7RtfcyXybnG9N7jWP3ZsJALLuLhr4Tcn/q3T2PO3i5fnP/Lk8to//Rv5B7PfdHnuPa9ljXK2xu/7HIlF8TJAvEXAGBmPttWD6l3R495pAEyhj9/KV8w98+jyke/4s5fnvubX5yvkkoDPXCTeO03IhkuSEHctoMCdCBtyG7aeB76UnfkwILK+CUaWhKDOTWwMqdxjXgknHkpDOVSJSCul3MskmXPPegTAOK4XhNhcODJO9E56Na1AsHcTbkgOnbShWIsevK0DwknBaRYYHfXMpw9/Hpyctih78qdOdUDTtkguCNNYfNPFSdliBsitN4mho3bf+ygJHMiDOevrOONdYwCLQkMgLg9zD19j9oKXm74xhEUvl/U1vrhgblrAD5mk/AXhm//sxy6f+QO/6fLoK3NB4KzK7915vvb2u0HwB37//kHdu6eIqcXUCeL7EfJxp8vjn/oXl6/4g3/p8ot+5W/Kv53P16H5buCKXNgVS3zXzHGZdzJE5m0ABkuMcbhGyDe/XZ7wbamcdFkDbvKfy68kX/30D10+/ye++fLwubfy24d8m3Pwe12hIz5t513q4LgYZDb2Yl4L8KJGnnxb1ONHH7t85Dv/XL7+7evzZS7zuYJAm4ccpkl5CD6BmDQHxhMbWBvA8HqnEVE7tvHvPYwtrXWzL7v+ex8KGEzzTFz57Gs78NSJeW7m8Ow6C98XBGqrcSFX4RJ4WMH6An4Kr2MOgxczMh50BuazP4bIDJ7mgEdmMrVFH1F/JwrbQLd/RSwecQAmWL3yxJbDPoddB0Sjm+OQbxYZXJo2SVZN5cFnCeObDvNqTxlWuW60BJobZHDl3LZSxGcOdIRHjy+PXnxy+cx3/heXN//RD14efeAX5yLH9x/khGLfe1JFdkII4bny2jZXTOYyMUmISR2Jf8xF5vXX8h0Lv+Ly8e/7m/nykTyr5qJzQ3SlXHbJpNkb3ARNDncwzT/wxQIGQ3J76gb4zEefXN7+//56vmQlv1F5/K8uzzx6Pn2A+82/xbBe3Bxsw4UF8b75oa18oogvUHnnjXyRS+5APvytn7w8/3X5B7OvEpOomUdEOFLW2psRzr2A78gstrq4KQKcLbr+MzBy50UCgAEJOXCHuGqQaOEMgSf1cREEexYG9Ca+X6HGM2OfiQ1qYBQ3KToNJ+Qju2dG7hXRAQMFxMOVvNYBhfFgDhllT0DsZwO3W4IdXEniQLzhAhyDV/Q6sbUN2HyRb2JR0qx/ZPSOTxn/PHyze2oBM8NdiwOYFrs5Dj5szi27Smd6Fm3sm2t8hew4eIcvb5bn2Ta/w88XqT7Ol6N89nf8u3km+IX8O7X8TUC+pnzdfq9LQJ7nGwbD0dY9A4Z1YWIkqzjSPJOnlrffSaI3Hl9e+t6/kzf3/o3Lw/xh0+PneKf/dn7gsJ21j5zhrfmIPiahK6fiUwfGx5uI6Zyg93z0rcsb//THLj/33f9N/vbp5QwxFwVc2fm8dPFTkOm1Ddv1Lsl3EZ6aA/wPczV4TJb8Jfbbn/3M5dFX/9rLx//gX7m89cXMIxEUn+6865wpWq6BoHQd7/cRNTkHi8o11zDc5z47sYFb88BuOchLTrhzMOcRYL6xe+5kiOCss2tHfP8vAyexjfWnRZckIn0umuu2CPtJBB4AewfC+JyIqLSbq2Gw/Jty/FAQSphtOKuaAwXuwQNGlR/b5OwE7IsExMOHrzHYjJ04xxwnfnx87p8Nh9uLYwShAgYHNm3o7Zdl8ozzflExO6bW1lqwT0w3lnMYG7XyMm4BoqcYfoWJqWbHjs5vzuLnI7MP8zcBj//Zj14+84f/ozyTfziblyBuuEuQEyXc50kM3x4MBZHbd1HnLoITLWfJ4y/83OUDv+fPXD746/7jvJ5/8/Jc/jEK/9exv94k1DUfOusk1xRM7x2iCUmCIeA0Yjmgdlw7jiFkE+rLWJ/NeyaPP5HvU/j0D19e/u7/Mp/DeCFrl/dM8jHnh0nwTk5sPg7ddZj0K55E5ifhEjUlx2MmJX+f/fYX889lHr9wefHP/eTl+VefzR9wgcuFJHHMHXW6HunNgX2ZHb+DqaFJ8DMOB4ExcjDsNUwQ+1VzyG3FkjOtT9zOMTUs8z4ObOmJdZ2jiYsTv3IO1O1aBGdcDk99UnEzEwVgdddFNnKIx9kJAayJuPpC4nV69BMD1WE2dTeASg+A0jo4ZS3Xw5QlH/DMu+2cOPPlYA68TX4nN0aC43DaGzqliSo/ys6BnMeJw9+Gb867DZL7CGLcvkZl4bBPDMSqLHw+zJM/Qs6JkF+V5cR58JEvXt74kT91eeXP/4/56G8uBfnXTH2BwG8JuDx0rl0rWWHLpp8ckpPcnZ9PPr7+1uW9/8E3XT7wn35bPsDzXDbTc+sE4dkiTb498TCNbdFe10+HIQ5Ad2z2g8VL6k4cIb7HBX/snLf0z31lXsH87b9w+dlPfmu+dCm/ack3L/GXD+tvMt79TiCR79r4t7H8+cfbb+ar4j76b18+/Id+6PLso6+4vPXZfO4hk7Q+wndwUjM1Hq0q5dHQO9zrPK847LR7DJzn2OUkV7CcwMah64gRQ2Tmv3G4xBUTndZ9CU4MMdgHd/1XbsLXYROftgTsARE8C7ILkXUlIUMLM2vg94UUY1FnHuTGE4d+gEjTVrPcAtfgrGlWxDom4ByXcuxOPv0Qn/g1UwuzLuEAZx4m365hcjjRZ5Gxq+bQhTZmMJW7INA0/ByX9uG4wYAngMSeLNmw/Lu26I9e+NLljb//Fy+f+/7/Ns+aeVp9If8kxTcZcznYSWBjWHPhVqaGNTL+Ico7r+c/Lr/2+uVD+Zjy87/5v8q3GudvJfIlq+88n4Rv8UUmCaI2OAmbdjO2+Pbc4Mij/uIn5VadiIBK67MjY6TF6BI/eufyfN5TePXv/18Z57fnP059Jv+R6vn4uCeeK9WKeOpoftlDGoU7oidfzB9XfezXXD78Ld+b92D+zcuX8jcOz/KpTOrPg3UijkZdHFzX6Zcx9oD0IyIQNAbmoc27WsZEPMYzbpn3WjWu5+G5ZwjdDaLjikR+5z7mXQoCw8Y3gYQ9+Ib+K7dx7CQQrnkaeMBEGrX6ig4misQQ+JR3m2yNdlHtAolJEDy0Fg3RzoUdDOQzccXyLBfv8i8R1y1P7PITn2Z59HmMSUEM/Iw7CjlNqWOwMXR+eNLk3Vo5Zq6IxY/NeomN0nGJjWkPI/69IMjxwQEerDiMcORh7unx8zAmAr925CO9GN7OF6o+eMS8vH159DX5opF//hOXz3z/t13e/H/+2uU9H84/Xcw3KZkot9cdcvs4ch5xT5f7iLfzHYovfz5/3vzVlxe/9c9cnvzKb7w899N5Hv3Se33pZzoC85LBGiNTT9dXG3oey7HGgb3zuJzxdzAzfmPGbHgMznlyOD+8TEFOHO+dvD/f5vzKP/nRyyt//Hfn7uG1y4Pn889l/NbZ4IIhRp7VeSQlhblmeYPirVdfySc+P3J56bv+Rubvq/Lbk7x6SALuuKizb8xZe+sZXutnLhYpxLsBmVNi7YUjpvtME4cjHrFQa4zhnLe+9PBinkE6TigS1DsoCLxjTL/3VXNgmyQRzf3gV88/aqnBCgJqDDqJ6LcNP4uPIQ8Whjd8borG3piRyUmeCUNVxlYeCxy7r+MB09Kfi9pcuiQI92DlmPrAsRi4vMpHBy504rTH5oTGRnzjrKF47Mg52Ee2YT83Q/Ri4PR1WoDyEjDBca24zB02zIg0IfBGFlfj6KQzDGdaTw6VCWCNLm/m+wQ+8CjvzOeE+cE/e3n1h//nfOPxz7HT830DeaMsk8PLDNaP2+UnD/OrvLfy5mH+6cnbDz5wed+v/a2Xl/7zb8/cvegfMPkdA/AH7xgpkAethab3BIi960RPo/PEjmD924iQFnv9xoQLWprrH2WvU2zOQ2L4kNLDj+Xb3f7eX758/n/9Xfl15Nu5c8mFLxfFJ/nCgwf5BiYyPs4iPMyVnPdTuCfiI5aJvDzMXdCT93/88okf+LuXx6/mT65fjquZ5V9axBnEodc2c4Jqg96A0afDTN009sTeK9E7NubPl4nYBC6BWFo51HPo+qM3Jb3+wxZxN3zk7v7Hsb91WZaJLmnJ7BPo7U2CulA7M0xpHYy9BozXOEzGTKV0VhyBHDz2RI1PaA72se2+wtj25iKO1uLBHerSwnPEb1sEeGinW5lDnMR5Yme1PDkKTo9dFUwEQp5q+ODBwSHAbgixZ+D4xQz83Umv+aaERR2F/2qUb1LLbwTyBawfzrckP3758vr//Vcub//4py9v/f8/lS8d/cl88u+14N++PHz++bwh+ZWXZz7+tZfnPvEr8m/W/7PEfNDX0E9eXy8NOm/7AuhA1jjOQTuMjqX9jKHq2T819jidax3rcI+/2WcZJ79deDZ/9fnGp//Py+c/mS9ZeefnvRtar7vzJiQBmXsv0Nadi0U+P/H4tV+4PPu133h56ds/lU9dfuLyTN4z4ILpWGcNWgsUew1OuXVio3VeRuQEx4aZPXa4PW9iujFu6gjKBCAPh7bRjT18J5U4AYkdxdzDt2M58eDgG5POIAGTtAVYUUCdFPD7xD2Cm6M9ccaASXOC0zuo2DyxAGPLY8SlE5sk3hZhiRO8eZEHT+8VrgMa+wZEbyz8DJb8xHHYGxv9bOCiWz+BYMeP3baFwcVYzCBuOid6xtSFPQGlA7fnGrmgGWPVd+vhpfWq7z8vyW70m5NCyrcDPXhf/gdCXlI8fvyFvFH42XxhSP4/G6+584bck/e8mJPiQ/lmoXB8MVs3f/HHDnkGQl4alD8iG3s37B3AGDXlsG9fsb8LTvjYT7dPQPzap7zpnTdANPQ8VJmw1Pkwv2Z59FJ+M/rjP3L53Pf8d/kexc9lzPkdIr+GyfzJn/cE+Nq2XALz+YLP5R/QfMPlQ9/xp/M+yy/1X9XxR1rgnEMXIndTJplcK7V7qeskLzWlnftaPYfT73hiwHZ/J9BYhozfxjgjNNcZ73yMf9ArJDbwNPcdcmxcDJnSc+3Gtc6Nfg6BQmxDYtIY9kkZuy6SRwBeHQFZDgT0ZPSWNb2+mL0FqgI+Dw4WvgmXHa71ByzrSi1tDtjJf/7uX47yzUkDnuazATGRnRitoyODp1Y4hx8zeaiLh1f32CIaCHYRLk4x9YOhFTM8zhkyheCWbNHsXPF5285qRTZPcEJz2HcWEnAYHuIAwS04YyEeQBp0/LrS3x3HT+6HX+KVZ95DyJ9K9jXoM/kgDl+1/iT/jJVccDARrKN1w5lY64DHZPHH7oW18whu5tVcYhcHPNYaasPpYrPRD3bPV131DfbclwxUzsRS8ztv5UXAixH++Y9efua7f0fuEvhVZKhTzLPZmHxcOaj8heYr+ec277t8zZ//8cuzr7738sWX8+ZhFpv17v+LhLf7YtcZW9eM8sQkxvXCEJnmGjMnS91H7eBjIebumtdp2YHGU0fwodt+7TnIBzt1MU7kgHuxOQvYMcUD1pie+P2dirWPExwDpVeOfV0xY4iFZw2gPPDvFgMFOqnpO3j8DIZB0YzjgHwQgGeyaZhHVFY3UPdThxPbwuB2IeuEExvRsW159JvBTLChHCxgxbiI0bcvgpzwRCAn4btNvBsJIz4enRSJcKSd8sGxN+Fw6xq5cc5flObnwpxfOqxNN7x0rAO9+NmRYmPjsyLYn82ZwG8ZkAHb0UdwjWpHhyuP3U7DyJ0P8sgRsLb42Vue1LFtnuGHUwp05quAGP24MSYGHDtPFO/kqvoodwrv+epnLq//3R++/Oz3/u68p5DvmeQTjbkywvVmvjHpufxq8ePf9Vcv77z5fP67de6YOJvwrp/IoQQcXjoOpHZb0I9PZxz6YvfEBTtx/hPeEAlvTHAYvHBiqz29810/Pdzj7x4w93Ysf+ey6+MF28DbWssvZQ6OZ/p9QSDvHhFyACXW/rR7Y4DTWuzSrkdqstiaZoCdUCcyGFqL7QShs0w2aqp81xNenvNlADm4wp/7qKGNMVeMnRiI8LWG4ssP7rywFddxOoYklO/kmYRyx16+s97mEjr4e9vmPRxyQphWXsNrS+88xuiFPZPCFvXCEJ/xM0mODTkXCubPdYreten4tZNv4rtpF9kUkg5cY6Pe6lPfjgGQdmOmuBoibj7sKZZ6uPuhE6qQ8eXr29/zwfx9x//7Y/mV5LddvvTqv8zfP+R/SX4xH73+Jd94+dB//X35hcvX5a0Gfg27/rX8k1yt5A+RvOHcvJFJoN1EGKa0gPZ8HD784LkI2iCjDYausq7gekdm3PiFAzjjjljto7ufCjXBCtsDAdc6kI+2//x520qQADfL6CXr4oPvCWDsgbvP5UTFWHsnDgNh2HmUAj4mw40Zoxh6C8I7XDoOf2LgoeHisCcVX/H0eZybVPhghHFgs4GLyHp2PohDnyfWSGmAgiWMNuqWdcRo7GyO5jcHAWlbhujkJHb84ITncOI7VmvIQTyHPBz7xDcvPDwpEicGA21ye6uMGn1MCqzDngscKulnknyiHU54fXk3GLhouNdhuM8ccTpP8+s+ZMc2tRILjWNv7hjEQRtc724xPnhfnD/3ty+f+5Pfcnn1Z/5h/o3cL7t85I/85byM+JrL41fyEoG60274oru/6XFSA72H0SN3jpobN3HGgD/b2CfdGmP8xcLhHJILoozNdUOmDRDVfMNHTejcldsGZxebFxjmbuLIDx5/fztIHPqDm/cQZMC1nEsaoigSTl/f3mgTW4rWBs7bQeLirB878sbho+gBFOcioeThJE1cuitBSQZjnilWnsjyohSLGNlFmB6XkApR3BT449sbP7p82GfRWhtAOU7+MZgPOzHnWCWPw5Wa+NqoJa0bYBWy4t3049/1NI4gfOg84KaLzDmErxdYxxiToTk0rLmseybVcXaj3vOMToKO1bpzYvuHl1MDMLmn9ubRTF0WMmVHlwPnyIi2mS/zVZ7xcVGqiXE+86G8qfgTn778VD7R+FXf/1fzF4z5ROPP8zX1+QQn+agFfvo0bUvU5R5m3JC2HXPlRbDzQr7g9sUiA+RuzDThn6k0B3SBm6PrUAN412tqatoFTgx2QEfrvDeHLhNfxyRdDobmII3GyFwQRl6xUQRE0z4JW2wXZ8zXE2PiyNIJPt9HsPhwyjMYbM1l8jkUswogaDnOnDdFn8GRrTsH8OfmOmFn3lMuRlsIWjd2+RDgnmLAdUHPwRjPIW1jErM5luup49CuMdx7G5y+/JNiTVHzUVB2mjUSE/l+HoyPy43DrgyOOd3PrAMYynWiTN6gA1+bnEI6F9jPNhRTbDqwB4A4MDxsE1CMJwO1TRv3IgnIfVJjescSLCYbRBhzNrsX388ffyXujdzdvczroVwMiCNgL+Kix9Q6lMew7QhpduYJvgHYN1DYDZcv2YIVkkPXBkPnxKhgrA/l8JmOYNrkdG5P/PKuOTFgQ62tc7X5iU3Mfg8BZVW4uuG72lJAr3jbN4KxhE/RMDshBxCdd7p7i9IYFoq1oHVi8BkfgYJXpdOno2E+Jwm1zfhRzFOOsVVtL9mxIRxHsDf1lNTEKal6ek8O9XGSZ5NHjIyb1oU43MvRYxz4aN1gTXUTM8ZixU+smypyN1dzd5zWM8bWJvddInwt/NzE5Gor186Bgzo6n1PHno/hLPcZhwv73g/R3XM40iyvAcNT3oFsHEIhyFxcaH4lGt8bU2f6m5c0wTWF/UHsBWrR7DXde6R8+CNrT7/XoLa4uz7gtkxcE8euGn3XuUzLniN24M2/uWKThti50GPohW/nwzY83ZMu2f6k4lEw9QCm2eewT9zIFjNFA1BM78lLEFz0ZEhR/t88gsysB+8qiKKD8x3RYPBSNGZeo9O3OZgY2CQA9wJF92O0MTtwapkgdDg6EWcPxFwCVkyrI15zDMje5uNEj4HJdjGsfdm7SNHWUOkPQniav3ZsK8E1RlPiwJgXUPPhTINnTfLqesLiI2XXYm8YBpNaWZKWFHHASksNr3MYkDkGY0yDTbBiLSMHx05sqYIxBn2MXRtN+MGnd04mjrcNGIuFpus45GAM01x7cMPd/CR1zPCCzQEYDw7s43zKW4zDCdET/8/ETrlOpDiJsZb0pIavD/JbG1ySA15AMOadIOrBRQO658EEy1ibPaaJkXr4u3fitjUPpM5lrJ0H74ii+wbjzJs0BgGMLzJxxsAIzzf86ZhTrTgCp/I9yCFYXT7wGUeLX0E7xMHKG2JPWpS0csHRE0ubhhhvchARXGydHPXUxh2Gg/IQKxicaTXB23ftd96CChzdLvhOZt30NkgHy7SY4w4vLhjvEpIQjGE5MOGE1wbWZ7zZKOhiRzjrMHAWsjhs8DXo5K58+uWOYc8DoRjT3Azp2fB89qFFUsNsgdj4gO/82rHYSbRxiWe+e+dnTuiw05M/PWs5oTs3uifWzAeY3XBOMz7yDc+QwX9Ad16MTl+COjzo8kmDrEE8mQD+ItLvdpkBd07g64NxNAe9RUCUdrM/49v1J4Y5Oeu1liPeXOBqox/ZuKj0iwThygeuYbXPEIQ3r6ACjpjW3dzi46e/fnTT1DPcAAAiTklEQVT5CKxIv5tR0dKXAN8urP6x4WvDRQPLoZsSdZEp7fqb41xJByHBwhoX0UENzXjWQk1hzSlnFBctfWtqDP2EbFMX2A2RADfv9i686pB140hODuyQ0iJ3AToH6GA6BmETYxiHOVnucc0x1FfuiQfPxceNGFD5rGkwxHY+kN+1gT1aQ88ecvlJNifCWV/DXcP497zG8eXyl788jh+iJNKXAz2t89p1WsY1t4Cobb+EGfx6i4/8i8Uj4yipJHNwcJDkpxhJNa2xj96w7oWz7lX4wQOYfMNfCk1HHRsSwGFWOce+uXbAjJ080zrf1gVfsKb3EP3r88dNLch+Mu7EQw5eGwceuZ+HfOYzhiAwAJxNbA6wbBL6TRL5bIThy6MFcstzUgJnkm3p+y49JqB7pY44sT0ALHgwxtXf/jAWTv2OFQzGNF4yWHPkuNebVpNjYwGmOabGRVdMHlONnRjaqA7H8c6v3nDgcx5JGHyxyJ2bjRk8nFBrp588btiJw8ZY5CYAMI1+1lIdvMLggQzHWU9r0TZcxCG2h+aUUbYeoDK2iQffeGTadoHvehQ0sWI2cYIiY+PiTnPcjcXAeNOat2usPrEt1FRHHtLYwMVZXVwczj12HBhplSdG0wTuOIHD17j0ngPj845kaof73HMd89A6NrYQrbjt679yM88QQeAmJ+mKW3XHTqDJO0PoEE9PTf2u/9pisrl5InWSx2wHtkTwdaNpz4F01hKZeBaUN4NsKbYXCAYItgO2MBSJVlcfJh57oRJn3hjXGGWPkh9ypaeV34tWdMznIrsZ4JB8+Qn39Wg5Jk4O6gdLaw+uOSOrwgkmB2EaV6zzEx7rCOQY8qYklLizLmw3Dc4h97sYIUodXbO+NiWmayI8B8cde/m3PUJ/7SgGPmqd+vezN7jY9zyhw8cjh44tqjnw0brmvOdEO+vCRy6IqMsYCGXFGBv1xNI7wF0/7ok1N6AVcl3v2IyNi7rJDZZvrgLLEgLwjUt86GnEtDkPcWDTzyHxrWs7AnAM8AxeDuxHbNcKH/kppT02c6QnxjHXkP76jUkkADHNCYjsQtDnQZw97Ah50OG4GdTYwdP2BCPnoX07l99FrLN8BKdpjs36iMMwHZNW/aYf/nMcBp2Hg+sp88TLSb7J40JM/jMGWbr4zsWSZvIQdvrg1jV+9cmz5yy+cw3OnITRil1ajpnM9c9IrlPTFGvyCZrcBFkYcWOLrql2MIfvJi++4LTVMbbdETsnSCnbj9l8XmxqSHDpHF/JxsicOFXokx9O5diUx4dsmIeF0ZBc5TY3PMTSH7CIiw8hTV8OxTRnQbVbAwHJ4z6No9yYIVAngMbYM6gTs2uPi1o9z5DzaFjEpUxC7Dt3lPLVxhgBoHe8EW371441CIpy9vhMfhAVr71KeuLaTHwOEvAsgoVE3RcScPFPikVR8pBqp68tiJ4I50Q1fveDZ1JoNxNwcCm2+CiI2HYcBnYgbXCFoxvvYWKHA7gXuwmzfomvPPc1ddF9xoGARMONamvysdvFprm2YhKw5wgbmw6S4KwNZWTMnVdkWmNb59AvZ5TO0a4xfGIGeL8hV+DCWMcY5J99gInw1olw6uWc0NUBnpzFtmaJYtz2I/CpHANy3ODO3KQoycGhOHb8DKNxHVJrsY+760xR9+PpnJfXoVkogWteekcjhsPw0OdHkHHIR9M22F4I67756HLz1dkeckk4eFke3ayRY9/+2JywiXFSSB59T8DSVtGDw78HgkybmXSDRjUducgR3dtOcGne0gcvBkMEcwpcsrgYWx+6LRhhFjH+kTcPtXy5C8LQ7OR7B8QBz8xZYfbUgZC+rwWB1jYuOtueg4krln4BcnQQ6ZPPEz26z8zNj57F4iNFxoFLrcr4EqqcA/2eJ/Rg+ebjVWD6aeDOlxEEui7kTOu0wd0L3Hkb3hPh5gQIFl4exHkIEXl6W06cdomnPnJjjk0/sTQwg3dexoRt76UDd8bv0MEWRg8lDYyt4C+DFTfgjlsSf9e6ePotYHu9wWfsdNTVX7nv9aWIIx9AzzMCprEG2P1tUkTfbMaPLbHMKRya/O/PkfbJhUyS2USAaNhceAyRu4BAd3EA04BQhDRgh6uObrShEkccfrg6cPzYnLyjN//gyHHmB6steNJSh/k0Rhl/pJuNQy4gbcS4KLMY2rEVkN689DM+5y0YuM48qNpqD57YUa8+DADxNaC4M6ZFBCMMPSv7hJWd2D3muMqp654Xf9vwOYcj71t9qEMAb+d7Te7UwByksY+Yt5tnr+jWZZ0jA04rlxAOaeaZcWiYeNcE+13D7jrXd+aJr3O95zTx/vo3/VArKJeDHBO7TQCmKc5YNQ1258gg+k3U+lk/ipy2zx/iYjNHDl23cw6bnylWNvkicq4OTgDlwLyhEcAaDwbn1HTzhOSfP+MdsCIBCLWn35MK0TTJR24R2AhrE/Nl4gFSJO2MqUHfxO5cAKNMt6BR9NdezNjP2j3JN5nht1yLfjly7Lgw3IVdMSPVT3pbhTjwyZW+YwZz2oRzELxwpXCuCJjmiYRcQGIaajyLHbfPxsjlnBBU2hG+9DhO34TpuyaYEieY8XQcrb0kcrWw9IrgF2Nh4xj74HvSAJVnYnZsBOyMjfw389qY2HuX9GX3Exxwh+fMs8erc+UBRjv3EW719PsCCuiuDc3KYdACOHdHYkSxOWge380cH9wd12GSQI6SpR+aNazaGxSw83j+LcM9BuwmobhRTFQnCo/x2VVP342r6U4/4yoTfz9BTWUOiEaQE/VouqOzQNTLs7dfOgJG8tVZJ7bgerL0nfBynPgjHPG6AZuHXBNIB//OQUDa5h2h87m8AyAo/pt5O2LlLFEUxJ44bkqfKmNMox6fCTMHNwUZBCA/gzf2vuCTX8LFYz508OFwnq8qnrqUezBHFMc2sZRGjeXsWuBeg0NIwwCYlppZVykELjNH1G2XPAbGS2O86fa8q8QAroERb9pg6Gimi2Kd1emxbcDI1XHk0byo1oj/sMsRh/MDaNoWB3vqQhJjXVFYc/OkB7dz1n5wWgN2bDmQd/+WoQMSNLc2LfDGRyyZ+kIkAd4eYqNBMBOMSMMlr4foFHHvvAGOPxixwXtSExecryURhqOY6lC1kdtJp4cvD18zDWdrxU3ZfZm8x44jDR5fv6rlABf1TM8m7TwV0oEHUnEvdmP9FiOSwkOXgz0xJ/9BsuZ/SFeoMRENJh6+cqGWX7G+nUj3yts6AEqUnv2QyfEkaB31w4Vvxo+ZXGczjrHEyJhozhs9+sGv3nh8Bg0GjuhynL6xnXvK18ZH+A08yrvWi/2IoZZdZ+zdd544+GKjlin/BgtRfhYfgOIjEmeLzToHiwMfec9zKuokG3/U1mCMgMMG/FiPNf9hTrHnHBGGj5zWC6R//ozN6qcDNHmuAyWgRvBpG1ch/k6iBLF3kQ2deOBns+jD4EQXlJ4weSKcg1ijWXUBX4MH7I+BxsIRobWB3QOcuE7Wu40R7E2NcGXSTyz1tTZrIUdbfLT6Rx1jOurFeASqWujkAUNEcYdsHeOv277KhBGyx92NWgw9bXLuPLFvFzJ+ctWOzNWU+Zjwmx6FFpziOB1vzJ1XaGmNXdqh3zsKaBA9OQ7+kxt7c1TQhnFiNgYe+NK2u4Ya9eYwse6tExOZ/Ewz01NC+Jq/sZhsE1OMYxnXrgN9cIi1I+8cMZKTOea5e963FOIhdgL3eKNiWheEYcRQ9m5ObRMMjCgTIaf1JFraIpU54KGta+tDt06A8bpwJluGmxM3RP59eVxChpjOQa2Qm6O+WJzQKtG9hT7y7KDYqAHoGaMe27v2iakd4eYEOXjEkLPg6em0gc3DjVMcvrMdduPQaSqr5vP9gjEvzMQeFGser+Eb1znQ0BzL22Xda0AON1SE9kC1NyYcnhQHlzlazPgb57rPBqPzmjWD2W9Ox37QrX3ExSjGgW5/dcuZIPK37YtSDO5lMPHvPVBOYiJLMfLe+9hjwyxGAWW1fbGEK75zrswT2OZqEImGx5yTw7vbuMwH13kyYg/OOSvm4JGu+vC5ZydPQvKSId+HcE5EZ7KFtijsPiOmgA5esmS3n0Tc6vBJRTGzoufrPXLL3SLgneKNITYPB8UBDlpAhuBHRckDbAeFSR89SmMPHi8IcdF2HXAGj08ufMiAOt7BYCOH8xHFfB4OGffklBc9mM7f5hihm8F6BkcKf6sTDDBvLacWkpKyY3lq/AnonMPjPK1OldhVeDii9PZ0j1nUyk8Om0EoETI2ax1XIahupjiBMy7G0FxGR8fufGDQmD6tMQjKsTkH6b3Y0Y9PAHMM8NotOmwz/+YSsQ6ks02C1lJzfc7F5NoxZ72HDyoTx+/Lp9Eb15caHRe1iUtyvrPSly8mXvMiF5Qh6DpSD3bHb8Lll7N28MA8lNCwZYdjYuUbGV50p5OPLu9JCUA5TkiVh7eJVSHO5uyGlJyTb0jZYOD34sG3TLuPumV9BYCbQv3rxuGtuz057wcO525wAGYQmXQ6WrmbvHtKf2L80s4BdfyEWtLUBc/JJy6+bRt/c1lGOQhuI19kS5v6UNwE1YtNL3YHRI98AyMWw9iBAnDzYWOwacaBBTATgEgoTYrBa+eAnRguSomRY4LE5+AzYXADXzzBrs0vhRzlxyLF8FqrzqMGfME1xnVfVNvhOAJwv038uTfdJ5OstZVCHGMijsc0xdl7muqjn4LOeawZLPm8gE8y5s2L7uQ5a2j+7qHmsuYAW9c9vxzMbQTK5G2olut8UAc2Dml2BN0QRZdo5YHr+qYivgZEtiVYUJThvdlwYhLjYI9EG7tYdlJIhCVmnzynDH70dLbSnhNWjvvBYb9vXTSwe3zkaAIC5qS4j92ThSPxJ/856d2kUIIptTVnlRwrOakBLtqAq1vP6V+olRPSrvZhx0RrLLK0Ocg7xdDt4nfCYAQ3aPXWCj7tgLZcjW7S+Id+UZfLuPXhJzhonavWsOtNTLlI0AsWfu1wHg17x6w5BbQGBN/0nZjNO/FyRu74hOXgmkx/pLryHkY4z9qQOyZ9KU5TcIz5zNU8pWs9W2cgaXtNlnrlOfjGtdfEnDncj1lAwemtAd2AGUv95IfDXztGsPgOBN/YWuDgrxM1/trhjWkdYtz2Eeho9L0NFH+ejM0ZjPnBJ6CTHXWNZTjVI6O2ddGq3/fmjLEL4m08xiO3MoEH8U1c7cQUF6E1g92QCG6cMZ6+M+eNPfHotPIsbY4YATRowI0hSEgMeyOOTYaJO29lV8Didw6hHxxcLWhMa00WfB1x0AQvsSZ4eCakGe9h6doKpEZw6LV1f6CPjFhYcUO/HPBwctZIPycrgZpDIg8KwjTV2tI3V/2uMf60Hd+r1MRpp1ZafUsz+d4nwU/IqimYzjnk77Z2rae4KUV2fLRy7nHVkL77nrnc8grzuP6Wockhm+B9EkZvciJw3zeIvUvAMRW3uF1UXI3dJy3cxGTSHDxFsnBj37/mi25d+AiYwXTkLvzkZR0Uc+idC7e5GDn5PQmithiw4q+mpRNDwXFyi9zX2uqxm4e6wAEbrB2HaVuEp5gamxhf8IwROrhvFiv2rgH21t5aNHGoy+KixMava/dfhU5+6wA8yeRET8Nn7vR7zMt1TTu5Oj/toae5VukLW8Yck8+5zFve9LSO2VrIvczaia/O+NVLiuOUiaP4XfT1fQzjBu7+yv216xY4Y9231aODNyYHKCt3XDsmjrhXG6Hzh9G49LiYaud1dHGRHVfXKEBxsdtKQB5I8nAf4KxN4NjjB3aDW+rePxbF3JMoTXx0ecO5Lwh1WiiJWbz0s25RjG8nEwNcjHGPvG2Qky19JxIG6oATuL7K9HH0BMNtOzhM4WHiA8BNu3m2w7CTLF9rGDoQxjpeiwknzlkR8IzJ8eAPn3pEcen3ZBCXh1jsR5tyb6Ao2GnmWeIaSx2x7fmglujHkDTsOuCBc2owDj0PSrMhQJK+F0XwXnQZ22wQAyaO2mY6Grp7BPNBC3fnLSJt7wfkPKwvPWPok8fGwBU7zj2H4WQvFIu7MunknJyOE2Ma8fsEhxee2M0lYHSw6EcrpnsFl7HprQ99OOtbhUw9GAEmSPzI5Wg+6x0Cc8Zxjrux4Bkid1fI2qdnvfoSK6YbP/oKVFq+BkNU4vLWF9fNBUEg4DQnln4eTmyK2LE4Rjk3dazLPsnAuGF0LN7u7M11xMg5NZyy6RKga/zEK1IXm2lyNGf1M4+LHcO2DYnYkQ8aObuAjmMHruTE3YUt7sOhyAJGSLdOwkmCjyQ7x1LXRg7xPbdcBi2C049MQDmR9Q//niCNg8UX0Y1O/LTOE+qGH3kxnhjHEOwJGarbLnH7JC0e26A257sQGVcgeOTBbTHClu858B02xI2F72jYaQd8rVEMjSlm48Zx2rcvQtcYWzHyn0nqCwBz58qY2lDSmCt4eHCh7cXlhpyYwQXydCOYFox7oF+QguWdMHJiQQg5WIri0cJqU2d300g4DrpdHC6DB5NukyK3BeMVEh5ObvT4eNDghod0xW0fQhy8jSV5utYYgzK9rdjBwOtvMghIk2FymS+F8JeBDpMcAPLomKwzeMJxIWDbV+9x4HN+wBBP3wY5EyYo/cSUk1yNxWaL4HsfjrvGCb0hjw/scMhJrsSVq2OABZul5EBOHsbG7mYJj/SNb670xBHPg9Z1Qq+Mc+dLTPHQ8Gisdy0YDtsNZoB0A1tPCDE4/+mLpxeeQ+8cfGd/MK2JXMbE3nPAWIIj0LWdnO4FHGBYy2naJ6hzqDp8EGInBD4bNgS4lsXeucWAMAGNwdy16XrVZ/DBhb2Y8hejD//1ghCtCSNa2Y7CkBa9g0NtIci7UAoAF5OLk34PKEZlfAfGomLbvzuJj9jGObkTs+syQYzpETm4INWxhQcScrVZf3Ond3OM082KHPsOQYATm4WsPx3efvAUEIMbH/0uJyYgNHKUvHOBXTOHeX2N6OvdCJaQvpvnjCMWfxfaOojJw5qpK/JTLXbiHNs4wXvS4CA+yoOcnY7r5FxuMZDIMzFSRTYlMdgpOG3PD8qBB4sqV5SZ5hOCV9KbtVzWdWyuaL6NgBWuEMtdOT0Gb7fnBHZNwGPHP625sMHBXuHlVnldj+jEuybEx80cErPHq3FxAJCLuMmD+9wXYojvyQ/2XHQCeWAjmA7MEq97QeINWX5wcIOdAMcX2f4bfiBdHUNoN4E1NQh98hS21hv8OFucMeBPX/RuXif8rjg5iLFiwCizEHf28hdjnpm41mhfJfEbixi7Jx12ZPq0SbllhRykOZ3jaFxxjgG+CB2rwbPA+odHTrjBDhEyk9o7jb0xYzasfvo0wyI7HgExVl/iFUNA2+QD63y/W0ywO3/wzWEa8MPV+JVojIIOGS5yxn6/voN6qtv84zkpr8kPXujhBz/j2zmxnQSsB/NcKOMjdhtu8SfvybnhEZCbt2s6Q9bZupzTqY8QmnuR/du2iRdl1R07BmgcSnRM5Dc3YuTWTc34TSEQcGzg6Yn3z5/RwkjHASyPTow9NqMiTGuyxbaMi3yA6ZSGUHyD6WMvpf0oxaG2WU8UJ4MRzcl1xls0mDzgOJuTEtvmAZPHacdgGKBph7gsNRQba00IO2/81nraAGIfbnNNPLLjrhN7jJ37CbGTt8FYhhcRs2oOUg2ucHqmDqf5YujmwVwcfuemGzQO8xYDOTaCyqVSwOJtQR2LewjI8HkS8K4/sTwogMfIveuLZe9HXTnQg+0crb0X2/igwS9uiZt3GzM+L7yEGUDQtdXUsePZawzxAJrDyMOuzqEA8IdftfodBpW7ElsUYdHPWpofzF7HYOStrfrwW79ki3PElaZ//gxBWxOjN7n+kpAgMj7seyLxZ4J3YYOHx/gcjCHWwDpArNZY3yQcfmZi4wPT564Ob2bsQf5Li6+pB59ubzjiuIWkALpzMZC9ddSxfOApjUdPHGMYF5CJoedc4faw80DtYK01Is2YHHxpEl/f4d8+MPGTS04C2mLc44od3uYiVVufWQwdBx16x1Os7hysVUA8nBTYiMlBDLHoedCUx4Ftpl8eY/ANz0q8uJQDvq8DTprrTc7ES8E8I+fhvNAH1zk969l5DAS0OMRw2EVGnsb870/1gSEf9eE/Y6KytnHbWs+o1/kgJsFiIUGfbqeP7byw1Q9nx0A/VKuPDzcF9AtaO1ddO+cUHI8E+94LlImxXuJj7/+ZXIQLi2sNQmkd4PE9BFSqmYboayUmC1uATEw6WwvB4ELhOOJdiMbG7mQ0FntmCvjN6yL8GhdQ8eSNjI0D5ps2OP3jHJP1VXYiE2jN0/sN0UPWePxMaK/OUpZksMwHC74XCfvEeYIwRglxLD56TM4fPYa0A7ZPhJ2uoAXdtRNsnrG3DtXxmWBqWokXeMcF57oOprVho7EH9hgiO77V4b6r1Wjt5sr4uzc2B15yOXGKLdE4NzE0ZwMfXfa7Oa2jfvSuLXLzGjsgujbtUeht4+z6yBdH52vjYqPWVZSRG4MGbq9HFO9AjmDndYUtinINZu/TLAQun9AinGMj3LoA0FzIVZc06DNfrVX82Lq27vPGJmR/p2LrdTKaBEAe2xdZAz3GcSLOGuOxGTM8NxxHnBsAtOAV5zEBXYRabwY/xoaZmxjsw9/J2wtzFgEOPRPh5CPTEltxVM3bFqE5vyx2MM1/8kh2HOBtfeXVBmYLEzDjGs3OhY5kbAnwNHZ6ura92YK/DymGHp/rE6F0CMoTaP7IGzuBX3Zd4YR7ExJw1yS7s0XdccjkjKFzzN5wA07YjZ3ANLuRxS+zDsw3tvENfI2vOY+4PYEF1ge2cnrdObiHsRc/uH2BmBwEr7mFZYGREPfY0aeJmhjHceTCB793qJHFQolAG1k1su8hqOSwFxhHsI0xcA7FFFDMHtTgOsHl2XH4x0hs/Zg5sb1Y1XjiCgaYBt/N4MGmOelHHLYzN3InRx8xIxiLnNZxqQy3tK0jhVpDjI6di0vAA31KlqeHAiVcQY4l9gf84Tr96hZfdEJQbjaExmVv7ZpycBMMiXUSP/jqussBTQzWAXZiEbecBfJk2zEIAU6cIWecwddwY+eZY1OUfuL2y8HojhV/5NZVemzKIZoqrnPkJlrJnReAtAnGTRm01lGI+hBuGwLrmx5Rew7CDoKuAbzNpTvYvqRw+DH2wgwUHzge5W5h2HbTOVocqI0RF8OGjEOMzoAbMHHomJhn5sSQX5W/dsSAoxPl5A+4C9FggeDjr68TBSMcJklvQ5mmGEx+VnIMo8vfYMzxuTmIRaZvgwADD2RaZHlzcPLZvNijC1OJPPjzzaxxLSrBi6sL5S0utUFXcPrNtVwryMmMkzysfsdEHx2zFBGYPyDLsPSbGHzTOh9gmftVbL2rhxucdZ8YYnCmtRzcNMybL0ZhGmMPeI8X8PC4YVDA5eFewD+NXMyv7cRgQ+9cRPZimt56mJ/4kIHZdMQWg7WArRyAWA7DuYLGDjY+MZElRc/Df/g68Q0Fco7FPEOIHdzDgHytnh58mzmi0NPKZRAGHHkYo3NAkfsSSidzgC3u+7r2X//G4biCc57p82jyp2rAXzc1RBFzyPhpD74+/+zV1/JL3wWT0AZZimRyzubEjc0ExQfUzWuPnkfdhuRgPITjkB95OLVXxhxfOQijOQnpu88AdLBH6KbaYzpid8oR5EIevTnga54dExs4dOoWq7LD8Wxlx0FW5cCLzaG1+ywfxblJ8r4BamgOm4LciWt9OND3hgZIwzjAmu7vlrquxg+PMcQThIMmYJmq4hcSn3OdXtjEIW8ObDSNS9THWYAvD8MkiDz9zRtmAgZXirGhTsi+kAgZXpz4V5LVofaiUzu2NqjbTDO55IkDddsBjmNgWHa+m9wHD/m5oNuwp3UPdm2WNVT1CzpyE5/N0PPaMS3TfnPb2sCVw3nPG/R8DkF7HQeok3IuLrmB7hiEtF1snbHpim5hXVHR8cXOBp461gk/XEKGZ3PUB1+5x0a3J0dlAJG1N4B+2p7kwVOPJRaQ3omEAzmPM0dlHDe4gOHeqYaXeNrmQmks9gkAV8yawKs+kJWPeNqRyxwTvDkCUc6h43OsK/R60QA3QTc1xE7DJ7+HxdV8hNGMQ8miOicR9RE7ceBozXUdLMbJIeKaQ47YbuZ5wUXuvBPXeTtTNp9YuAbb+kpU+3LzEZ0gAMXB/0xAbz21l/PqWHi5CI8gJjLz0LuixtPDeT9HxlCIzqM/bcht8Ecm3x4vsTQc79bi5/z0DfQE+qYiv4aRIL1/HQdogndRJ9m9EfAkPBeNEKEc5ulrh5pgtHQHhDAL6ATZT02GcfBKkrgEtvYW7QKAgXf88seG3hOCNKvA1SnHJN9sarjgpePQiTbX2E2FbzDnyWAcoXGuC2MUgcNHjASTAzW6Y558chAPjnHH0FtFTE/FL4j2/SzR24d55rAeeOBlrEMDnfVjN/Hy1Q7NmozdWav0FgNg2ujyz0QyBtdnEtrlYB0Jm5RrSChT9573mIzPey3eMTWVREvZ3/gT246z8MRgA1Z8FHnix+RLgkWzIIAbg310IaesIdDa0nf+zphzP2L3biA9uV1z+jxa90FnBvgb07s7MQfQeNAI05WPnL3LQiaMlyIID1Pwg6//gXfyLU4P1vl1B26BkO7XpSt2DQDCJj1k8Luo2NsQy1l/ezD4rW24pMY4jhOLrZPrBhkC+QNkAsCzD+AEDw4q7Ar0UdQxISQAjJONj7gF2yFy76AVh3qYlJ0z7BQxTrlKGLOtOhjkttHNl0H0tWZh7YUnrnOrHmd/3dV6nSfGR2AaHQ/ex+y868qhJW1h6jKWXInhIA4lgvIS8a6TA/344FHXBT9crW0HEzcPpu20I5uKw7SK/K79vEBon4LsYnD+iGtQRMb9zGJd++lYK2DUV7wnO+uAjXxwDhe9fmLy6HxG3PEdy6aMIHY4VALfnJHhoTWGHoWQ4tRjwMfD3OnbOufiJVjxpg2YIXNT8JkvJP4T3/3kyQffn02BdSaDQOIeoydgOPYJGKtNQiTwAW09covFZnxJBm+HjVgUWoSe5CW7iR8sNh60vWBDch+/UMGPn7qIPXOKqR3HyI2tn/kh3gkfXPPDCam8KPVHBF+9Ir0xCNOcwxgndMhGfzf7kQeKquXbRENY/+5HaL69hrE/VctdAtd39ov5IEnr/Eu9E11rw2QLvnukJvr6h24Gf0U85Z+Ym3on+OS3lJKWhFhs0adbBfQ8KPfRR9ytNKXdjgg7X0FjuyZaOdGZM5o8U8gRtkN2nsGsqBXY2HKdm8F5CACfvAc5Ik9cn3vjcvmNX/Wly4Pv+VuvP/nOv/fey0dfyMZ9dq4JAUjCbVkuHUz2fQ0Q1dbeAomNAX9bsejF0ttwdmON0UHBU/u7QE8i8BsLXxqdYwjHniRsOKcNVOM5aboDJI7Xe5zRYsNlPAqPITM/QeM/83XD4d5t4tTvuOC9nz/hOZgyB/vo1Ay/+QGNj7rqsydg5hIY75J793LYqUXI8KDj3m3sdKvlL0EplCeMdGCFRNh3Jhu5fADE5UBvi825j8JYKuPr3MFr7A7CsBq+mo2NYevjcw4keTpGy0kSwwFdCus/xtO38yDEses9dPEDHPOag1XKrlWha3QkMXTix71rIYa53ySNi52QqgjMgU9MxMTnHXAIeYn02dcvl9/wVW9e/si//wuXfw2NDz/GpaKAKAAAAABJRU5ErkJggg==;" vertex="1" parent="1">
          <mxGeometry x="592" y="610.62" width="34.32" height="33.54" as="geometry" />
        </mxCell>
      </root>
    </mxGraphModel>
  </diagram>
</mxfile>
